<?xml version="1.0" encoding="UTF-8" standalone="no"?>
<!-- Created with Inkscape (http://www.inkscape.org/) -->

<svg
   xmlns:dc="http://purl.org/dc/elements/1.1/"
   xmlns:cc="http://creativecommons.org/ns#"
   xmlns:rdf="http://www.w3.org/1999/02/22-rdf-syntax-ns#"
   xmlns:svg="http://www.w3.org/2000/svg"
   xmlns="http://www.w3.org/2000/svg"
   xmlns:sodipodi="http://sodipodi.sourceforge.net/DTD/sodipodi-0.dtd"
   xmlns:inkscape="http://www.inkscape.org/namespaces/inkscape"
   id="svg3406"
   version="1.1"
   inkscape:version="0.91 r"
   width="48"
   height="48"
   viewBox="0 0 48 48"
   sodipodi:docname="altas.svg">
  <metadata
     id="metadata3412">
    <rdf:RDF>
      <cc:Work
         rdf:about="">
        <dc:format>image/svg+xml</dc:format>
        <dc:type
           rdf:resource="http://purl.org/dc/dcmitype/StillImage" />
        <dc:title></dc:title>
      </cc:Work>
    </rdf:RDF>
  </metadata>
  <defs
     id="defs3410" />
  <sodipodi:namedview
     pagecolor="#ffffff"
     bordercolor="#666666"
     borderopacity="1"
     objecttolerance="10"
     gridtolerance="10"
     guidetolerance="10"
     inkscape:pageopacity="0"
     inkscape:pageshadow="2"
     inkscape:window-width="1366"
     inkscape:window-height="741"
     id="namedview3408"
     showgrid="false"
     inkscape:zoom="1"
     inkscape:cx="-97.356404"
     inkscape:cy="18.578273"
     inkscape:window-x="0"
     inkscape:window-y="0"
     inkscape:window-maximized="1"
     inkscape:current-layer="layer5" />
  <g
     inkscape:groupmode="layer"
     id="layer5"
     inkscape:label="Calendario"
     style="display:inline">
    <path
       style="fill:#00c000;fill-opacity:1;stroke:none;stroke-opacity:1"
       d="M 9.3164062,9 C 7.6575562,9 6.5236827,9.4372569 5.4804688,10.480469 4.7981287,11.162809 4.3895119,11.877193 4.1542969,12.796875 4.0039709,13.384643 4,13.717724 4,26.5 c 0,12.782276 0.00397,13.115357 0.1542969,13.703125 0.456246,1.783907 1.8370032,3.173289 3.6132812,3.638672 0.5506,0.144305 1.0772719,0.150097 16.2011719,0.154297 15.30973,0.0042 15.644425,4.94e-4 16.234375,-0.150391 1.79924,-0.460167 3.182408,-1.843344 3.642578,-3.642578 C 43.995763,39.615357 44,39.282276 44,26.5 44,13.717724 43.996023,13.384643 43.845703,12.796875 43.610483,11.877193 43.201871,11.162809 42.519531,10.480469 41.476321,9.4372569 40.342454,9 38.683594,9 l -0.917969,0 -0.03125,0.9179688 C 37.695735,11.043857 37.538526,11.464564 36.941406,12.029297 36.275906,12.6587 36.05,12.710938 34,12.710938 c -2.05001,0 -2.275906,-0.05224 -2.941406,-0.681641 -0.59712,-0.564733 -0.754369,-0.98544 -0.792969,-2.1113282 L 30.234375,9 24,9 17.765625,9 17.734375,9.9179688 C 17.695735,11.043857 17.538526,11.464564 16.941406,12.029297 16.275906,12.6587 16.05,12.710938 14,12.710938 c -2.05001,0 -2.275906,-0.05224 -2.941406,-0.681641 -0.59712,-0.564733 -0.754369,-0.98544 -0.792969,-2.1113282 L 10.234375,9 9.3164062,9 Z m -0.9023437,7.539062 15.5859375,0 15.585938,0 0.40625,0.183594 c 0.51362,0.232275 1.121149,0.867507 1.318359,1.378906 0.14556,0.37852 0.150391,0.71032 0.150391,10.898438 -10e-7,10.188118 -0.0044,10.519917 -0.150391,10.898438 -0.19721,0.5114 -0.80474,1.146631 -1.318359,1.378906 l -0.40625,0.183594 -15.46875,0.01562 C 7.9266475,41.491949 8.4237594,41.499948 7.7871094,41.167969 7.4165494,40.974741 6.8541631,40.323576 6.6894531,39.896484 6.5446531,39.520552 6.5390625,39.169841 6.5390625,29 c 0,-10.188118 0.00441,-10.519918 0.1503906,-10.898438 0.19721,-0.5114 0.8047394,-1.146631 1.3183594,-1.378906 l 0.40625,-0.183594 z"
       id="path4962"
       inkscape:connector-curvature="0" />
    <path
       style="fill:#00c000;fill-opacity:1;stroke:none;stroke-opacity:1"
       d="M 10.23831,31.708585 C 9.92392,31.568632 9.5959,31.170161 9.53719,30.856863 c -0.0259,-0.138384 -0.0361,-0.925905 -0.0226,-1.750047 0.0268,-1.639834 0.0439,-1.703371 0.56241,-2.090482 0.20251,-0.151191 0.32054,-0.161078 1.92304,-0.161078 1.6025,0 1.72053,0.0099 1.92304,0.161078 0.53246,0.397539 0.5379,0.420794 0.5379,2.29986 0,1.602504 -0.01,1.720534 -0.16108,1.923037 -0.39206,0.525118 -0.43554,0.536083 -2.20769,0.556655 -1.22508,0.01422 -1.6732,-0.0069 -1.85386,-0.0873 z"
       id="path4958"
       inkscape:connector-curvature="0" />
    <path
       style="fill:#00c000;fill-opacity:1;stroke:none;stroke-opacity:1"
       d="m 18.23831,31.708585 c -0.31439,-0.139953 -0.64241,-0.538424 -0.70112,-0.851722 -0.0259,-0.138384 -0.0361,-0.925905 -0.0226,-1.750047 0.0268,-1.639834 0.0439,-1.703371 0.56241,-2.090482 0.20251,-0.151191 0.32054,-0.161078 1.92304,-0.161078 1.6025,0 1.72053,0.0099 1.92304,0.161078 0.53246,0.397539 0.5379,0.420794 0.5379,2.29986 0,1.602504 -0.01,1.720534 -0.16108,1.923037 -0.39206,0.525118 -0.43554,0.536083 -2.20769,0.556655 -1.22508,0.01422 -1.6732,-0.0069 -1.85386,-0.0873 z"
       id="path4956"
       inkscape:connector-curvature="0" />
    <path
       style="fill:#00c000;fill-opacity:1;stroke:none;stroke-opacity:1"
       d="m 26.23831,31.708585 c -0.31439,-0.139953 -0.64241,-0.538424 -0.70112,-0.851722 -0.0259,-0.138384 -0.0361,-0.925905 -0.0226,-1.750047 0.0268,-1.639834 0.0439,-1.703371 0.56241,-2.090482 0.20251,-0.151191 0.32054,-0.161078 1.92304,-0.161078 1.6025,0 1.72053,0.0099 1.92304,0.161078 0.53246,0.397539 0.5379,0.420794 0.5379,2.29986 0,1.602504 -0.01,1.720534 -0.16108,1.923037 -0.39206,0.525118 -0.43554,0.536083 -2.20769,0.556655 -1.22508,0.01422 -1.6732,-0.0069 -1.85386,-0.0873 z"
       id="path4954"
       inkscape:connector-curvature="0" />
    <path
       style="fill:#00c000;fill-opacity:1;stroke:none;stroke-opacity:1"
       d="M 10.23831,24.408585 C 9.92392,24.268632 9.5959,23.870161 9.53719,23.556863 c -0.0259,-0.138384 -0.0361,-0.925905 -0.0226,-1.750047 0.0268,-1.639834 0.0439,-1.703371 0.56241,-2.090482 0.20251,-0.151191 0.32054,-0.161078 1.92304,-0.161078 1.6025,0 1.72053,0.0099 1.92304,0.161078 0.53246,0.397539 0.5379,0.420794 0.5379,2.29986 0,1.602504 -0.01,1.720534 -0.16108,1.923037 -0.39206,0.525118 -0.43554,0.536083 -2.20769,0.556655 -1.22508,0.01422 -1.6732,-0.0069 -1.85386,-0.0873 z"
       id="path4952"
       inkscape:connector-curvature="0" />
    <path
       style="fill:#00c000;fill-opacity:1;stroke:none;stroke-opacity:1"
       d="m 18.23831,24.408585 c -0.31439,-0.139953 -0.64241,-0.538424 -0.70112,-0.851722 -0.0259,-0.138384 -0.0361,-0.925905 -0.0226,-1.750047 0.0268,-1.639834 0.0439,-1.703371 0.56241,-2.090482 0.20251,-0.151191 0.32054,-0.161078 1.92304,-0.161078 1.6025,0 1.72053,0.0099 1.92304,0.161078 0.53246,0.397539 0.5379,0.420794 0.5379,2.29986 0,1.602504 -0.01,1.720534 -0.16108,1.923037 -0.39206,0.525118 -0.43554,0.536083 -2.20769,0.556655 -1.22508,0.01422 -1.6732,-0.0069 -1.85386,-0.0873 z"
       id="path4950"
       inkscape:connector-curvature="0" />
    <path
       style="fill:#00c000;fill-opacity:1;stroke:none;stroke-opacity:1"
       d="m 26.23831,24.408585 c -0.31439,-0.139953 -0.64241,-0.538424 -0.70112,-0.851722 -0.0259,-0.138384 -0.0361,-0.925905 -0.0226,-1.750047 0.0268,-1.639834 0.0439,-1.703371 0.56241,-2.090482 0.20251,-0.151191 0.32054,-0.161078 1.92304,-0.161078 1.6025,0 1.72053,0.0099 1.92304,0.161078 0.53246,0.397539 0.5379,0.420794 0.5379,2.29986 0,1.602504 -0.01,1.720534 -0.16108,1.923037 -0.39206,0.525118 -0.43554,0.536083 -2.20769,0.556655 -1.22508,0.01422 -1.6732,-0.0069 -1.85386,-0.0873 z"
       id="path4948"
       inkscape:connector-curvature="0" />
    <path
       style="fill:#00c000;fill-opacity:1;stroke:none;stroke-opacity:1"
       d="M 12.23831,11.392391 C 11.92332,11.252172 11.59556,10.853433 11.5382,10.540669 11.5128,10.402285 11.5026,9.0523273 11.5156,7.5407621 11.5381,4.9061994 11.5458,4.7835382 11.70018,4.5768393 12.09783,4.0444802 12.121,4.0390625 14,4.0390625 c 1.87907,0 1.90232,0.00544 2.29986,0.5378999 0.15605,0.2090117 0.16108,0.308047 0.16108,3.1730376 0,2.864991 -0.005,2.964026 -0.16108,3.173038 -0.39206,0.525117 -0.43554,0.536082 -2.20769,0.556654 -1.22508,0.01422 -1.6732,-0.0069 -1.85386,-0.0873 z"
       id="path4946"
       inkscape:connector-curvature="0" />
    <path
       style="fill:#00c000;fill-opacity:1;stroke:none;stroke-opacity:1"
       d="M 32.23831,11.392391 C 31.92332,11.252172 31.59556,10.853433 31.5382,10.540669 31.5128,10.402285 31.5026,9.0523273 31.5156,7.5407621 31.5381,4.9061994 31.5458,4.7835382 31.70018,4.5768393 32.09783,4.0444802 32.121,4.0390625 34,4.0390625 c 1.87907,0 1.90232,0.00544 2.29986,0.5378999 0.15605,0.2090117 0.16108,0.308047 0.16108,3.1730376 0,2.864991 -0.005,2.964026 -0.16108,3.173038 -0.39206,0.525117 -0.43554,0.536082 -2.20769,0.556654 -1.22508,0.01422 -1.6732,-0.0069 -1.85386,-0.0873 z"
       id="path4942"
       inkscape:connector-curvature="0" />
    <path
       style="fill:#00c000;fill-opacity:1;stroke:none;stroke-opacity:1"
       d="m 33.664304,24.408585 c -0.31439,-0.139953 -0.64241,-0.538424 -0.70112,-0.851722 -0.0259,-0.138384 -0.0361,-0.925905 -0.0226,-1.750047 0.0268,-1.639834 0.0439,-1.703371 0.56241,-2.090482 0.20251,-0.151191 0.32054,-0.161078 1.92304,-0.161078 1.6025,0 1.72053,0.0099 1.92304,0.161078 0.53246,0.397539 0.5379,0.420794 0.5379,2.29986 0,1.602504 -0.01,1.720534 -0.16108,1.923037 -0.39206,0.525118 -0.43554,0.536083 -2.20769,0.556655 -1.22508,0.01422 -1.6732,-0.0069 -1.85386,-0.0873 z"
       id="path4948-4"
       inkscape:connector-curvature="0" />
    <path
       style="fill:#00c000;fill-opacity:1;stroke:none;stroke-opacity:1"
       d="m 33.664687,31.708585 c -0.31439,-0.139953 -0.64241,-0.538424 -0.70112,-0.851722 -0.0259,-0.138384 -0.0361,-0.925905 -0.0226,-1.750047 0.0268,-1.639834 0.0439,-1.703371 0.56241,-2.090482 0.20251,-0.151191 0.32054,-0.161078 1.92304,-0.161078 1.6025,0 1.72053,0.0099 1.92304,0.161078 0.53246,0.397539 0.5379,0.420794 0.5379,2.29986 0,1.602504 -0.01,1.720534 -0.16108,1.923037 -0.39206,0.525118 -0.43554,0.536083 -2.20769,0.556655 -1.22508,0.01422 -1.6732,-0.0069 -1.85386,-0.0873 z"
       id="path4948-3"
       inkscape:connector-curvature="0" />
    <path
       style="fill:#00c000;fill-opacity:1;stroke:none;stroke-opacity:1"
       d="m 10.238687,39.031893 c -0.31439,-0.139953 -0.64241,-0.538424 -0.70112,-0.851722 -0.0259,-0.138384 -0.0361,-0.925905 -0.0226,-1.750047 0.0268,-1.639834 0.0439,-1.703371 0.56241,-2.090482 0.20251,-0.151191 0.32054,-0.161078 1.92304,-0.161078 1.6025,0 1.72053,0.0099 1.92304,0.161078 0.53246,0.397539 0.5379,0.420794 0.5379,2.29986 0,1.602504 -0.01,1.720534 -0.16108,1.923037 -0.39206,0.525118 -0.43554,0.536083 -2.20769,0.556655 -1.22508,0.01422 -1.6732,-0.0069 -1.85386,-0.0873 z"
       id="path4958-2"
       inkscape:connector-curvature="0" />
    <path
       style="fill:#00c000;fill-opacity:1;stroke:none;stroke-opacity:1"
       d="m 18.238687,39.031893 c -0.31439,-0.139953 -0.64241,-0.538424 -0.70112,-0.851722 -0.0259,-0.138384 -0.0361,-0.925905 -0.0226,-1.750047 0.0268,-1.639834 0.0439,-1.703371 0.56241,-2.090482 0.20251,-0.151191 0.32054,-0.161078 1.92304,-0.161078 1.6025,0 1.72053,0.0099 1.92304,0.161078 0.53246,0.397539 0.5379,0.420794 0.5379,2.29986 0,1.602504 -0.01,1.720534 -0.16108,1.923037 -0.39206,0.525118 -0.43554,0.536083 -2.20769,0.556655 -1.22508,0.01422 -1.6732,-0.0069 -1.85386,-0.0873 z"
       id="path4956-9"
       inkscape:connector-curvature="0" />
    <path
       style="fill:#00c000;fill-opacity:1;stroke:none;stroke-opacity:1"
       d="m 26.238687,39.031893 c -0.31439,-0.139953 -0.64241,-0.538424 -0.70112,-0.851722 -0.0259,-0.138384 -0.0361,-0.925905 -0.0226,-1.750047 0.0268,-1.639834 0.0439,-1.703371 0.56241,-2.090482 0.20251,-0.151191 0.32054,-0.161078 1.92304,-0.161078 1.6025,0 1.72053,0.0099 1.92304,0.161078 0.53246,0.397539 0.5379,0.420794 0.5379,2.29986 0,1.602504 -0.01,1.720534 -0.16108,1.923037 -0.39206,0.525118 -0.43554,0.536083 -2.20769,0.556655 -1.22508,0.01422 -1.6732,-0.0069 -1.85386,-0.0873 z"
       id="path4954-8"
       inkscape:connector-curvature="0" />
    <path
       style="fill:#00c000;fill-opacity:1;stroke:none;stroke-opacity:1"
       d="m 33.665064,39.031893 c -0.31439,-0.139953 -0.64241,-0.538424 -0.70112,-0.851722 -0.0259,-0.138384 -0.0361,-0.925905 -0.0226,-1.750047 0.0268,-1.639834 0.0439,-1.703371 0.56241,-2.090482 0.20251,-0.151191 0.32054,-0.161078 1.92304,-0.161078 1.6025,0 1.72053,0.0099 1.92304,0.161078 0.53246,0.397539 0.5379,0.420794 0.5379,2.29986 0,1.602504 -0.01,1.720534 -0.16108,1.923037 -0.39206,0.525118 -0.43554,0.536083 -2.20769,0.556655 -1.22508,0.01422 -1.6732,-0.0069 -1.85386,-0.0873 z"
       id="path4948-3-1"
       inkscape:connector-curvature="0" />
  </g>
</svg>
