<?xml version="1.0" encoding="UTF-8" standalone="no"?>
<!-- Created with Inkscape (http://www.inkscape.org/) -->

<svg
   xmlns:dc="http://purl.org/dc/elements/1.1/"
   xmlns:cc="http://creativecommons.org/ns#"
   xmlns:rdf="http://www.w3.org/1999/02/22-rdf-syntax-ns#"
   xmlns:svg="http://www.w3.org/2000/svg"
   xmlns="http://www.w3.org/2000/svg"
   xmlns:sodipodi="http://sodipodi.sourceforge.net/DTD/sodipodi-0.dtd"
   xmlns:inkscape="http://www.inkscape.org/namespaces/inkscape"
   id="svg3406"
   version="1.1"
   inkscape:version="0.91 r"
   width="48"
   height="48"
   viewBox="0 0 48 48"
   sodipodi:docname="change-slice.svg">
  <metadata
     id="metadata3412">
    <rdf:RDF>
      <cc:Work
         rdf:about="">
        <dc:format>image/svg+xml</dc:format>
        <dc:type
           rdf:resource="http://purl.org/dc/dcmitype/StillImage" />
        <dc:title />
      </cc:Work>
    </rdf:RDF>
  </metadata>
  <defs
     id="defs3410" />
  <sodipodi:namedview
     pagecolor="#ffffff"
     bordercolor="#666666"
     borderopacity="1"
     objecttolerance="10"
     gridtolerance="10"
     guidetolerance="10"
     inkscape:pageopacity="0"
     inkscape:pageshadow="2"
     inkscape:window-width="1366"
     inkscape:window-height="741"
     id="namedview3408"
     showgrid="false"
     inkscape:zoom="1"
     inkscape:cx="-150.13799"
     inkscape:cy="19.552761"
     inkscape:window-x="0"
     inkscape:window-y="0"
     inkscape:window-maximized="1"
     inkscape:current-layer="layer1" />
  <g
     inkscape:groupmode="layer"
     id="layer1"
     inkscape:label="Marco"
     transform="translate(0,27)"
     style="display:inline">
    <g
       id="g4136"
       transform="matrix(0,-1,-1,0,21.343051,21.343051)">
      <path
         inkscape:connector-curvature="0"
         id="rect3417"
         d="m 8.8799482,-11.513276 23.0858538,0 c 2.262832,0 4.084533,1.131258 4.084533,2.5364536 l 0,19.6412724 c 0,1.405196 -1.821701,2.536454 -4.084533,2.536454 l -23.0858538,0 c -2.2628315,0 -4.0845334,-1.131258 -4.0845334,-2.536454 l 0,-19.6412724 c 0,-1.4051956 1.8217019,-2.5364536 4.0845334,-2.5364536 z"
         style="fill:none;stroke:#00c000;stroke-width:2;stroke-linecap:butt;stroke-linejoin:miter;stroke-miterlimit:4;stroke-dasharray:none;stroke-opacity:1" />
      <path
         sodipodi:nodetypes="csssssc"
         inkscape:connector-curvature="0"
         id="rect3417-3"
         d="m 13.076229,-15.284274 0,-1.820636 c 0,-1.405196 1.821702,-2.536454 4.084534,-2.536454 l 23.085851,0 c 2.262832,0 4.084533,1.131258 4.084533,2.536454 l 0,19.6412744 c 0,1.405196 -1.821701,2.5364537 -4.084533,2.5364537"
         style="display:inline;fill:none;stroke:#00c000;stroke-width:2;stroke-linecap:round;stroke-linejoin:miter;stroke-miterlimit:4;stroke-dasharray:none;stroke-opacity:1" />
      <path
         sodipodi:nodetypes="cssc"
         inkscape:connector-curvature="0"
         id="rect3417-3-6"
         d="m 16.832125,-15.357141 19.085851,0 c 2.262832,0 4.084533,1.131258 4.084533,2.536454 l 0,13.641274"
         style="display:inline;fill:none;stroke:#00c000;stroke-width:2;stroke-linecap:round;stroke-linejoin:miter;stroke-miterlimit:4;stroke-dasharray:none;stroke-opacity:1" />
    </g>
  </g>
</svg>
