<?xml version="1.0" encoding="UTF-8" standalone="no"?>
<!-- Created with Inkscape (http://www.inkscape.org/) -->

<svg
   xmlns:dc="http://purl.org/dc/elements/1.1/"
   xmlns:cc="http://creativecommons.org/ns#"
   xmlns:rdf="http://www.w3.org/1999/02/22-rdf-syntax-ns#"
   xmlns:svg="http://www.w3.org/2000/svg"
   xmlns="http://www.w3.org/2000/svg"
   xmlns:sodipodi="http://sodipodi.sourceforge.net/DTD/sodipodi-0.dtd"
   xmlns:inkscape="http://www.inkscape.org/namespaces/inkscape"
   id="svg2"
   version="1.1"
   inkscape:version="0.91 r13725"
   width="48"
   height="48"
   viewBox="0 0 48 48"
   sodipodi:docname="dosimetry2.svg">
  <metadata
     id="metadata8">
    <rdf:RDF>
      <cc:Work
         rdf:about="">
        <dc:format>image/svg+xml</dc:format>
        <dc:type
           rdf:resource="http://purl.org/dc/dcmitype/StillImage" />
        <dc:title></dc:title>
      </cc:Work>
    </rdf:RDF>
  </metadata>
  <defs
     id="defs6" />
  <sodipodi:namedview
     pagecolor="#ffffff"
     bordercolor="#666666"
     borderopacity="1"
     objecttolerance="10"
     gridtolerance="10"
     guidetolerance="10"
     inkscape:pageopacity="0"
     inkscape:pageshadow="2"
     inkscape:window-width="1680"
     inkscape:window-height="1026"
     id="namedview4"
     showgrid="false"
     inkscape:zoom="8"
     inkscape:cx="23.893351"
     inkscape:cy="46.472656"
     inkscape:window-x="0"
     inkscape:window-y="24"
     inkscape:window-maximized="1"
     inkscape:current-layer="svg2" />
  <path
     style="fill:#00c000;fill-opacity:1;stroke:#00c000;stroke-width:1;stroke-linecap:round;stroke-linejoin:round;stroke-miterlimit:2;stroke-dasharray:none;stroke-opacity:1"
     d="m 4.2028307,39.539245 c 0.1478597,-2.726386 -0.4681018,-5.694031 1.0741569,-8.144413 2.0531995,-3.80912 5.8130654,-6.300104 9.6523534,-8.053709 -3.284243,-2.956591 -4.909665,-7.766558 -3.55324,-12.054207 1.41052,-5.1636666 6.759588,-8.8233423 12.081314,-8.2277411 6.079096,0.2979156 11.092496,6.2132379 10.508485,12.2516591 -0.115447,3.045736 -1.729768,5.817566 -3.856675,7.914953 1.555607,0.897819 4.033048,1.48851 4.779805,3.006494 -0.597244,1.764111 -1.767875,-0.06082 -2.751371,-0.358078 -1.353749,-1.089193 -4.414628,-1.329373 -4.996443,-2.384774 3.214222,-1.849993 5.528181,-5.390667 5.333238,-9.17043 0.08894,-5.4855064 -5.101952,-10.2896765 -10.564488,-9.8111862 -5.239885,0.1111773 -9.747714,4.9890815 -9.470704,10.2096352 -0.06411,3.532468 2.122012,6.780885 5.078397,8.576082 1.31795,1.070323 -2.110483,1.15006 -2.825239,1.861706 -3.823031,1.74889 -7.5443469,4.672335 -8.8493133,8.818669 -0.2785232,3.134467 -0.089706,6.294834 -0.142119,9.440973 7.1414913,0.04696 14.2884743,-0.05648 21.4255263,0.136076 0.422013,1.034233 -0.03791,1.619005 -1.084723,1.342547 l -21.8650143,0.0395 c 0.00868,-1.797913 0.017402,-3.595872 0.026054,-5.393756 z"
     id="path4148"
     inkscape:connector-curvature="0"
     sodipodi:nodetypes="ccccccccccccccccccccc" />
  <path
     style="fill:#00bd03;fill-opacity:1"
     d="m 47.385702,-28.759252 c -31.590468,51.172835 -15.795234,25.5864173 0,0 z"
     id="path4855"
     inkscape:connector-curvature="0"
     sodipodi:nodetypes="cc" />
  <path
     id="path3076"
     style="fill:#00c000;fill-opacity:1"
     d="m 38.566456,41.817588 1.607073,2.901074 0.01956,0.03511 -0.03747,0.02071 -0.490933,0.271951 c -0.990799,0.548587 -2.558856,0.987982 -3.894412,1.093245 -1.71202,0.134919 -3.140584,-0.08664 -4.77427,-0.744365 -0.28388,-0.114272 -0.498374,-0.202389 -0.655293,-0.282153 -0.156834,-0.07965 -0.258829,-0.150994 -0.310383,-0.238599 -0.0504,-0.08846 -0.0454,-0.18825 0.0015,-0.302564 0.0471,-0.114213 0.132888,-0.247825 0.24747,-0.421947 0.439669,-0.668001 1.258456,-1.941877 1.659265,-2.586514 0.221471,-0.356254 0.69451,-1.105318 1.055584,-1.665575 l 0.657102,-1.017548 0.01816,-0.0315 0.03455,0.01431 0.320561,0.12824 c 0.798781,0.321083 1.629118,0.339936 2.349923,0.05974 0.108023,-0.04203 0.212862,-0.07842 0.297619,-0.10616 0.04198,-0.01482 0.0804,-0.02668 0.10937,-0.03549 0.02963,-0.0073 0.04683,-0.01219 0.06857,-0.01288 0.01634,-7.28e-4 0.02404,0.0056 0.0281,0.0086 0.0019,0.0012 0.0078,0.002 0.0094,0.0024 0.0035,0.0044 0.0048,0.01091 0.0082,0.01634 0.0078,0.01309 0.02255,0.02765 0.03515,0.04732 0.0259,0.04021 0.06241,0.09709 0.10849,0.170339 0.09076,0.147558 0.215376,0.358511 0.36727,0.621826 0.305316,0.525729 0.717006,1.253206 1.159243,2.051535 z m -7.616239,-13.748748 0.01772,0.03192 1.628383,2.939528 1.626597,2.936315 0.01604,0.02887 -0.03287,0.02075 -0.317648,0.238951 c -0.717641,0.536586 -1.281557,1.466623 -1.288955,2.104866 -8.56e-4,0.06902 -0.01429,0.137748 -0.03448,0.195011 -0.02039,0.05723 -0.04279,0.103293 -0.08904,0.128897 -0.01749,0.0087 -0.03095,0.01456 -0.05354,0.01593 -0.02134,0.0031 -0.04757,0.0062 -0.07903,0.01071 -0.06227,0.0065 -0.145387,0.01513 -0.242304,0.02097 -0.193788,0.01215 -0.442669,0.02071 -0.708549,0.02391 -2.481082,0.02907 -3.930741,0.04322 -4.769491,0.03636 -0.419366,-0.0031 -0.686692,-0.01081 -0.855664,-0.02449 -0.08451,-0.0063 -0.142618,-0.02028 -0.186338,-0.03071 -0.04379,-0.01081 -0.07562,-0.01897 -0.09521,-0.04336 -0.02649,-0.03236 -0.03575,-0.07753 -0.04358,-0.135048 -0.0066,-0.05774 -0.0078,-0.127566 -0.0049,-0.210625 0.0056,-0.166184 0.03245,-0.379349 0.07359,-0.62303 0.08249,-0.487228 0.225257,-1.092491 0.407054,-1.653921 0.506414,-1.56361 1.332017,-2.919405 2.497171,-4.106191 0.5426,-0.552528 1.61991,-1.399957 2.170041,-1.704709 l 0.327296,-0.181308 0.03759,-0.02072 z m 5.934025,7.768318 c 0.346664,0.626781 0.08783,1.433815 -0.578268,1.803339 -0.666592,0.368734 -1.48798,0.160097 -1.835486,-0.46622 -0.348689,-0.627297 -0.091,-1.436266 0.576467,-1.806545 0.667923,-0.369484 1.490944,-0.159197 1.837287,0.469426 z m 7.750902,-3.895704 c 0.329125,0.64549 0.627614,1.292824 0.703283,1.575177 0.148511,0.553989 0.259668,1.284147 0.309503,1.89386 0.02488,0.304836 0.03462,0.579671 0.0256,0.786023 -0.0042,0.103097 -0.01677,0.189981 -0.03188,0.256421 -0.01492,0.06646 -0.02828,0.116147 -0.07685,0.14305 -0.01278,0.0064 -0.01623,0.0071 -0.02154,0.0084 -0.0055,0.0019 -0.01791,0.0014 -0.0262,7.45e-4 -0.01742,0.0023 -0.03296,0.0025 -0.0602,0.0035 -0.05372,0.0032 -0.131063,0.0075 -0.225248,0.01166 -0.188158,0.0064 -0.449604,0.01391 -0.763683,0.02081 -0.628148,0.01404 -1.460467,0.02965 -2.294897,0.03969 -0.834431,0.0092 -1.672687,0.01642 -2.315908,0.01781 -0.321661,6.15e-4 -0.595596,-10e-4 -0.795088,-0.0032 -0.09967,-0.0011 -0.179237,-0.0032 -0.239288,-0.0052 -0.06017,-0.0018 -0.09567,-0.0026 -0.120581,-0.0079 -0.06497,-0.01481 -0.117518,-0.05718 -0.145015,-0.13329 -0.02796,-0.07585 -0.03928,-0.184342 -0.0508,-0.357268 -0.05039,-0.770057 -0.491707,-1.512519 -1.194237,-2.002843 -0.07126,-0.04987 -0.1301,-0.103141 -0.169615,-0.153192 -0.02081,-0.02446 -0.03553,-0.05087 -0.04526,-0.0753 -0.009,-0.02454 -0.0077,-0.04904 -0.0012,-0.07479 0.0057,-0.01886 0.01368,-0.03052 0.03006,-0.05834 0.01583,-0.02826 0.03874,-0.06636 0.06669,-0.112451 0.05595,-0.09218 0.135549,-0.218395 0.231104,-0.371019 0.191084,-0.305071 0.449403,-0.713782 0.730506,-1.150358 0.56194,-0.872825 1.382919,-2.154843 1.82513,-2.850136 0.221424,-0.348156 0.429396,-0.667131 0.590341,-0.896777 0.08047,-0.11494 0.150522,-0.205717 0.20188,-0.270993 0.02511,-0.03347 0.04637,-0.05858 0.0642,-0.0772 0.0088,-0.0072 0.01863,-0.01748 0.02709,-0.02345 0.0084,-0.0058 0.01154,-0.01635 0.03504,-0.01681 0.06262,0.0013 0.137212,0.02887 0.226623,0.07127 0.0893,0.04239 0.19575,0.100736 0.310946,0.175454 0.230711,0.149358 0.507204,0.357425 0.791412,0.592149 0.568424,0.46948 1.168367,1.04964 1.519452,1.504294 0.19858,0.257196 0.559389,0.894089 0.888502,1.539599 z"
     inkscape:connector-curvature="0"
     inkscape:transform-center-x="0.420337"
     inkscape:transform-center-y="2.1039306" />
</svg>
