<?xml version="1.0" encoding="UTF-8" standalone="no"?>
<!-- Created with Inkscape (http://www.inkscape.org/) -->

<svg
   xmlns:dc="http://purl.org/dc/elements/1.1/"
   xmlns:cc="http://creativecommons.org/ns#"
   xmlns:rdf="http://www.w3.org/1999/02/22-rdf-syntax-ns#"
   xmlns:svg="http://www.w3.org/2000/svg"
   xmlns="http://www.w3.org/2000/svg"
   xmlns:sodipodi="http://sodipodi.sourceforge.net/DTD/sodipodi-0.dtd"
   xmlns:inkscape="http://www.inkscape.org/namespaces/inkscape"
   id="svg3064"
   version="1.1"
   inkscape:version="0.91 r13725"
   width="48"
   height="48.000004"
   sodipodi:docname="dosimetry.svg">
  <metadata
     id="metadata3070">
    <rdf:RDF>
      <cc:Work
         rdf:about="">
        <dc:format>image/svg+xml</dc:format>
        <dc:type
           rdf:resource="http://purl.org/dc/dcmitype/StillImage" />
        <dc:title></dc:title>
      </cc:Work>
    </rdf:RDF>
  </metadata>
  <defs
     id="defs3068" />
  <sodipodi:namedview
     pagecolor="#ffffff"
     bordercolor="#666666"
     borderopacity="1"
     objecttolerance="10"
     gridtolerance="10"
     guidetolerance="10"
     inkscape:pageopacity="0"
     inkscape:pageshadow="2"
     inkscape:window-width="1680"
     inkscape:window-height="1026"
     id="namedview3066"
     showgrid="false"
     fit-margin-top="0"
     fit-margin-left="0.1"
     fit-margin-right="0"
     fit-margin-bottom="0"
     inkscape:zoom="14.679299"
     inkscape:cx="11.834145"
     inkscape:cy="20.480746"
     inkscape:window-x="0"
     inkscape:window-y="24"
     inkscape:window-maximized="1"
     inkscape:current-layer="layer1" />
  <g
     inkscape:groupmode="layer"
     id="layer1"
     inkscape:label="Man"
     transform="translate(-312.33455,-272.72927)">
    <g
       id="g6220">
      <path
         inkscape:connector-curvature="0"
         id="path4177"
         d="m 334.57534,285.51194 c -2.98725,-0.78593 -4.72212,-4.02724 -3.72037,-6.95088 0.3745,-1.09301 1.37579,-2.32796 2.35456,-2.90403 0.98638,-0.58056 2.26685,-0.85043 3.3617,-0.70851 1.30257,0.16883 2.23001,0.62816 3.16598,1.56798 0.92978,0.93362 1.37303,1.8289 1.54768,3.12605 0.0832,0.61825 0.0202,1.56915 -0.14015,2.11248 -0.54878,1.86005 -2.0087,3.29111 -3.83634,3.76046 -0.77236,0.19836 -1.97158,0.19679 -2.73306,-0.003 z"
         style="fill:#00bd03;fill-opacity:1" />
      <path
         sodipodi:nodetypes="ccccccccccccccccccccccccccccccccsccccccccccccccccccccsccscccccccccccccccccccccssscccccsccccssscccccccccccccccccccccccccccccscc"
         id="path3076"
         d="m 330.25372,284.85777 -0.34375,0.10743 c -0.7526,0.23651 -1.57528,0.99764 -1.96094,1.8125 -0.3741,0.79055 -0.39214,1.10845 -0.36524,6.92578 l 0.0254,5.45898 0.19336,0.50977 c 0.43264,1.14854 1.40528,2.01699 2.55078,2.27734 0.13166,0.0299 0.23338,0.12493 0.26368,0.24609 0.0273,0.1086 0.0501,5.01848 0.0508,8.4668 0.001,5.99668 0.007,6.28384 0.15625,6.59375 0.21981,0.45755 0.58071,0.79684 0.99609,0.93555 0.27837,0.093 1.18274,0.121 4.11523,0.125 4.18393,0.007 4.35488,-0.0121 4.82032,-0.53711 0.54691,-0.61702 0.51673,-0.19896 0.51758,-7.11524 8e-4,-3.44879 0.0236,-8.36017 0.0508,-8.46875 0.0303,-0.12115 0.13201,-0.21619 0.26367,-0.24609 1.1455,-0.26035 2.11814,-1.1288 2.55078,-2.27734 l 0.19141,-0.50977 0.0254,-5.45898 c 0.0268,-5.81733 0.0109,-6.13523 -0.36329,-6.92578 -0.37557,-0.79356 -1.18567,-1.55278 -1.92578,-1.80469 l -0.30664,-0.10547 -0.72265,0.72851 c -1.46309,1.47406 -3.12291,2.18269 -5.10352,2.17969 -1.95251,-0.003 -3.68447,-0.7821 -5.09375,-2.29101 l -0.58594,-0.62696 z m 5.8457,4.7793 c 0.38594,0.0125 0.76483,0.0388 0.91601,0.0742 0.29664,0.0694 0.66576,0.19801 0.96289,0.32422 0.14856,0.0631 0.2792,0.12558 0.37305,0.17969 0.0469,0.0271 0.0842,0.0535 0.11133,0.0762 0.0271,0.0227 0.0469,0.0406 0.0469,0.0684 0,0.007 -9.5e-4,0.009 -0.002,0.0117 -0.001,0.003 -0.004,0.008 -0.006,0.0117 -0.003,0.008 -0.007,0.0151 -0.0137,0.0273 -0.0122,0.0244 -0.03,0.0595 -0.0527,0.10156 -0.0453,0.0842 -0.10965,0.20046 -0.1875,0.33984 -0.15569,0.27876 -0.3634,0.6474 -0.57422,1.01563 -0.21081,0.36823 -0.42433,0.73724 -0.58984,1.01953 -0.0828,0.14115 -0.15437,0.2608 -0.20703,0.34766 -0.0263,0.0434 -0.048,0.0777 -0.0645,0.10351 -0.0165,0.0259 -0.0261,0.0413 -0.0352,0.0508 -0.0237,0.0249 -0.0571,0.0376 -0.0996,0.0312 -0.0425,-0.006 -0.0961,-0.0275 -0.17969,-0.0645 -0.37202,-0.16492 -0.83216,-0.15175 -1.24219,0.0371 -0.0416,0.0192 -0.0817,0.032 -0.11523,0.0371 -0.0168,0.003 -0.0329,0.003 -0.0469,0.002 -0.014,-0.002 -0.0251,-0.008 -0.0352,-0.0176 -0.007,-0.007 -0.0107,-0.0134 -0.0195,-0.0273 -0.009,-0.0138 -0.0209,-0.0331 -0.0352,-0.0566 -0.0286,-0.0469 -0.0668,-0.11245 -0.11329,-0.1914 -0.0929,-0.15788 -0.21671,-0.37037 -0.34765,-0.59961 -0.2618,-0.45829 -0.64747,-1.1295 -0.85742,-1.49219 -0.10513,-0.18161 -0.20013,-0.35024 -0.26563,-0.47656 -0.0328,-0.0632 -0.0571,-0.11594 -0.0742,-0.1543 -0.009,-0.0192 -0.0154,-0.0346 -0.0195,-0.0469 -0.002,-0.006 -0.003,-0.0124 -0.004,-0.0176 -8.9e-4,-0.005 -0.005,-0.009 0.002,-0.0195 0.0168,-0.0271 0.049,-0.0531 0.0918,-0.082 0.0429,-0.0289 0.0975,-0.0614 0.16211,-0.0937 0.12922,-0.0648 0.29763,-0.13554 0.48047,-0.20313 0.36568,-0.13517 0.79111,-0.25728 1.09375,-0.30078 0.1712,-0.0246 0.56132,-0.0281 0.94726,-0.0156 z m -0.18555,4.34375 c 0.38175,2.4e-4 0.69117,0.30966 0.69141,0.69141 -2.5e-4,0.38175 -0.30966,0.69116 -0.69141,0.6914 -0.38251,8.3e-4 -0.69311,-0.30889 -0.69336,-0.6914 2.4e-4,-0.38252 0.31084,-0.69224 0.69336,-0.69141 z m -5.1543,0.71484 0.0195,0 1.79102,0 1.78906,0 0.0176,0 0.002,0.0195 0.0293,0.19727 c 0.0648,0.44489 0.35279,0.91794 0.64844,1.07617 0.032,0.0171 0.0605,0.0397 0.082,0.0625 0.0215,0.0228 0.0371,0.0438 0.0371,0.0703 0,0.01 -0.002,0.0171 -0.006,0.0273 -0.004,0.0102 -0.009,0.0225 -0.0156,0.0371 -0.0127,0.029 -0.0305,0.0674 -0.0527,0.11133 -0.0444,0.0879 -0.10465,0.19909 -0.17187,0.3164 -0.62719,1.0947 -0.99499,1.73362 -1.21485,2.09961 -0.10992,0.183 -0.18226,0.29847 -0.23242,0.36914 -0.0251,0.0353 -0.0463,0.0576 -0.0625,0.0742 -0.0162,0.0166 -0.0284,0.0285 -0.0449,0.0312 -0.0219,0.004 -0.0454,-0.003 -0.0742,-0.0137 -0.0288,-0.0108 -0.0617,-0.0272 -0.0996,-0.0488 -0.0759,-0.0431 -0.16852,-0.10635 -0.27148,-0.18359 -0.20593,-0.15446 -0.45123,-0.36404 -0.66603,-0.58007 -0.59827,-0.60169 -1.01714,-1.29284 -1.26953,-2.0918 -0.11752,-0.37202 -0.23438,-1.05006 -0.23438,-1.36523 l 0,-0.1875 0,-0.0215 z m 8.50196,0 1.76758,0 0.0215,0 0,0.0215 0,0.28125 c -1.3e-4,0.56755 -0.20025,1.36163 -0.4961,1.97266 -0.37926,0.78325 -0.85148,1.35569 -1.58008,1.91211 -0.12659,0.0967 -0.22307,0.16933 -0.30078,0.21875 -0.0777,0.0494 -0.13724,0.0768 -0.1914,0.0781 -0.0542,0.001 -0.0995,-0.0258 -0.14063,-0.0742 -0.0411,-0.0484 -0.0812,-0.11843 -0.13281,-0.21094 -0.19788,-0.35496 -0.58032,-1.02323 -0.77735,-1.35547 -0.10889,-0.18359 -0.33595,-0.57286 -0.5039,-0.86719 l -0.30469,-0.53515 -0.01,-0.0156 0.0156,-0.0117 0.14258,-0.10938 c 0.35599,-0.27219 0.57923,-0.6316 0.63476,-1.01562 0.008,-0.0576 0.0185,-0.11234 0.0273,-0.15625 0.004,-0.022 0.008,-0.0417 0.0117,-0.0566 0.004,-0.0149 0.006,-0.0235 0.0117,-0.0332 0.004,-0.007 0.009,-0.009 0.0117,-0.01 0.002,-10e-4 0.003,-0.003 0.004,-0.004 0.003,-9.5e-4 0.006,3e-4 0.01,0 0.008,-0.001 0.0187,-0.003 0.0312,-0.004 0.0254,-0.002 0.0614,-0.004 0.10743,-0.006 0.0922,-0.004 0.22277,-0.007 0.38476,-0.01 0.32396,-0.006 0.76945,-0.01 1.25586,-0.01 z"
         style="fill:#00bd03;fill-opacity:1"
         inkscape:connector-curvature="0" />
    </g>
  </g>
</svg>
