<?xml version="1.0" encoding="UTF-8" standalone="no"?>
<!-- Created with Inkscape (http://www.inkscape.org/) -->

<svg
   xmlns:dc="http://purl.org/dc/elements/1.1/"
   xmlns:cc="http://creativecommons.org/ns#"
   xmlns:rdf="http://www.w3.org/1999/02/22-rdf-syntax-ns#"
   xmlns:svg="http://www.w3.org/2000/svg"
   xmlns="http://www.w3.org/2000/svg"
   xmlns:sodipodi="http://sodipodi.sourceforge.net/DTD/sodipodi-0.dtd"
   xmlns:inkscape="http://www.inkscape.org/namespaces/inkscape"
   id="svg3406"
   version="1.1"
   inkscape:version="0.91 r"
   width="48"
   height="48"
   viewBox="0 0 48 48"
   sodipodi:docname="exit.svg">
  <metadata
     id="metadata3412">
    <rdf:RDF>
      <cc:Work
         rdf:about="">
        <dc:format>image/svg+xml</dc:format>
        <dc:type
           rdf:resource="http://purl.org/dc/dcmitype/StillImage" />
        <dc:title></dc:title>
      </cc:Work>
    </rdf:RDF>
  </metadata>
  <defs
     id="defs3410" />
  <sodipodi:namedview
     pagecolor="#ffffff"
     bordercolor="#666666"
     borderopacity="1"
     objecttolerance="10"
     gridtolerance="10"
     guidetolerance="10"
     inkscape:pageopacity="0"
     inkscape:pageshadow="2"
     inkscape:window-width="1366"
     inkscape:window-height="741"
     id="namedview3408"
     showgrid="false"
     inkscape:zoom="5.6568543"
     inkscape:cx="21.716991"
     inkscape:cy="15.531311"
     inkscape:window-x="0"
     inkscape:window-y="0"
     inkscape:window-maximized="1"
     inkscape:current-layer="layer4" />
  <g
     inkscape:groupmode="layer"
     id="layer4"
     inkscape:label="Exit"
     style="display:inline">
    <path
       style="fill:none;fill-opacity:1;stroke:#00c000;stroke-linejoin:round;stroke-opacity:1"
       d="m 39.482786,24.864448 2.741684,0 0,-1.473646 0,-1.47366 -2.741684,0 -2.741666,0 1.521395,-1.521966 1.521399,-1.521967 -1.787237,0 -1.787235,0 -2.258982,2.258601 -2.25899,2.258613 2.258603,2.258981 2.258603,2.258987 1.787618,0 1.78762,0 -1.521399,-1.521961 -1.521395,-1.521982"
       id="path3808"
       inkscape:connector-curvature="0"
       sodipodi:nodetypes="cccccccccccccccccc" />
    <path
       style="color:#000000;font-style:normal;font-variant:normal;font-weight:normal;font-stretch:normal;font-size:medium;line-height:normal;font-family:sans-serif;text-indent:0;text-align:start;text-decoration:none;text-decoration-line:none;text-decoration-style:solid;text-decoration-color:#000000;letter-spacing:normal;word-spacing:normal;text-transform:none;direction:ltr;block-progression:tb;writing-mode:lr-tb;baseline-shift:baseline;text-anchor:start;white-space:normal;clip-rule:nonzero;display:inline;overflow:visible;visibility:visible;opacity:1;isolation:auto;mix-blend-mode:normal;color-interpolation:sRGB;color-interpolation-filters:linearRGB;solid-color:#000000;solid-opacity:1;fill:#00c000;fill-opacity:1;fill-rule:evenodd;stroke:none;stroke-width:1;stroke-linecap:round;stroke-linejoin:round;stroke-miterlimit:4;stroke-dasharray:none;stroke-dashoffset:0;stroke-opacity:1;marker:none;color-rendering:auto;image-rendering:auto;shape-rendering:auto;text-rendering:auto;enable-background:accumulate"
       d="m 5.9203307,2.263797 c -0.3015349,3.02e-5 -0.5459698,0.2444651 -0.546,0.546 l 0,38.766 c 3.02e-5,0.301535 0.2444651,0.545969 0.546,0.546 l 8.5824373,2.184 8.360625,2.124281 c 0.282817,0.02417 0.194933,0.05687 0.221813,-0.170625 l 0,-37.827562 c -0.02275,-0.213283 0.03981,-0.162094 -0.221813,-0.230344 l -16.3970623,-4.84575 21.5710183,0 0,37.674 -3.075268,0 0,1.092 3.621268,0 c 0.301535,-3.1e-5 0.54597,-0.244465 0.546,-0.546 l 0,-38.766 c -3e-5,-0.3015349 -0.244465,-0.5459698 -0.546,-0.546 z m 12.0619353,21.8308 c 0.764428,0.179269 2.912911,0.942373 2.51128,2.089235 -0.401631,1.146862 -2.762683,0.46398 -3.596966,0.140348 -0.834283,-0.323632 -2.551969,-0.80026 -2.311008,-1.931701 0.240962,-1.131441 2.632264,-0.47715 3.396694,-0.297882 z"
       id="rect4728"
       inkscape:connector-curvature="0"
       sodipodi:nodetypes="ccccccccccccccccccczzzzz" />
  </g>
</svg>
