<?xml version="1.0" encoding="UTF-8" standalone="no"?>
<!-- Created with Inkscape (http://www.inkscape.org/) -->

<svg
   xmlns:dc="http://purl.org/dc/elements/1.1/"
   xmlns:cc="http://creativecommons.org/ns#"
   xmlns:rdf="http://www.w3.org/1999/02/22-rdf-syntax-ns#"
   xmlns:svg="http://www.w3.org/2000/svg"
   xmlns="http://www.w3.org/2000/svg"
   xmlns:xlink="http://www.w3.org/1999/xlink"
   xmlns:sodipodi="http://sodipodi.sourceforge.net/DTD/sodipodi-0.dtd"
   xmlns:inkscape="http://www.inkscape.org/namespaces/inkscape"
   version="1.0"
   width="48"
   height="48"
   id="svg97"
   inkscape:version="0.91 r13725"
   sodipodi:docname="file-info.svg">
  <metadata
     id="metadata71">
    <rdf:RDF>
      <cc:Work
         rdf:about="">
        <dc:format>image/svg+xml</dc:format>
        <dc:type
           rdf:resource="http://purl.org/dc/dcmitype/StillImage" />
        <dc:title></dc:title>
      </cc:Work>
    </rdf:RDF>
  </metadata>
  <sodipodi:namedview
     pagecolor="#ffffff"
     bordercolor="#666666"
     borderopacity="1"
     objecttolerance="10"
     gridtolerance="10"
     guidetolerance="10"
     inkscape:pageopacity="0"
     inkscape:pageshadow="2"
     inkscape:window-width="1600"
     inkscape:window-height="876"
     id="namedview69"
     showgrid="false"
     inkscape:zoom="6.9532168"
     inkscape:cx="28.98066"
     inkscape:cy="10.327808"
     inkscape:window-x="0"
     inkscape:window-y="24"
     inkscape:window-maximized="1"
     inkscape:current-layer="layer3" />
  <defs
     id="defs3">
    <radialGradient
       cx="605.71429"
       cy="486.64789"
       r="117.14286"
       fx="605.71429"
       fy="486.64789"
       id="radialGradient6719"
       xlink:href="#linearGradient5060"
       gradientUnits="userSpaceOnUse"
       gradientTransform="matrix(-2.774389,0,0,1.969706,112.7623,-872.8854)" />
    <linearGradient
       id="linearGradient5060">
      <stop
         id="stop5062"
         style="stop-color:#000000;stop-opacity:1"
         offset="0" />
      <stop
         id="stop5064"
         style="stop-color:#000000;stop-opacity:0"
         offset="1" />
    </linearGradient>
    <radialGradient
       cx="605.71429"
       cy="486.64789"
       r="117.14286"
       fx="605.71429"
       fy="486.64789"
       id="radialGradient6717"
       xlink:href="#linearGradient5060"
       gradientUnits="userSpaceOnUse"
       gradientTransform="matrix(2.774389,0,0,1.969706,-1891.633,-872.8854)" />
    <linearGradient
       id="linearGradient5048">
      <stop
         id="stop5050"
         style="stop-color:#000000;stop-opacity:0"
         offset="0" />
      <stop
         id="stop5056"
         style="stop-color:#000000;stop-opacity:1"
         offset="0.5" />
      <stop
         id="stop5052"
         style="stop-color:#000000;stop-opacity:0"
         offset="1" />
    </linearGradient>
    <linearGradient
       x1="302.85715"
       y1="366.64789"
       x2="302.85715"
       y2="609.50507"
       id="linearGradient6715"
       xlink:href="#linearGradient5048"
       gradientUnits="userSpaceOnUse"
       gradientTransform="matrix(2.774389,0,0,1.969706,-1892.179,-872.8854)" />
    <linearGradient
       id="linearGradient13842">
      <stop
         id="stop13844"
         style="stop-color:#000000;stop-opacity:1"
         offset="0" />
      <stop
         id="stop13846"
         style="stop-color:#000000;stop-opacity:0"
         offset="1" />
    </linearGradient>
    <linearGradient
       id="linearGradient9766">
      <stop
         id="stop9768"
         style="stop-color:#6194cb;stop-opacity:1"
         offset="0" />
      <stop
         id="stop9770"
         style="stop-color:#729fcf;stop-opacity:1"
         offset="1" />
    </linearGradient>
    <linearGradient
       id="linearGradient148">
      <stop
         id="stop149"
         style="stop-color:#ffffff;stop-opacity:0.13402061"
         offset="0" />
      <stop
         id="stop150"
         style="stop-color:#ffffff;stop-opacity:0.05154639"
         offset="1" />
    </linearGradient>
    <linearGradient
       id="linearGradient335">
      <stop
         id="stop336"
         style="stop-color:#ffffff;stop-opacity:1"
         offset="0" />
      <stop
         id="stop337"
         style="stop-color:#ffffff;stop-opacity:0"
         offset="1" />
    </linearGradient>
    <linearGradient
       id="linearGradient1789">
      <stop
         id="stop1790"
         style="stop-color:#a0a0a0;stop-opacity:1"
         offset="0" />
      <stop
         id="stop1791"
         style="stop-color:#a8a8a8;stop-opacity:1"
         offset="1" />
    </linearGradient>
    <linearGradient
       id="linearGradient137">
      <stop
         id="stop138"
         style="stop-color:#ffffff;stop-opacity:0.70059878"
         offset="0" />
      <stop
         id="stop139"
         style="stop-color:#ffffff;stop-opacity:0"
         offset="1" />
    </linearGradient>
    <linearGradient
       x1="19.116116"
       y1="28.946041"
       x2="19.426924"
       y2="51.912693"
       id="linearGradient155"
       xlink:href="#linearGradient335"
       gradientUnits="userSpaceOnUse"
       gradientTransform="matrix(1.4055774,0,0,0.70555962,-0.111407,-0.106563)" />
    <linearGradient
       x1="14.899379"
       y1="27.059643"
       x2="22.715446"
       y2="41.836895"
       id="linearGradient156"
       xlink:href="#linearGradient148"
       gradientUnits="userSpaceOnUse"
       gradientTransform="matrix(1.5180622,0,0,0.65327934,3.3012619,2.3487296)" />
    <linearGradient
       x1="5.2657914"
       y1="18.725863"
       x2="8.212224"
       y2="52.625851"
       id="linearGradient158"
       xlink:href="#linearGradient137"
       gradientUnits="userSpaceOnUse"
       gradientTransform="matrix(1.475673,0,0.06969195,0.69197148,-0.101943,-0.33126)" />
    <radialGradient
       cx="26.106777"
       cy="38.195114"
       r="32.259769"
       fx="26.106777"
       fy="38.195114"
       id="radialGradient159"
       xlink:href="#linearGradient1789"
       gradientUnits="userSpaceOnUse"
       gradientTransform="matrix(1.0201911,0,0.10356753,1.00634,-0.08234449,-0.3061461)" />
    <linearGradient
       x1="22.175976"
       y1="36.987999"
       x2="22.065331"
       y2="32.050499"
       id="linearGradient13162"
       xlink:href="#linearGradient9766"
       gradientUnits="userSpaceOnUse"
       gradientTransform="matrix(0.988773,0,0,1.0251629,51.36109,-1.4335303)" />
    <linearGradient
       x1="22.25"
       y1="37.625"
       x2="19.75"
       y2="14.875"
       id="linearGradient13848"
       xlink:href="#linearGradient13842"
       gradientUnits="userSpaceOnUse" />
  </defs>
  <g
     id="layer1" />
  <g
     id="layer2" />
  <g
     inkscape:groupmode="layer"
     id="layer3"
     inkscape:label="Layer 1" />
  <g
     inkscape:groupmode="layer"
     id="layer4"
     inkscape:label="Layer 2">
    <path
       style="fill:#00c000;fill-opacity:1;stroke:none;stroke-opacity:1"
       d="M 21.271671,45.560175 C 19.876868,45.358552 19.07603,45.194151 18.051259,44.899061 16.146452,44.350554 14.512068,43.631561 12.84466,42.608587 10.88283,41.404978 9.2201776,39.977316 7.7333562,38.219686 4.7548485,34.698675 3.0208656,30.362544 2.7582325,25.778503 2.6948125,24.671564 2.7184886,23.719101 2.8404914,22.469299 2.936941,21.481284 3.0092506,20.9988 3.1895222,20.140393 3.9888568,16.334208 5.8461709,12.815079 8.5640651,9.9570313 9.539853,8.9309245 10.841344,7.8287686 12.017761,7.0323012 15.045285,4.9825819 18.485477,3.7658354 22.109354,3.4630511 c 1.133587,-0.094714 1.957897,-0.098304 3.192801,-0.013903 1.25282,0.085627 2.196162,0.2192302 3.277516,0.4642047 5.733167,1.2987942 10.641305,4.9136277 13.627363,10.0365229 0.976969,1.676093 1.752289,3.58692 2.226339,5.486948 0.70347,2.819572 0.809835,5.915907 0.301731,8.78364 -0.787565,4.445006 -2.874447,8.37307 -6.137658,11.552695 -0.442626,0.43129 -1.622228,1.430156 -2.120563,1.795655 -2.027095,1.486764 -4.154228,2.554723 -6.484683,3.255738 -2.059377,0.619471 -4.109515,0.908115 -6.367691,0.896519 -0.334175,-0.0017 -2.075346,-0.120784 -2.352839,-0.160894 z m 0.410667,-6.592464 c 0.72208,0.0087 1.34219,-0.06067 2.025734,-0.226737 0.6695,-0.16265 1.606678,-0.519076 1.64677,-0.6263 0.05269,-0.140915 0.953765,-3.201838 0.945448,-3.211661 -0.0057,-0.0067 -0.15308,0.04215 -0.32768,0.108425 -1.003034,0.380726 -1.856491,0.422044 -2.264641,0.109641 -0.258551,-0.197896 -0.335711,-0.514499 -0.239209,-0.981509 0.08421,-0.407529 0.197418,-0.791088 2.519954,-8.537774 1.261381,-4.207266 2.294186,-7.658813 2.295123,-7.670104 9.36e-4,-0.01129 -1.927807,-0.177791 -4.286096,-0.370003 l -4.287796,-0.349513 -0.600188,1.994293 -0.600189,1.994294 1.411429,0.123521 1.411432,0.12352 -0.01813,0.05405 c -0.07212,0.214984 -3.528836,11.752585 -3.585339,11.966901 -0.250572,0.950415 -0.348025,1.860153 -0.269771,2.518337 0.151436,1.273643 0.9215,2.197936 2.206607,2.648538 0.620422,0.217542 1.260494,0.322954 2.016535,0.332096 z m 4.902017,-23.798435 c 2.211441,-0.276741 3.971546,-2.38761 3.585336,-4.299841 C 29.93811,9.7228142 29.035846,8.9544559 27.801198,8.8524545 26.346015,8.7322339 24.788463,9.5829798 24.008012,10.92432 c -0.294049,0.505374 -0.428005,0.919322 -0.473755,1.463992 -0.06181,0.735849 0.110166,1.35354 0.517034,1.857057 0.351494,0.434988 0.809843,0.725078 1.3655,0.864229 0.28451,0.07125 0.845835,0.09994 1.167564,0.05968 z"
       id="path4270"
       inkscape:connector-curvature="0" />
  </g>
</svg>
