<?xml version="1.0" encoding="UTF-8" standalone="no"?>
<!-- Created with Inkscape (http://www.inkscape.org/) -->

<svg
   xmlns:dc="http://purl.org/dc/elements/1.1/"
   xmlns:cc="http://creativecommons.org/ns#"
   xmlns:rdf="http://www.w3.org/1999/02/22-rdf-syntax-ns#"
   xmlns:svg="http://www.w3.org/2000/svg"
   xmlns="http://www.w3.org/2000/svg"
   xmlns:sodipodi="http://sodipodi.sourceforge.net/DTD/sodipodi-0.dtd"
   xmlns:inkscape="http://www.inkscape.org/namespaces/inkscape"
   width="48"
   height="48"
   id="svg2"
   version="1.1"
   inkscape:version="0.48.4 r"
   sodipodi:docname="Flower-power-green.svg"
   inkscape:export-filename="C:\Users\Física\Documents\Trabajo\Material de Escritorio\Flower pover.png"
   inkscape:export-xdpi="11.783459"
   inkscape:export-ydpi="11.783459">
  <defs
     id="defs4">
    <inkscape:path-effect
       effect="spiro"
       id="path-effect5327"
       is_visible="true" />
  </defs>
  <sodipodi:namedview
     id="base"
     pagecolor="#ffffff"
     bordercolor="#666666"
     borderopacity="1.0"
     inkscape:pageopacity="0.0"
     inkscape:pageshadow="2"
     inkscape:zoom="3.959798"
     inkscape:cx="-42.390899"
     inkscape:cy="-32.248239"
     inkscape:document-units="px"
     inkscape:current-layer="layer3"
     showgrid="false"
     inkscape:window-width="1680"
     inkscape:window-height="987"
     inkscape:window-x="-4"
     inkscape:window-y="-4"
     inkscape:window-maximized="1"
     fit-margin-left="2"
     fit-margin-top="2"
     fit-margin-bottom="2"
     fit-margin-right="2" />
  <metadata
     id="metadata7">
    <rdf:RDF>
      <cc:Work
         rdf:about="">
        <dc:format>image/svg+xml</dc:format>
        <dc:type
           rdf:resource="http://purl.org/dc/dcmitype/StillImage" />
        <dc:title />
      </cc:Work>
    </rdf:RDF>
  </metadata>
  <g
     inkscape:groupmode="layer"
     id="layer10"
     inkscape:label="Tallo"
     transform="translate(-385.99358,-784.23673)" />
  <g
     inkscape:groupmode="layer"
     id="layer9"
     inkscape:label="Petalo6"
     transform="translate(-385.99358,-784.23673)" />
  <g
     inkscape:groupmode="layer"
     id="layer4"
     inkscape:label="Petalo1"
     transform="translate(-385.99358,-784.23673)" />
  <g
     inkscape:groupmode="layer"
     id="layer7"
     inkscape:label="Petalo4"
     transform="translate(-385.99358,-784.23673)" />
  <g
     inkscape:groupmode="layer"
     id="layer5"
     inkscape:label="Petalo2"
     transform="translate(-385.99358,-784.23673)" />
  <g
     inkscape:groupmode="layer"
     id="layer8"
     inkscape:label="Petalo5"
     transform="translate(-385.99358,-784.23673)" />
  <g
     inkscape:groupmode="layer"
     id="layer6"
     inkscape:label="Petalo3"
     transform="translate(-385.99358,-784.23673)" />
  <g
     inkscape:groupmode="layer"
     id="layer3"
     inkscape:label="Centro"
     style="display:inline"
     transform="translate(-385.99358,-784.23673)">
    <path
       style="fill:#00c000;fill-opacity:1;stroke:#00c000;stroke-width:0.1;stroke-opacity:1"
       inkscape:path-effect="#path-effect5327"
       inkscape:original-d="m 399.06884,828.38852 c -0.33092,-0.79473 -0.38822,-1.5317 -0.50808,-2.37938 -0.26945,-1.90565 -0.34331,-3.84693 -0.28445,-5.76842 0.0439,-1.43318 0.11646,-2.8855 0.42212,-4.28311 0.25953,-1.1867 0.53619,-2.4082 1.11043,-3.47393 0.59786,-1.10958 1.39849,-2.1134 2.24464,-3.04511 1.02737,-1.13126 2.05655,-2.27503 3.20873,-3.27622 1.1525,-1.00148 2.4034,-1.88374 3.60509,-2.82561 0.57242,0.37038 1.14484,0.74077 1.71726,1.11116 -0.8504,0.70373 -1.52597,1.37577 -2.27228,2.18637 -1.90498,2.06905 -4.10977,4.47679 -5.1235,6.04762 -0.84956,1.31646 -1.64676,3.41411 -1.89762,4.9541 -0.29819,1.83049 -0.16964,2.97211 -0.0772,4.45418 0.12988,2.0827 0.59022,4.13155 0.88533,6.19733 -0.84179,0.0337 -2.18866,0.0674 -3.03046,0.10102 z"
       id="path5325"
       d="m 399.06884,828.38852 c -0.21245,-0.7831 -0.38214,-1.5778 -0.50808,-2.37938 -0.29925,-1.90471 -0.35047,-3.84148 -0.28445,-5.76842 0.0492,-1.43508 0.16339,-2.87069 0.42212,-4.28311 0.21987,-1.20029 0.54767,-2.39118 1.11043,-3.47393 0.5831,-1.12189 1.40368,-2.10096 2.24464,-3.04511 1.01719,-1.14201 2.07559,-2.24916 3.20873,-3.27622 1.13225,-1.02625 2.33805,-1.97134 3.60509,-2.82561 l 1.71726,1.11116 c -0.76461,0.72127 -1.52209,1.45011 -2.27228,2.18637 -1.89081,1.85569 -3.75264,3.78058 -5.1235,6.04762 -0.92065,1.52251 -1.6118,3.19798 -1.89762,4.9541 -0.23913,1.46924 -0.19255,2.97008 -0.0772,4.45418 0.16182,2.08191 0.45774,4.15339 0.88533,6.19733 -1.00755,0.0841 -2.01941,0.10102 -3.03046,0.10102 l -10e-6,0"
       inkscape:connector-curvature="0"
       sodipodi:nodetypes="cssssssccsssacc" />
    <path
       transform="matrix(-0.03085609,-0.09512046,0.09512046,-0.03085609,361.0432,827.05291)"
       sodipodi:type="arc"
       style="fill:none;stroke:#00c000;stroke-width:10;stroke-miterlimit:4;stroke-opacity:1;stroke-dasharray:none"
       id="path5276-4"
       sodipodi:cx="73.741135"
       sodipodi:cy="472.53461"
       sodipodi:rx="30.304577"
       sodipodi:ry="61.619305"
       d="m 104.04571,472.53461 a 30.304577,61.619305 0 1 1 -60.609152,0 30.304577,61.619305 0 1 1 60.609152,0 z" />
    <path
       style="fill:none;stroke:#00c000;stroke-width:1;stroke-miterlimit:4;stroke-opacity:1;stroke-dasharray:none"
       d="m 406.44371,809.90651 c 1.08952,-5.84286 1.21457,-6.77174 3.62254,-5.75749 2.54643,1.07257 2.95586,3.41814 1.37629,6.83776 -1.42669,3.08864 -2.42027,5.77947 -3.80063,5.48115 -1.3804,-0.29829 -1.82184,-3.21683 -1.1982,-6.56142 z"
       id="path3029"
       inkscape:connector-curvature="0"
       sodipodi:nodetypes="sssss" />
    <path
       transform="matrix(0.0638474,-0.07696434,0.07696434,0.0638474,374.10997,783.15782)"
       sodipodi:type="arc"
       style="fill:#00c000;fill-opacity:1;stroke:#00c000;stroke-width:10;stroke-miterlimit:4;stroke-opacity:1;stroke-dasharray:none"
       id="path5276"
       sodipodi:cx="73.741135"
       sodipodi:cy="472.53461"
       sodipodi:rx="30.304577"
       sodipodi:ry="61.619305"
       d="m 104.04571,472.53461 a 30.304577,61.619305 0 1 1 -60.609152,0 30.304577,61.619305 0 1 1 60.609152,0 z" />
    <path
       style="fill:#00c000;fill-opacity:1;stroke:#00c000;stroke-width:1;stroke-miterlimit:4;stroke-opacity:1;stroke-dasharray:none"
       d="m 418.23229,802.9406 c -5.53178,2.17382 -6.38567,2.56024 -6.80229,-0.0192 -0.44057,-2.72775 1.33117,-4.31842 5.06809,-4.79204 3.37523,-0.42777 6.18353,-1.01188 6.6624,0.31669 0.4789,1.32858 -1.7617,3.25016 -4.9282,4.49453 z"
       id="path3029-1"
       inkscape:connector-curvature="0"
       sodipodi:nodetypes="sssss" />
    <path
       transform="matrix(0.09806478,0.01957802,-0.01957802,0.09806478,413.5136,748.0789)"
       sodipodi:type="arc"
       style="fill:none;fill-opacity:1;stroke:#00c000;stroke-width:10;stroke-miterlimit:4;stroke-opacity:1;stroke-dasharray:none"
       id="path5276-7"
       sodipodi:cx="73.741135"
       sodipodi:cy="472.53461"
       sodipodi:rx="30.304577"
       sodipodi:ry="61.619305"
       d="m 104.04571,472.53461 a 30.304577,61.619305 0 1 1 -60.609152,0 30.304577,61.619305 0 1 1 60.609152,0 z" />
    <path
       style="fill:#00c000;fill-opacity:1;stroke:#00c000;stroke-width:1;stroke-miterlimit:4;stroke-opacity:1;stroke-dasharray:none"
       d="m 406.91028,796.72758 c 2.82937,2.69584 4.26158,3.6739 2.19507,6.17163 -1.3104,1.58385 -3.74268,1.08334 -6.17488,-2.18595 -1.94958,-2.62059 -3.29407,-5.07101 -2.19507,-6.17164 1.099,-1.10061 3.81016,-0.0672 6.17488,2.18596 z"
       id="path5273"
       inkscape:connector-curvature="0"
       sodipodi:nodetypes="sssss" />
    <path
       sodipodi:type="arc"
       style="fill:#ffffff;fill-opacity:1;stroke:#00c000;stroke-width:7.67715882999999980;stroke-miterlimit:4;stroke-opacity:1;stroke-dasharray:none"
       id="path3027"
       sodipodi:cx="307.08636"
       sodipodi:cy="665.47375"
       sodipodi:rx="19.192898"
       sodipodi:ry="19.192898"
       d="m 326.27926,665.47375 a 19.192898,19.192898 0 1 1 -38.38579,0 19.192898,19.192898 0 1 1 38.38579,0 z"
       transform="matrix(0.13025652,0,0,0.13025652,370.66022,716.67374)" />
  </g>
</svg>
