<?xml version="1.0" encoding="UTF-8" standalone="no"?>
<!-- Created with Inkscape (http://www.inkscape.org/) -->

<svg
   xmlns:dc="http://purl.org/dc/elements/1.1/"
   xmlns:cc="http://creativecommons.org/ns#"
   xmlns:rdf="http://www.w3.org/1999/02/22-rdf-syntax-ns#"
   xmlns:svg="http://www.w3.org/2000/svg"
   xmlns="http://www.w3.org/2000/svg"
   xmlns:sodipodi="http://sodipodi.sourceforge.net/DTD/sodipodi-0.dtd"
   xmlns:inkscape="http://www.inkscape.org/namespaces/inkscape"
   id="svg3406"
   version="1.1"
   inkscape:version="0.91 r"
   width="48"
   height="48"
   viewBox="0 0 48 48"
   sodipodi:docname="hbrid.svg">
  <metadata
     id="metadata3412">
    <rdf:RDF>
      <cc:Work
         rdf:about="">
        <dc:format>image/svg+xml</dc:format>
        <dc:type
           rdf:resource="http://purl.org/dc/dcmitype/StillImage" />
        <dc:title />
      </cc:Work>
    </rdf:RDF>
  </metadata>
  <defs
     id="defs3410" />
  <sodipodi:namedview
     pagecolor="#ffffff"
     bordercolor="#666666"
     borderopacity="1"
     objecttolerance="10"
     gridtolerance="10"
     guidetolerance="10"
     inkscape:pageopacity="0"
     inkscape:pageshadow="2"
     inkscape:window-width="1366"
     inkscape:window-height="741"
     id="namedview3408"
     showgrid="false"
     inkscape:zoom="2.8284271"
     inkscape:cx="51.267556"
     inkscape:cy="7.0570721"
     inkscape:window-x="0"
     inkscape:window-y="0"
     inkscape:window-maximized="1"
     inkscape:current-layer="layer1" />
  <g
     inkscape:groupmode="layer"
     id="layer2"
     inkscape:label="Marco 1"
     style="display:inline" />
  <g
     inkscape:groupmode="layer"
     id="layer1"
     inkscape:label="Marco"
     transform="translate(0,27)"
     style="display:inline">
    <path
       style="fill:none;stroke:#00c000;stroke-width:1.86157393;stroke-linecap:round;stroke-linejoin:miter;stroke-miterlimit:4;stroke-dasharray:none;stroke-opacity:1"
       d="m 26.272368,13.443159 0,-23.1880979 c 0,-2.2728541 -0.97576,-4.1026231 -2.187804,-4.1026231 l -16.9414637,0 c -1.2120437,0 -2.1878037,1.829769 -2.1878037,4.1026231 l 0,23.1880979 c 0,2.272854 0.97576,4.102624 2.1878037,4.102624 l 16.9414637,0 c 1.212044,0 2.187804,-1.82977 2.187804,-4.102624 z"
       id="rect3417"
       inkscape:connector-curvature="0" />
    <path
       style="display:inline;fill:none;stroke:#00c000;stroke-width:1.83257246;stroke-linecap:round;stroke-linejoin:miter;stroke-miterlimit:4;stroke-dasharray:none;stroke-opacity:1"
       d="m 31.678792,8.4718607 9.428607,0 c 1.173489,0 2.11821,-1.831461 2.11821,-4.1064153 l 0,-23.2095254 c 0,-2.274954 -0.944721,-4.106415 -2.11821,-4.106415 l -16.402554,0 c -1.173489,0 -2.118209,1.831461 -2.118209,4.106415 l 0,1.551192"
       id="rect3417-3"
       inkscape:connector-curvature="0"
       sodipodi:nodetypes="cssssssc" />
    <path
       id="path3076-1-6"
       style="display:inline;fill:#00c003;fill-opacity:1;stroke:none;stroke-width:1;stroke-miterlimit:4;stroke-dasharray:none;stroke-opacity:1"
       d="m 14.332093,-4.071151 c -1.99674,-0.52317 -3.15636,-2.68083 -2.48677,-4.62703 0.25032,-0.7276 0.91961,-1.54966 1.57384,-1.93314 0.65932,-0.38647 1.51521,-0.56612 2.24703,-0.47165 0.87065,0.1124 1.49058,0.41816 2.1162,1.04377 0.62149,0.62149 0.91776,1.21745 1.0345,2.08094 0.0557,0.41156 0.0135,1.04455 -0.0937,1.40623 -0.36682,1.23819 -1.34267,2.19081 -2.5643,2.50326 -0.51625,0.13203 -1.31784,0.13099 -1.82683,-0.002 z m -1.62241,18.27059 c -0.25738,-0.0803 -0.48131,-0.27662 -0.61751,-0.54139 -0.0923,-0.17934 -0.0964,-0.34549 -0.0971,-3.81567 -4e-4,-1.99548 -0.0145,-3.67957 -0.0313,-3.74242 -0.0188,-0.0701 -0.0819,-0.12517 -0.16357,-0.14249 -0.70974,-0.15066 -1.31246,-0.65321 -1.58052,-1.31784 l -0.11912,-0.29534 -0.0155,-3.15865 c -0.0166,-3.3664 -0.006,-3.55058 0.22559,-4.00806 0.23894,-0.47155 0.74925,-0.91177 1.21556,-1.04864 l 0.21266,-0.0624 0.36268,0.36267 c 0.87319,0.87318 1.9469,1.32426 3.15667,1.32613 1.22718,0.002 2.25552,-0.40827 3.16207,-1.26127 l 0.44748,-0.42108 0.19018,0.0604 c 0.45857,0.14578 0.960379,0.58493 1.193079,1.04416 0.23183,0.45747 0.2422,0.64166 0.22558,4.00804 l -0.0155,3.15867 -0.11912,0.29533 c -0.26805,0.66464 -0.870769,1.16718 -1.580519,1.31785 -0.0815,0.0173 -0.14478,0.0723 -0.16355,0.14248 -0.0169,0.0629 -0.031,1.74717 -0.0313,3.74293 -5.2e-4,4.00234 0.0181,3.76071 -0.32082,4.11777 -0.2884,0.30383 -0.39433,0.31486 -2.98668,0.3111 -1.81697,-0.003 -2.37677,-0.0185 -2.54924,-0.0723 z"
       inkscape:connector-curvature="0" />
    <path
       id="path3076-1"
       style="display:inline;fill:none;fill-opacity:1;stroke:#00c000;stroke-width:1.5;stroke-miterlimit:4;stroke-dasharray:none;stroke-opacity:1"
       d="m 31.419021,4.694304 c -0.220289,-0.07412 -0.411947,-0.255328 -0.528518,-0.499719 -0.07899,-0.165536 -0.08251,-0.318897 -0.08311,-3.521971 -3.42e-4,-1.841885 -0.01241,-3.396347 -0.02679,-3.454359 -0.01609,-0.06471 -0.07008,-0.115535 -0.139997,-0.131522 -0.607456,-0.139064 -1.123316,-0.602932 -1.352745,-1.216404 l -0.101952,-0.272608 -0.01326,-2.915522 c -0.01422,-3.107283 -0.0051,-3.277287 0.193078,-3.699554 0.204506,-0.435254 0.641273,-0.841591 1.040381,-0.967924 0.241407,-0.183226 0.321175,0.180768 0.492425,0.277154 0.747351,0.805969 1.666323,1.222328 2.701749,1.224054 1.050325,0.0019 1.930465,-0.376844 2.706369,-1.164188 0.545765,-0.332917 0.44094,-0.268974 0.545765,-0.332917 0.392483,0.134559 0.821976,0.539906 1.02114,0.963788 0.19842,0.422259 0.207296,0.592273 0.193069,3.699536 l -0.01328,2.91554 -0.101954,0.272599 c -0.22942,0.613482 -0.745279,1.077341 -1.352744,1.216412 -0.06975,0.01596 -0.123915,0.06672 -0.13998,0.131515 -0.01447,0.05806 -0.02653,1.612686 -0.02678,3.454829 -4.46e-4,3.694273 0.01549,3.471243 -0.274587,3.80082 -0.246837,0.280443 -0.3375,0.290623 -2.556255,0.287154 -1.555118,-0.0028 -2.034244,-0.01708 -2.181859,-0.06674 z m 1.383043,-18.292034 c -1.607706,-0.422974 -2.541392,-2.167408 -2.002262,-3.740877 0.20155,-0.588251 0.740439,-1.252872 1.267203,-1.56291 0.530861,-0.312455 1.219995,-0.457696 1.809232,-0.381319 0.701015,0.09087 1.200167,0.338074 1.703892,0.843869 0.500404,0.502465 0.738948,0.984288 0.832944,1.682403 0.04483,0.332741 0.01086,0.844503 -0.07543,1.136913 -0.295351,1.001057 -1.081071,1.771231 -2.064687,2.023844 -0.415664,0.106745 -1.061078,0.105901 -1.470898,-0.0017 z"
       inkscape:connector-curvature="0"
       sodipodi:nodetypes="ccsccscccccccccccccccscccccsssccccc" />
  </g>
</svg>
