<?xml version="1.0" encoding="UTF-8" standalone="no"?>
<!-- Created with Inkscape (http://www.inkscape.org/) -->

<svg
   xmlns:dc="http://purl.org/dc/elements/1.1/"
   xmlns:cc="http://creativecommons.org/ns#"
   xmlns:rdf="http://www.w3.org/1999/02/22-rdf-syntax-ns#"
   xmlns:svg="http://www.w3.org/2000/svg"
   xmlns="http://www.w3.org/2000/svg"
   xmlns:sodipodi="http://sodipodi.sourceforge.net/DTD/sodipodi-0.dtd"
   xmlns:inkscape="http://www.inkscape.org/namespaces/inkscape"
   id="svg3064"
   version="1.1"
   inkscape:version="0.48.4 r"
   width="48"
   height="48.000004"
   sodipodi:docname="man.png">
  <metadata
     id="metadata3070">
    <rdf:RDF>
      <cc:Work
         rdf:about="">
        <dc:format>image/svg+xml</dc:format>
        <dc:type
           rdf:resource="http://purl.org/dc/dcmitype/StillImage" />
        <dc:title></dc:title>
      </cc:Work>
    </rdf:RDF>
  </metadata>
  <defs
     id="defs3068" />
  <sodipodi:namedview
     pagecolor="#ffffff"
     bordercolor="#666666"
     borderopacity="1"
     objecttolerance="10"
     gridtolerance="10"
     guidetolerance="10"
     inkscape:pageopacity="0"
     inkscape:pageshadow="2"
     inkscape:window-width="1680"
     inkscape:window-height="987"
     id="namedview3066"
     showgrid="false"
     fit-margin-top="0"
     fit-margin-left="0.1"
     fit-margin-right="0"
     fit-margin-bottom="0"
     inkscape:zoom="14.679299"
     inkscape:cx="22.656594"
     inkscape:cy="22.207427"
     inkscape:window-x="-4"
     inkscape:window-y="-4"
     inkscape:window-maximized="1"
     inkscape:current-layer="layer1" />
  <g
     inkscape:groupmode="layer"
     id="layer2"
     inkscape:label="Marco">
    <rect
       style="fill:none;stroke:#00c000;stroke-width:1.25;stroke-linecap:butt;stroke-linejoin:miter;stroke-miterlimit:4;stroke-opacity:1;stroke-dasharray:none;display:inline"
       id="rect3417"
       width="42.75"
       height="42.75"
       x="2.7405927"
       y="2.6456571"
       ry="4.3874979" />
  </g>
  <g
     inkscape:groupmode="layer"
     id="layer1"
     inkscape:label="Man"
     transform="translate(-312.33455,-272.72927)">
    <path
       id="path3076"
       style="fill:#00bd03;fill-opacity:1"
       d="m 344.91594,288.2864 c -2.98725,-0.7827 -4.72212,-4.01071 -3.72037,-6.92235 0.3745,-1.08852 1.37579,-2.3184 2.35456,-2.89211 0.98638,-0.57817 2.26685,-0.84694 3.3617,-0.7056 1.30257,0.16814 2.23001,0.62558 3.16598,1.56155 0.92978,0.92978 1.37303,1.82139 1.54768,3.11321 0.0832,0.61572 0.0202,1.56271 -0.14015,2.10381 -0.54878,1.85242 -2.0087,3.2776 -3.83634,3.74503 -0.77236,0.19754 -1.97158,0.19598 -2.73306,-0.003 z m -2.42724,27.33397 c -0.38504,-0.12009 -0.72007,-0.41383 -0.92383,-0.80996 -0.13801,-0.2683 -0.14434,-0.51686 -0.14533,-5.70848 -5.9e-4,-2.98537 -0.0216,-5.50488 -0.0469,-5.5989 -0.0281,-0.10489 -0.12266,-0.18726 -0.2447,-0.21317 -1.06183,-0.2254 -1.96353,-0.97724 -2.36457,-1.97158 l -0.1782,-0.44184 -0.0232,-4.72556 c -0.0249,-5.03634 -0.009,-5.31189 0.3375,-5.99631 0.35749,-0.70546 1.12094,-1.36407 1.81857,-1.56883 l 0.31814,-0.0934 0.5426,0.54258 c 1.30634,1.30634 2.91268,1.98118 4.72258,1.98398 1.83594,0.003 3.37441,-0.6108 4.73064,-1.88696 l 0.66949,-0.62995 0.28451,0.0904 c 0.68606,0.21809 1.43679,0.8751 1.78493,1.56212 0.34682,0.68442 0.36233,0.95997 0.33749,5.99631 l -0.0232,4.72556 -0.1782,0.44184 c -0.40104,0.99434 -1.30273,1.74618 -2.36457,1.97158 -0.12204,0.0259 -0.21659,0.10828 -0.24469,0.21317 -0.0252,0.094 -0.0462,2.61386 -0.0469,5.59965 -7.9e-4,5.98776 0.027,5.62627 -0.47999,6.16045 -0.43144,0.45455 -0.58992,0.47106 -4.46825,0.46542 -2.7183,-0.004 -3.5558,-0.0277 -3.81384,-0.10818 z"
       inkscape:connector-curvature="0" />
    <path
       id="path3076-1"
       style="fill:#00bd03;fill-opacity:1"
       d="m 326.48343,297.33532 c -1.99674,-0.52317 -3.15636,-2.68083 -2.48677,-4.62703 0.25032,-0.7276 0.91961,-1.54966 1.57384,-1.93314 0.65932,-0.38647 1.51521,-0.56612 2.24703,-0.47165 0.87065,0.1124 1.49058,0.41816 2.1162,1.04377 0.62149,0.62149 0.91776,1.21745 1.0345,2.08094 0.0557,0.41156 0.0135,1.04455 -0.0937,1.40623 -0.36682,1.23819 -1.34267,2.19081 -2.5643,2.50326 -0.51625,0.13203 -1.31784,0.13099 -1.82683,-0.002 z m -1.62241,18.27059 c -0.25738,-0.0803 -0.48131,-0.27662 -0.61751,-0.54139 -0.0923,-0.17934 -0.0964,-0.34549 -0.0971,-3.81567 -4e-4,-1.99548 -0.0145,-3.67957 -0.0313,-3.74242 -0.0188,-0.0701 -0.0819,-0.12517 -0.16357,-0.14249 -0.70974,-0.15066 -1.31246,-0.65321 -1.58052,-1.31784 l -0.11912,-0.29534 -0.0155,-3.15865 c -0.0166,-3.3664 -0.006,-3.55058 0.22559,-4.00806 0.23894,-0.47155 0.74925,-0.91177 1.21556,-1.04864 l 0.21266,-0.0624 0.36268,0.36267 c 0.87319,0.87318 1.9469,1.32426 3.15667,1.32613 1.22718,0.002 2.25552,-0.40827 3.16207,-1.26127 l 0.44748,-0.42108 0.19018,0.0604 c 0.45857,0.14578 0.96038,0.58493 1.19308,1.04416 0.23183,0.45747 0.2422,0.64166 0.22558,4.00804 l -0.0155,3.15867 -0.11912,0.29533 c -0.26805,0.66464 -0.87077,1.16718 -1.58052,1.31785 -0.0815,0.0173 -0.14478,0.0723 -0.16355,0.14248 -0.0169,0.0629 -0.031,1.74717 -0.0313,3.74293 -5.2e-4,4.00234 0.0181,3.76071 -0.32082,4.11777 -0.2884,0.30383 -0.39433,0.31486 -2.98668,0.3111 -1.81697,-0.003 -2.37677,-0.0185 -2.54924,-0.0723 z"
       inkscape:connector-curvature="0" />
  </g>
</svg>
