<?xml version="1.0" encoding="UTF-8" standalone="no"?>
<!-- Generator: Adobe Illustrator 15.0.0, SVG Export Plug-In . SVG Version: 6.00 Build 0)  -->

<svg
   xmlns:dc="http://purl.org/dc/elements/1.1/"
   xmlns:cc="http://creativecommons.org/ns#"
   xmlns:rdf="http://www.w3.org/1999/02/22-rdf-syntax-ns#"
   xmlns:svg="http://www.w3.org/2000/svg"
   xmlns="http://www.w3.org/2000/svg"
   xmlns:sodipodi="http://sodipodi.sourceforge.net/DTD/sodipodi-0.dtd"
   xmlns:inkscape="http://www.inkscape.org/namespaces/inkscape"
   version="1.1"
   id="Livello_1"
   x="0px"
   y="0px"
   width="48"
   height="48"
   viewBox="0 0 48 48"
   enable-background="new 0 0 1000 841.891"
   xml:space="preserve"
   inkscape:version="0.48.4 r"
   sodipodi:docname="medicine.svg"><metadata
     id="metadata17"><rdf:RDF><cc:Work
         rdf:about=""><dc:format>image/svg+xml</dc:format><dc:type
           rdf:resource="http://purl.org/dc/dcmitype/StillImage" /></cc:Work></rdf:RDF></metadata><defs
     id="defs15" /><sodipodi:namedview
     pagecolor="#ffffff"
     bordercolor="#666666"
     borderopacity="1"
     objecttolerance="10"
     gridtolerance="10"
     guidetolerance="10"
     inkscape:pageopacity="0"
     inkscape:pageshadow="2"
     inkscape:window-width="1680"
     inkscape:window-height="987"
     id="namedview13"
     showgrid="false"
     inkscape:zoom="6.3429475"
     inkscape:cx="67.044991"
     inkscape:cy="3.5346004"
     inkscape:window-x="-4"
     inkscape:window-y="-4"
     inkscape:window-maximized="1"
     inkscape:current-layer="layer2"
     fit-margin-left="2"
     fit-margin-right="2"
     fit-margin-top="2"
     fit-margin-bottom="2" /><g
     id="g9"
     style="fill:#ff3a00;fill-opacity:1;stroke:none"
     transform="translate(-368.40625,-403.1875)" /><g
     inkscape:groupmode="layer"
     id="layer1"
     inkscape:label="Marco"
     transform="translate(-368.40625,-403.1875)"><rect
       style="fill:none;stroke:#00c000;stroke-width:1.25;stroke-linecap:butt;stroke-linejoin:miter;stroke-miterlimit:4;stroke-opacity:1;stroke-dasharray:none;display:inline"
       id="rect3417"
       width="42.75"
       height="42.75"
       x="371.03186"
       y="405.81335"
       ry="4.3874979" /></g><g
     inkscape:groupmode="layer"
     id="layer2"
     inkscape:label="Jeringa"
     transform="translate(-368.40625,-403.1875)"><path
       inkscape:connector-curvature="0"
       style="fill:#00c000;fill-opacity:1;stroke:none"
       d="m 401.25153,407.99866 c 0,0 -0.58379,-0.0647 -0.77045,0.11591 -0.18229,0.17635 -0.13806,0.74829 -0.13806,0.74829 l 1.94554,1.95661 -5.02782,5.18293 -5.32252,-5.02339 c 0,0 -0.63523,-0.038 -0.84025,0.16014 -0.22583,0.21826 -0.20787,0.91899 -0.20787,0.91899 l 3.74261,3.55869 -18.42497,19.49303 1.98541,3.15762 -4.36748,5.49537 c 0.57508,1.56713 1.14526,1.8276 2.6103,2.36877 l 5.47764,-4.2013 3.13324,2.00537 19.26258,-18.78839 3.6163,3.68722 c 0,0 0.69348,0.0654 0.91124,-0.15238 0.21777,-0.21777 0.15238,-0.91124 0.15238,-0.91124 l -5.10536,-5.24719 5.10536,-5.10537 1.98543,1.91451 c 0,0 0.46155,-5.6e-4 0.61515,-0.14471 0.19739,-0.18523 0.23574,-0.77709 0.23574,-0.77709 l -5.17628,-5.31588 z m -17.59181,21.61141 7.29687,6.64319 -6.08479,5.76348 -2.85848,-1.81258 -5.67485,4.54476 c -0.57499,-0.15375 -0.89703,-0.49721 -0.96612,-1.03038 l 4.72646,-5.37128 -1.94775,-2.6236 z"
       id="path3765"
       sodipodi:nodetypes="csccccsccccccccccsccccscccccccccccc" /></g></svg>