<?xml version="1.0" encoding="UTF-8" standalone="no"?>
<!-- Created with Inkscape (http://www.inkscape.org/) -->

<svg
   xmlns:dc="http://purl.org/dc/elements/1.1/"
   xmlns:cc="http://creativecommons.org/ns#"
   xmlns:rdf="http://www.w3.org/1999/02/22-rdf-syntax-ns#"
   xmlns:svg="http://www.w3.org/2000/svg"
   xmlns="http://www.w3.org/2000/svg"
   xmlns:sodipodi="http://sodipodi.sourceforge.net/DTD/sodipodi-0.dtd"
   xmlns:inkscape="http://www.inkscape.org/namespaces/inkscape"
   id="svg3406"
   version="1.1"
   inkscape:version="0.48.4 r"
   width="48"
   height="48"
   viewBox="0 0 48 48"
   sodipodi:docname="todos.svg">
  <metadata
     id="metadata3412">
    <rdf:RDF>
      <cc:Work
         rdf:about="">
        <dc:format>image/svg+xml</dc:format>
        <dc:type
           rdf:resource="http://purl.org/dc/dcmitype/StillImage" />
        <dc:title></dc:title>
      </cc:Work>
    </rdf:RDF>
  </metadata>
  <defs
     id="defs3410" />
  <sodipodi:namedview
     pagecolor="#ffffff"
     bordercolor="#666666"
     borderopacity="1"
     objecttolerance="10"
     gridtolerance="10"
     guidetolerance="10"
     inkscape:pageopacity="0"
     inkscape:pageshadow="2"
     inkscape:window-width="1680"
     inkscape:window-height="987"
     id="namedview3408"
     showgrid="false"
     inkscape:zoom="16"
     inkscape:cx="26.294465"
     inkscape:cy="19.395508"
     inkscape:window-x="-4"
     inkscape:window-y="-4"
     inkscape:window-maximized="1"
     inkscape:current-layer="g3040" />
  <g
     style="display:inline"
     inkscape:label="Notas"
     id="g3040"
     inkscape:groupmode="layer">
    <path
       inkscape:connector-curvature="0"
       id="path3042"
       d="M 38.307412,7.814919 C 37.893733,6.015679 36.65029,4.632511 35.032822,4.172341 34.504432,4.022281 34.205,4.018044 22.714039,4.018044 c -11.490962,0 -11.790394,0.00398 -12.318783,0.154297 C 9.5684839,4.407561 8.9262697,4.816173 8.3128623,5.498513 7.375039,6.541723 6.9819555,7.67559 6.9819555,9.33445 l 0,0.917969 0,7.53125 0,6.234375 0,6.234375 0,7.53125 0,0.917969 c 0,1.65885 0.3930835,2.792723 1.3309068,3.835937 0.6134074,0.68234 1.2556216,1.090957 2.0823937,1.326172 0.528389,0.150326 0.827821,0.154297 12.318783,0.154297 11.490961,0 11.790393,-0.004 12.318783,-0.154297 1.603689,-0.456246 2.852711,-1.837003 3.271079,-3.613281 0.129727,-0.5506 -0.115066,-0.849034 -0.111291,-15.972934 l -1.981084,1.96584 c 0.01384,16.190541 -0.01289,13.350915 -0.311333,13.987565 -0.173707,0.37056 -0.759089,0.932946 -1.143034,1.097656 -0.337954,0.1448 -0.653235,0.150391 -9.79568,0.150391 -9.158875,0 -9.457155,-0.0044 -9.797436,-0.150391 -0.459736,-0.19721 -1.030794,-0.804739 -1.239603,-1.318359 l -0.165047,-0.40625 0,-15.585938 0,-15.585938 0.165047,-0.40625 c 0.208809,-0.51362 0.779868,-1.121149 1.239603,-1.318359 0.340281,-0.14556 0.638561,-0.150391 9.797436,-0.150391 9.158875,10e-7 9.457155,0.0044 9.797436,0.150391 0.459737,0.19721 1.030794,0.80474 1.239604,1.318359 l 0.165046,0.40625 0.01404,3.374396 2.140003,-2.024659 -0.0102,-1.966924"
       style="fill:#00c000;fill-opacity:1;stroke:none"
       sodipodi:nodetypes="ccscsscccccssssccccscscccccccscccccc" />
    <path
       inkscape:connector-curvature="0"
       id="path3058-0"
       d="m 10.068861,26.157464 c -0.161073,0.379041 -0.619102,0.773443 -0.97837,0.842469 -0.158964,0.03062 -1.7096562,0.04282 -3.4459888,0.0272 -3.0263155,-0.02706 -3.1672173,-0.03634 -3.4046511,-0.222107 -0.6115204,-0.478512 -0.6177428,-0.506392 -0.6177428,-2.767468 0,-2.261158 0.00619,-2.289138 0.6178844,-2.767513 0.2400903,-0.18778 0.3538527,-0.193833 3.6448587,-0.193833 3.2910076,0 3.4047736,0.0062 3.6448606,0.193833 0.603204,0.47178 0.615794,0.524104 0.639428,2.6566 0.01632,1.474189 -0.0082,2.013429 -0.100277,2.230826 z"
       style="fill:#00c000;fill-opacity:1;stroke:#ffffff;stroke-width:1.29327095;stroke-miterlimit:4;stroke-opacity:1;stroke-dasharray:none;display:inline" />
    <path
       style="fill:#00c000;fill-opacity:1;display:inline"
       d="m 26.983502,28.843481 c -0.196134,-0.05674 -0.41882,-0.241806 -0.486819,-0.404549 -0.03061,-0.07326 -0.05568,-0.216616 -0.05568,-0.318525 0,-0.124639 0.301065,-1.210621 0.919747,-3.317665 0.505858,-1.722805 0.93496,-3.160012 0.953554,-3.193792 0.03641,-0.06615 0.556509,-0.584128 5.558909,-5.536316 l 3.267248,-3.234453 0.509371,0.50824 0.509368,0.508239 -4.249515,4.249654 -4.249515,4.249655 -0.531856,1.808794 -0.531861,1.808792 0.367058,0.366794 0.36706,0.366794 1.72789,-0.50629 1.727887,-0.506289 4.313591,-4.291723 4.31359,-4.291723 0.565873,0.566885 0.565872,0.566883 -4.386221,4.342177 c -2.41242,2.388197 -4.444129,4.371496 -4.514906,4.40733 -0.146625,0.07424 -6.20065,1.852434 -6.390768,1.877104 -0.06833,0.0087 -0.189783,-0.0028 -0.269887,-0.02602 z m 4.826455,-4.172756 c -0.01237,-0.05178 -0.05373,-0.304995 -0.09188,-0.562715 l -0.06937,-0.468583 -0.142738,-0.0363 c -0.0785,-0.01997 -0.354323,-0.08457 -0.612924,-0.143554 -0.258603,-0.05897 -0.46486,-0.121607 -0.458344,-0.139158 0.0064,-0.01756 1.941338,-1.951329 4.299615,-4.297291 l 4.287773,-4.265385 0.704034,0.704849 0.704032,0.704851 -4.298849,4.298713 c -3.789582,3.789461 -4.301519,4.287562 -4.32136,4.20458 z m 8.805272,-9.992995 -2.699709,-2.699927 0.5977,-0.55513 c 0.328736,-0.305323 0.612163,-0.559954 0.62984,-0.565845 0.01768,-0.0058 1.242732,1.200755 2.722343,2.68144 l 2.690203,2.692152 -0.358705,0.337118 c -0.197288,0.185415 -0.476439,0.443544 -0.620335,0.573619 l -0.261628,0.236501 -2.699709,-2.699928 z m 1.996808,-1.987735 -2.581269,-2.582564 0.489822,-0.499874 c 0.551855,-0.56318 0.787336,-0.711446 1.265737,-0.796941 0.364303,-0.06509 0.737151,-0.01092 1.105307,0.160579 0.2463,0.114747 0.397528,0.253844 1.791494,1.647813 1.376326,1.376323 1.533996,1.547355 1.642371,1.78155 0.243302,0.525765 0.24334,1.080998 1.19e-4,1.595307 -0.0904,0.19115 -0.233555,0.365819 -0.624786,0.762329 l -0.507527,0.514364 -2.581268,-2.582563 z"
       id="path5162-6"
       inkscape:connector-curvature="0" />
    <path
       inkscape:connector-curvature="0"
       id="path3058-0-3"
       d="m 10.068389,16.116217 c -0.1610735,0.379041 -0.6191025,0.773443 -0.9783705,0.842469 -0.158964,0.03062 -1.709656,0.04282 -3.445989,0.0272 -3.026315,-0.02706 -3.167217,-0.03634 -3.404651,-0.222107 -0.61152,-0.478512 -0.617743,-0.506392 -0.617743,-2.767468 0,-2.261158 0.0062,-2.289138 0.617885,-2.767513 0.24009,-0.18778 0.353852,-0.193833 3.644858,-0.193833 3.291008,0 3.404774,0.0062 3.644861,0.193833 0.6032045,0.47178 0.6157945,0.524104 0.6394285,2.6566 0.01632,1.474189 -0.0082,2.013429 -0.100277,2.230826 z"
       style="fill:#00c000;fill-opacity:1;stroke:#ffffff;stroke-width:1.29327095;stroke-miterlimit:4;stroke-opacity:1;stroke-dasharray:none;display:inline" />
    <path
       inkscape:connector-curvature="0"
       id="path3058-0-8"
       d="m 10.068388,36.126625 c -0.1610725,0.379041 -0.6191015,0.773443 -0.9783695,0.842469 -0.158964,0.03062 -1.709656,0.04282 -3.445989,0.0272 -3.026315,-0.02706 -3.167217,-0.03634 -3.404651,-0.222107 -0.61152,-0.478512 -0.617743,-0.506392 -0.617743,-2.767468 0,-2.261158 0.0062,-2.289138 0.617885,-2.767513 0.24009,-0.18778 0.353853,-0.193833 3.644859,-0.193833 3.291007,0 3.404773,0.0062 3.64486,0.193833 0.6032035,0.47178 0.6157935,0.524104 0.6394275,2.6566 0.01632,1.474189 -0.0082,2.013429 -0.100277,2.230826 z"
       style="fill:#00c000;fill-opacity:1;stroke:#ffffff;stroke-width:1.29327095;stroke-miterlimit:4;stroke-opacity:1;stroke-dasharray:none;display:inline" />
    <path
       style="fill:none;stroke:#00c000;stroke-width:1.5;stroke-linecap:round;stroke-linejoin:miter;stroke-miterlimit:4;stroke-opacity:1;stroke-dasharray:none;display:inline"
       d="m 16.65,28.4375 8.332054,0"
       id="path4149-9-9"
       inkscape:connector-curvature="0" />
    <path
       style="fill:none;stroke:#00c000;stroke-width:1.5;stroke-linecap:round;stroke-linejoin:miter;stroke-miterlimit:4;stroke-opacity:1;stroke-dasharray:none;display:inline"
       d="m 16.65,15.625 12.125138,0"
       id="path4149-9-8"
       inkscape:connector-curvature="0" />
    <path
       style="fill:none;stroke:#00c000;stroke-width:1.5;stroke-linecap:round;stroke-linejoin:miter;stroke-miterlimit:4;stroke-opacity:1;stroke-dasharray:none;display:inline"
       d="m 16.65,22.125 4.575092,0"
       id="path4149-9-67"
       inkscape:connector-curvature="0" />
  </g>
</svg>
