<?xml version="1.0" encoding="UTF-8" standalone="no"?>
<!-- Created with Inkscape (http://www.inkscape.org/) -->

<svg
   xmlns:dc="http://purl.org/dc/elements/1.1/"
   xmlns:cc="http://creativecommons.org/ns#"
   xmlns:rdf="http://www.w3.org/1999/02/22-rdf-syntax-ns#"
   xmlns:svg="http://www.w3.org/2000/svg"
   xmlns="http://www.w3.org/2000/svg"
   xmlns:sodipodi="http://sodipodi.sourceforge.net/DTD/sodipodi-0.dtd"
   xmlns:inkscape="http://www.inkscape.org/namespaces/inkscape"
   width="48"
   height="48"
   viewBox="0 0 48.000001 48.000001"
   id="svg2"
   version="1.1"
   inkscape:version="0.91 r"
   sodipodi:docname="select.svg">
  <defs
     id="defs4">
    <marker
       inkscape:stockid="Arrow1Lstart"
       orient="auto"
       refY="0"
       refX="0"
       id="marker4715"
       style="overflow:visible"
       inkscape:isstock="true">
      <path
         id="path4717"
         d="M 0,0 5,-5 -12.5,0 5,5 0,0 Z"
         style="fill:#00c000;fill-opacity:1;fill-rule:evenodd;stroke:#00c000;stroke-width:1pt;stroke-opacity:1"
         transform="matrix(0.8,0,0,0.8,10,0)"
         inkscape:connector-curvature="0" />
    </marker>
    <marker
       inkscape:stockid="Arrow1Lstart"
       orient="auto"
       refY="0"
       refX="0"
       id="marker4657"
       style="overflow:visible"
       inkscape:isstock="true">
      <path
         id="path4659"
         d="M 0,0 5,-5 -12.5,0 5,5 0,0 Z"
         style="fill:#00c000;fill-opacity:1;fill-rule:evenodd;stroke:#00c000;stroke-width:1pt;stroke-opacity:1"
         transform="matrix(0.8,0,0,0.8,10,0)"
         inkscape:connector-curvature="0" />
    </marker>
    <marker
       inkscape:stockid="Arrow1Lstart"
       orient="auto"
       refY="0"
       refX="0"
       id="marker4605"
       style="overflow:visible"
       inkscape:isstock="true">
      <path
         id="path4607"
         d="M 0,0 5,-5 -12.5,0 5,5 0,0 Z"
         style="fill:#00c000;fill-opacity:1;fill-rule:evenodd;stroke:#00c000;stroke-width:1pt;stroke-opacity:1"
         transform="matrix(0.8,0,0,0.8,10,0)"
         inkscape:connector-curvature="0" />
    </marker>
    <marker
       inkscape:stockid="Arrow1Lstart"
       orient="auto"
       refY="0"
       refX="0"
       id="marker4559"
       style="overflow:visible"
       inkscape:isstock="true">
      <path
         id="path4561"
         d="M 0,0 5,-5 -12.5,0 5,5 0,0 Z"
         style="fill:#00c000;fill-opacity:1;fill-rule:evenodd;stroke:#00c000;stroke-width:1pt;stroke-opacity:1"
         transform="matrix(0.8,0,0,0.8,10,0)"
         inkscape:connector-curvature="0" />
    </marker>
    <marker
       inkscape:stockid="Arrow1Lstart"
       orient="auto"
       refY="0"
       refX="0"
       id="marker4519"
       style="overflow:visible"
       inkscape:isstock="true">
      <path
         id="path4521"
         d="M 0,0 5,-5 -12.5,0 5,5 0,0 Z"
         style="fill:#00c000;fill-opacity:1;fill-rule:evenodd;stroke:#00c000;stroke-width:1pt;stroke-opacity:1"
         transform="matrix(0.8,0,0,0.8,10,0)"
         inkscape:connector-curvature="0" />
    </marker>
    <marker
       inkscape:stockid="Arrow1Lstart"
       orient="auto"
       refY="0"
       refX="0"
       id="marker4485"
       style="overflow:visible"
       inkscape:isstock="true">
      <path
         id="path4487"
         d="M 0,0 5,-5 -12.5,0 5,5 0,0 Z"
         style="fill:#00c000;fill-opacity:1;fill-rule:evenodd;stroke:#00c000;stroke-width:1pt;stroke-opacity:1"
         transform="matrix(0.8,0,0,0.8,10,0)"
         inkscape:connector-curvature="0" />
    </marker>
    <marker
       inkscape:stockid="Arrow1Lstart"
       orient="auto"
       refY="0"
       refX="0"
       id="marker4457"
       style="overflow:visible"
       inkscape:isstock="true">
      <path
         id="path4459"
         d="M 0,0 5,-5 -12.5,0 5,5 0,0 Z"
         style="fill:#00c000;fill-opacity:1;fill-rule:evenodd;stroke:#00c000;stroke-width:1pt;stroke-opacity:1"
         transform="matrix(0.8,0,0,0.8,10,0)"
         inkscape:connector-curvature="0" />
    </marker>
    <marker
       inkscape:stockid="Arrow1Lstart"
       orient="auto"
       refY="0"
       refX="0"
       id="marker4435"
       style="overflow:visible"
       inkscape:isstock="true">
      <path
         id="path4437"
         d="M 0,0 5,-5 -12.5,0 5,5 0,0 Z"
         style="fill:#00c000;fill-opacity:1;fill-rule:evenodd;stroke:#00c000;stroke-width:1pt;stroke-opacity:1"
         transform="matrix(0.8,0,0,0.8,10,0)"
         inkscape:connector-curvature="0" />
    </marker>
    <marker
       inkscape:stockid="Arrow1Lstart"
       orient="auto"
       refY="0"
       refX="0"
       id="Arrow1Lstart"
       style="overflow:visible"
       inkscape:isstock="true">
      <path
         id="path4165"
         d="M 0,0 5,-5 -12.5,0 5,5 0,0 Z"
         style="fill:#00c000;fill-opacity:1;fill-rule:evenodd;stroke:#00c000;stroke-width:1pt;stroke-opacity:1"
         transform="matrix(0.8,0,0,0.8,10,0)"
         inkscape:connector-curvature="0" />
    </marker>
  </defs>
  <sodipodi:namedview
     id="base"
     pagecolor="#ffffff"
     bordercolor="#666666"
     borderopacity="1.0"
     inkscape:pageopacity="0.0"
     inkscape:pageshadow="2"
     inkscape:zoom="13.217407"
     inkscape:cx="34.609146"
     inkscape:cy="21.575903"
     inkscape:document-units="px"
     inkscape:current-layer="layer1"
     showgrid="false"
     units="px"
     inkscape:window-width="1366"
     inkscape:window-height="741"
     inkscape:window-x="0"
     inkscape:window-y="0"
     inkscape:window-maximized="1" />
  <metadata
     id="metadata7">
    <rdf:RDF>
      <cc:Work
         rdf:about="">
        <dc:format>image/svg+xml</dc:format>
        <dc:type
           rdf:resource="http://purl.org/dc/dcmitype/StillImage" />
        <dc:title />
      </cc:Work>
    </rdf:RDF>
  </metadata>
  <g
     inkscape:label="Capa 1"
     inkscape:groupmode="layer"
     id="layer1"
     transform="translate(0,-1004.3622)">
    <path
       style="fill:none;fill-rule:evenodd;stroke:#00c000;stroke-width:2;stroke-linecap:round;stroke-linejoin:round;stroke-miterlimit:4;stroke-dasharray:none;stroke-opacity:1"
       d="m 25.958821,1030.7034 -7.522641,17.5997 c -0.568242,0.8515 -1.423825,1.0954 -2.076831,0.9015 -0.652864,-0.194 -1.90083,-1.1622 -1.487414,-2.2624 l 8.28006,-18.5825 c 0.538694,-1.4561 -0.41468,-2.1478 -0.798538,-2.1148 0,0 -7.489711,-0.1115 -7.740443,-0.6024 0.590788,-0.5509 18.781984,-18.0539 18.781984,-18.0539 l 0.07764,25.5467 -5.593943,-4.2222"
       id="path4159"
       inkscape:connector-curvature="0"
       sodipodi:nodetypes="cczccccccc" />
  </g>
</svg>
