<?xml version="1.0" encoding="UTF-8" standalone="no"?>
<!-- Created with Inkscape (http://www.inkscape.org/) -->

<svg
   xmlns:dc="http://purl.org/dc/elements/1.1/"
   xmlns:cc="http://creativecommons.org/ns#"
   xmlns:rdf="http://www.w3.org/1999/02/22-rdf-syntax-ns#"
   xmlns:svg="http://www.w3.org/2000/svg"
   xmlns="http://www.w3.org/2000/svg"
   xmlns:sodipodi="http://sodipodi.sourceforge.net/DTD/sodipodi-0.dtd"
   xmlns:inkscape="http://www.inkscape.org/namespaces/inkscape"
   id="svg3406"
   version="1.1"
   inkscape:version="0.91 r13725"
   width="48"
   height="48"
   viewBox="0 0 48 48"
   sodipodi:docname="tools.svg">
  <metadata
     id="metadata3412">
    <rdf:RDF>
      <cc:Work
         rdf:about="">
        <dc:format>image/svg+xml</dc:format>
        <dc:type
           rdf:resource="http://purl.org/dc/dcmitype/StillImage" />
        <dc:title></dc:title>
      </cc:Work>
    </rdf:RDF>
  </metadata>
  <defs
     id="defs3410" />
  <sodipodi:namedview
     pagecolor="#ffffff"
     bordercolor="#666666"
     borderopacity="1"
     objecttolerance="10"
     gridtolerance="10"
     guidetolerance="10"
     inkscape:pageopacity="0"
     inkscape:pageshadow="2"
     inkscape:window-width="1600"
     inkscape:window-height="876"
     id="namedview3408"
     showgrid="false"
     inkscape:zoom="16"
     inkscape:cx="25.490264"
     inkscape:cy="24.395508"
     inkscape:window-x="0"
     inkscape:window-y="24"
     inkscape:window-maximized="1"
     inkscape:current-layer="layer9" />
  <g
     inkscape:groupmode="layer"
     id="layer9"
     inkscape:label="Utils"
     style="display:inline">
    <path
       style="fill:#00c000;fill-opacity:1;stroke:#00ba00;stroke-width:0;stroke-miterlimit:4;stroke-dasharray:none;stroke-opacity:1"
       d="M 21.509438,43.481987 C 20.098782,42.965695 18.188988,41.215126 17.670311,39.962926 17.434598,39.393863 16.287306,38.41619 14.312338,37.101399 10.777253,34.747995 7.139743,31.225645 6.066424,29.116532 5.47779,27.959845 5.302338,27.147273 5.303192,25.581739 c 0.0016,-2.361135 0.636607,-3.410937 1.970223,-3.255567 0.696393,0.08115 0.801392,0.263839 0.976597,1.699328 0.195536,1.602056 0.924124,3.130473 1.492281,3.130473 0.428028,0 0.369547,-0.50481 -0.182033,-1.571456 -0.642163,-1.241798 -0.377712,-1.791635 0.861701,-1.791635 1.954373,0 3.287845,1.73599 3.287845,4.280298 0,0.683417 0.189703,1.696593 0.421555,2.251501 0.399507,0.956145 1.799595,2.334532 2.371298,2.334532 0.145476,0 0.264502,-1.19181 0.264502,-2.648469 l 0,-2.648459 -5.193943,-7.242083 C 8.716549,16.137056 6.154463,12.341559 5.879699,11.685759 5.60492,11.029959 5.310722,9.389673 5.225911,8.040679 5.030071,4.925572 5.380291,4.474828 7.253886,5.430663 c 0.678732,0.346263 1.56665,0.629573 1.973145,0.629573 0.912574,0 1.549379,0.715918 1.342039,1.50878 -0.117248,0.448357 0.06208,0.670701 0.728259,0.902929 0.714225,0.248983 0.883798,0.487133 0.883798,1.241206 0,0.709007 0.137868,0.933114 0.574036,0.933114 0.790938,0 1.269501,0.663424 1.059056,1.468151 -0.137621,0.526268 -0.04349,0.671998 0.433963,0.671998 0.805337,0 1.407972,0.761878 1.207878,1.527044 -0.08819,0.337204 -0.0469,0.6131 0.09178,0.6131 0.138659,0 0.448819,0.07555 0.68925,0.167749 0.349795,0.134231 0.473723,-0.350556 0.620205,-2.426163 0.275207,-3.899719 1.849032,-6.330513 4.764775,-7.359243 3.821156,-1.348184 5.895058,-0.210962 10.583698,5.803555 1.176515,1.509214 3.628143,4.63674 5.448066,6.950062 2.730192,3.470383 3.602139,4.851842 4.985323,7.898397 1.921147,4.231481 1.885596,4.558147 -0.496059,4.558147 -2.825036,0 -4.765889,-1.399365 -8.759979,-6.316014 l -2.399265,-2.953441 -0.152866,8.991456 c -0.171026,10.059511 -0.163924,10.024612 -2.435551,11.969034 -2.008458,1.719172 -4.437843,2.167888 -6.885999,1.27189 z m 4.58265,-1.617097 c 1.414828,-0.652988 2.420397,-1.657664 2.884121,-2.881577 0.525083,-1.385847 0.442403,-28.078339 -0.09091,-29.354782 -1.304803,-3.122832 -5.615814,-4.169537 -8.245436,-2.001973 -2.274202,1.874587 -2.191139,1.238572 -2.191139,16.777796 0,15.503394 -0.06935,14.961147 2.139852,16.727486 1.770573,1.415631 3.519768,1.648613 5.503529,0.73305 z m -2.960611,-3.320274 c -0.06931,-0.601999 -0.292103,-0.868517 -0.784648,-0.93847 -1.043674,-0.148226 -0.974391,-1.583846 0.07645,-1.583846 0.611469,0 0.764337,-0.152869 0.764337,-0.764338 0,-0.611477 0.152872,-0.764342 0.764339,-0.764342 0.611466,0 0.764337,0.152865 0.764337,0.764342 0,0.611469 0.152869,0.764338 0.764341,0.764338 0.611468,0 0.764337,0.152866 0.764337,0.764333 0,0.611473 -0.152869,0.764343 -0.764337,0.764343 -0.645448,0 -0.764345,0.142675 -0.764345,0.917204 0,0.767859 -0.121153,0.917211 -0.74403,0.917211 -0.584392,0 -0.764786,-0.180395 -0.840771,-0.840775 z m -0.430591,-25.91107 c -0.463928,-0.708046 -0.463928,-0.820635 0,-1.528679 0.887025,-1.353773 2.626865,-0.847533 2.626865,0.764339 0,1.611868 -1.73984,2.11811 -2.626865,0.76434 z m -5.933725,23.089232 c 0,-1.105127 -0.108647,-1.272159 -1.184482,-1.821008 -2.154982,-1.099391 -3.363449,-3.15814 -3.421332,-5.82859 -0.01277,-0.588541 -0.152582,-1.345233 -0.310725,-1.681546 -0.216429,-0.460265 -0.246886,-0.335387 -0.123165,0.504984 0.215935,1.4667 -0.478788,2.228295 -1.79289,1.965476 -1.13194,-0.226385 -1.920166,-0.912169 -2.663433,-2.317273 -0.862971,-1.631395 -0.749243,-0.191349 0.132772,1.681228 0.845839,1.79577 3.997132,4.992425 7.070236,7.172006 1.177088,0.834842 2.174544,1.523193 2.216582,1.529669 0.04202,0.0064 0.07646,-0.535745 0.07646,-1.204945 z m 25.376033,-6.99581 c 0,-0.144872 -0.570612,-1.486289 -1.268018,-2.980916 -0.936641,-2.007328 -2.339658,-4.075792 -5.368664,-7.915007 -2.255359,-2.858626 -4.229998,-5.243362 -4.388088,-5.299412 -0.167077,-0.05919 -0.287436,1.180559 -0.287436,2.960889 l 0,3.0628 1.882218,2.38948 c 3.27401,4.156372 5.251107,6.288948 6.65703,7.180561 1.3127,0.832489 2.772958,1.1493 2.772958,0.601605 z M 16.015163,18.427178 c -0.427173,-0.395892 -0.776677,-0.986621 -0.776677,-1.31273 0,-0.383952 -0.280894,-0.663424 -0.796986,-0.792952 -0.671261,-0.168478 -0.776691,-0.338268 -0.668357,-1.076382 0.110751,-0.754607 0.01193,-0.899687 -0.711455,-1.044363 C 12.378379,14.064089 12.203574,13.845601 12.12494,13.029909 12.05575,12.312398 11.854288,11.994561 11.416791,11.912775 10.629185,11.765545 10.330784,11.27481 10.534734,10.462204 10.667895,9.931658 10.527334,9.78046 9.757675,9.626536 8.971742,9.46935 8.818037,9.295717 8.818037,8.565054 8.818037,7.83309 8.644603,7.638276 7.747965,7.363088 6.708942,7.044201 6.677896,7.058519 6.677896,7.856634 c 0,2.38118 0.792411,3.895783 5.36826,10.260839 l 4.568138,6.354328 0.08879,-2.662414 c 0.08378,-2.513779 0.04542,-2.702596 -0.687908,-3.382209 z"
       id="path4257"
       inkscape:connector-curvature="0" />
  </g>
</svg>
