<?xml version="1.0" encoding="UTF-8" standalone="no"?>
<!-- Created with Inkscape (http://www.inkscape.org/) -->

<svg
   xmlns:dc="http://purl.org/dc/elements/1.1/"
   xmlns:cc="http://creativecommons.org/ns#"
   xmlns:rdf="http://www.w3.org/1999/02/22-rdf-syntax-ns#"
   xmlns:svg="http://www.w3.org/2000/svg"
   xmlns="http://www.w3.org/2000/svg"
   xmlns:sodipodi="http://sodipodi.sourceforge.net/DTD/sodipodi-0.dtd"
   xmlns:inkscape="http://www.inkscape.org/namespaces/inkscape"
   id="svg2"
   version="1.1"
   inkscape:version="0.91 r"
   width="225"
   height="225"
   viewBox="0 0 225 225"
   sodipodi:docname="MainGui.svg">
  <metadata
     id="metadata8">
    <rdf:RDF>
      <cc:Work
         rdf:about="">
        <dc:format>image/svg+xml</dc:format>
        <dc:type
           rdf:resource="http://purl.org/dc/dcmitype/StillImage" />
        <dc:title />
      </cc:Work>
    </rdf:RDF>
  </metadata>
  <defs
     id="defs6" />
  <sodipodi:namedview
     pagecolor="#ffffff"
     bordercolor="#666666"
     borderopacity="1"
     objecttolerance="10"
     gridtolerance="10"
     guidetolerance="10"
     inkscape:pageopacity="0"
     inkscape:pageshadow="2"
     inkscape:window-width="1366"
     inkscape:window-height="741"
     id="namedview4"
     showgrid="false"
     inkscape:zoom="2.302439"
     inkscape:cx="103.57722"
     inkscape:cy="100.76271"
     inkscape:window-x="0"
     inkscape:window-y="0"
     inkscape:window-maximized="1"
     inkscape:current-layer="g3338" />
  <g
     inkscape:groupmode="layer"
     id="layer1"
     inkscape:label="MainGui"
     style="display:inline">
    <g
       id="g3338"
       transform="translate(0,-10)">
      <path
         inkscape:connector-curvature="0"
         style="fill:#94ff62;fill-opacity:1"
         d="m 72.1875,211.14987 c -3.054987,-1.77936 -2.727951,-5.50718 0.625,-7.12426 2.386374,-1.1509 1.727344,-1.36922 -4.349705,-1.44101 -11.54405,-0.13636 -23.572625,-5.98796 -21.800708,-10.6055 0.417698,-1.08851 2.04273,-2.01874 3.611182,-2.06717 2.26896,-0.0701 1.95767,-0.4196 -1.523269,-1.71033 -10.703216,-3.96874 -21.25,-11.78301 -21.25,-15.74445 0,-1.14131 1.265625,-2.65565 2.8125,-3.36519 L 33.125,167.80187 30,166.30033 c -1.71875,-0.82586 -5.150475,-4.12816 -7.626056,-7.33844 -8.410724,-10.90688 -9.05795,-14.67626 -2.350978,-13.69189 3.436515,0.50438 3.453935,0.4731 1.499295,-2.69235 -1.08769,-1.76146 -3.292491,-4.65124 -4.899559,-6.42175 C 13.457098,132.66836 11.25,126.42006 11.25,120.94575 c 0,-3.95062 1.31301,-4.28113 5.668979,-1.42699 2.776677,1.81935 3.081021,1.82483 3.081021,0.0555 0,-1.07978 -1.40625,-4.03547 -3.125,-6.56819 -2.51257,-3.70248 -3.125,-6.14304 -3.125,-12.45328 0,-9.255679 0.776376,-11.8028 3.597555,-11.8028 1.768273,0 8.49522,11.28747 11.919322,20 0.40529,1.03125 0.409243,-0.375 0.0088,-3.125 -0.400459,-2.75 -1.75726,-6.125 -3.015114,-7.5 -5.223234,-5.709685 -6.116024,-20.067845 -1.878445,-30.209798 2.232455,-5.343018 6.470737,-5.749991 7.578422,-0.727702 1.867352,8.466645 2.418972,8.60379 2.498527,0.621189 0.09124,-9.154463 2.093468,-14.645898 7.857433,-21.550196 4.915786,-5.888281 6.433549,-4.233562 6.433549,7.014049 0,11.226352 1.891416,11.295096 2.789939,0.1014 0.76818,-9.569913 4.340773,-16.360821 11.145868,-21.186442 8.189277,-5.807172 9.773477,-4.535579 7.353446,5.902406 -0.633109,2.730699 -0.978952,5.137061 -0.76854,5.347474 0.210412,0.210411 2.007453,-0.240296 3.993427,-1.001573 1.985972,-0.761275 8.11086,-1.884498 13.61086,-2.496051 5.5,-0.611552 11.265625,-1.476283 12.8125,-1.921624 4.765531,-1.371981 3.307841,2.140273 -3.769093,9.081538 -3.619876,3.550481 -8.125191,6.842837 -10.011811,7.316349 -5.187535,1.301988 -5.264664,2.809526 -0.293796,5.74241 6.833046,4.031595 5.443286,6.504805 -4.333516,7.711901 -4.433885,0.547431 -8.322649,1.256369 -8.641697,1.575415 -0.319046,0.319047 0.503852,1.380156 1.828664,2.35802 2.997493,2.212495 2.053346,3.129961 -7.257419,7.052327 -6.939157,2.923276 -9.11664,4.893908 -5.407603,4.893908 3.788579,0 3.140434,2.655634 -1.793723,7.349384 -4.08588,3.886803 -4.97183,5.482534 -4.371622,7.873953 0.846465,3.372583 -0.950361,9.019713 -3.765736,11.835083 -2.36671,2.36671 -2.396716,4.19158 -0.06892,4.19158 3.229554,0 3.419847,2.42323 0.787595,10.02933 -3.181676,9.19372 -3.182646,9.07761 0.06724,8.04614 3.611225,-1.14616 4.801643,1.1398 4.824802,9.26509 0.01654,5.80098 0.272326,6.50543 1.878222,5.17265 3.184574,-2.64296 5.021184,-0.59199 6.685494,7.46581 1.529374,7.40449 1.713264,7.6751 3.881857,5.71255 2.051588,-1.85666 2.466915,-1.86965 4.204982,-0.13158 1.060702,1.0607 3.775965,5.15748 6.033915,9.10397 3.604483,6.29999 4.187981,6.82546 4.782517,4.30697 0.910566,-3.85723 1.835035,-3.88887 6.455291,-0.22093 10.490878,8.32851 12.091128,10.21734 14.686218,17.3346 4.9594,13.60164 10.29103,13.46274 13.27282,-0.34578 0.43185,-1.9999 2.63626,-5.3749 4.89868,-7.5 2.26242,-2.12511 6.40728,-6.03157 9.21081,-8.68103 5.97452,-5.64625 8.36606,-5.14214 7.22453,1.52286 -0.75617,4.41502 -0.67113,4.35319 2.98823,-2.17304 4.89599,-8.73165 5.62412,-9.54465 10.71006,-11.95807 3.34496,-1.58729 4.59194,-3.182 5.71026,-7.30265 0.78693,-2.89954 1.65302,-6.03468 1.92465,-6.96698 0.32672,-1.12127 1.5266,-1.43588 3.54463,-0.9294 2.94097,0.73814 3.06422,0.5068 3.42585,-6.42991 0.36111,-6.92689 0.49924,-7.18739 3.69876,-6.97586 3.0472,0.20146 3.24026,-0.0584 2.32113,-3.125 -0.5514,-1.83961 -1.62516,-4.92823 -2.38615,-6.86362 C 170.49324,117.91264 170.88238,115 173.75,115 c 2.6462,0 3.36133,-1.82013 1.23214,-3.13604 -0.69733,-0.43097 -2.41813,-3.03828 -3.824,-5.79403 -1.97123,-3.86392 -2.22651,-5.40761 -1.11565,-6.746128 1.1179,-1.346981 0.83506,-2.585926 -1.26293,-5.532286 -1.48687,-2.088131 -3.7893,-4.377748 -5.11648,-5.088039 -3.26219,-1.745865 -3.0529,-4.687717 0.36842,-5.179038 2.24725,-0.322718 1.50481,-1.05969 -3.86536,-3.836939 -3.65577,-1.890625 -7.43869,-3.4375 -8.4065,-3.4375 -2.14321,0 -2.30369,-2.705948 -0.28048,-4.729166 2.18135,-2.181343 0.91123,-2.795606 -7.79073,-3.767789 -4.32263,-0.482925 -8.08266,-1.550894 -8.35562,-2.373264 -0.27296,-0.822371 1.81124,-2.951897 4.63154,-4.73228 C 144.84819,57.564474 145.68392,55 141.80482,55 c -0.98868,0 -3.90861,-1.889499 -6.48872,-4.198886 -2.5801,-2.309386 -6.80048,-4.88426 -9.3786,-5.72194 -4.95991,-1.611565 -6.13784,-4.255153 -2.51541,-5.645213 6.12433,-2.350125 17.33307,-2.161969 24.61457,0.413195 4.0764,1.441659 7.61154,2.421304 7.85586,2.17699 0.24432,-0.244314 -0.10287,-2.878787 -0.77138,-5.854386 -1.8892,-8.408226 0.3025,-9.550963 8.45165,-4.406632 5.69479,3.594964 10.01903,12.530267 10.6886,22.086147 0.24501,3.49667 1.14585,7.014165 2.00186,7.816654 1.23362,1.156482 1.38658,0.332352 0.73754,-3.973914 C 175.86076,50.128154 177.21307,43.75 179.95682,43.75 c 2.70959,0 11.25893,13.140849 11.38104,17.493349 0.0482,1.722408 0.52759,4.256651 1.06504,5.631651 0.94609,2.420429 1.00565,2.410482 1.87137,-0.3125 1.5323,-4.81952 5.27318,-3.456076 7.65917,2.791546 1.61019,4.216238 1.99716,8.07497 1.5626,15.581778 l -0.5776,9.977733 2.96222,-3.196292 c 4.32461,-4.666339 6.61934,-2.236244 6.61934,7.00983 0,5.572795 -0.83576,8.737155 -3.75,14.198325 -2.0625,3.86504 -3.75,7.3053 -3.75,7.64502 0,0.33973 1.50325,0.0461 3.34056,-0.6524 5.2832,-2.00867 6.91434,-0.70116 5.92961,4.75314 -1.10557,6.12367 -2.353,8.46101 -8.39733,15.73442 l -5.01153,6.0306 4.74819,-0.89076 c 4.73787,-0.88884 4.74627,-0.88293 3.86537,2.7194 -1.27441,5.21152 -6.8756,12.88836 -12.24535,16.78312 -4.70256,3.41084 -4.94257,4.95204 -0.77118,4.95204 3.77716,0 2.67932,4.5841 -1.99014,8.30995 -2.35499,1.87909 -7.67069,5.2198 -11.81266,7.4238 -5.84647,3.11099 -6.98564,4.14985 -5.0932,4.64474 1.34071,0.3506 2.43766,1.4467 2.43766,2.43575 0,4.7273 -11.22746,9.63658 -22.34466,9.77036 -5.98183,0.072 -6.61088,0.2869 -4.21784,1.44101 3.45097,1.66435 3.65816,5.43384 0.39467,7.18041 -3.35595,1.79605 -19.24141,1.62345 -23.36158,-0.25382 -2.70044,-1.2304 -3.50285,-1.2304 -3.91299,0 -0.8819,2.64569 -4.06127,1.7009 -5.3076,-1.5772 -1.03656,-2.72635 -1.94352,-3.125 -7.10961,-3.125 -4.95439,0 -6.37425,0.56141 -8.69377,3.4375 -2.26387,2.80709 -3.18944,3.19226 -5.04695,2.10025 -1.255975,-0.73838 -3.674182,-0.93413 -5.39967,-0.4371 -4.768587,1.37359 -20.344854,1.2365 -22.8125,-0.20078 z"
         id="path3444" />
      <path
         inkscape:connector-curvature="0"
         style="fill:#83f451;fill-opacity:1"
         d="m 83.75,199.24126 c 0,-0.27018 -0.84375,-0.49126 -1.875,-0.49126 -1.03125,0 -1.875,0.54485 -1.875,1.21077 0,0.66592 0.84375,0.88699 1.875,0.49127 1.03125,-0.39574 1.875,-0.94058 1.875,-1.21078 z"
         id="path3442" />
      <path
         inkscape:connector-curvature="0"
         style="fill:#83f451;fill-opacity:1"
         d="m 98.125,195 c -0.424899,-0.6875 -1.562816,-1.25 -2.528707,-1.25 -0.965892,0 -3.182694,-2.09933 -4.926229,-4.66516 L 87.5,184.41966 l 0,5.08184 c 0,2.79501 0.375,5.45684 0.833334,5.91516 1.370557,1.37056 10.652132,0.9756 9.791666,-0.41666 z"
         id="path3440" />
      <path
         inkscape:connector-curvature="0"
         style="fill:#83f451;fill-opacity:1"
         d="m 138.7104,190.3125 -0.0396,-5.9375 -2.6716,3.58431 c -1.46938,1.97138 -4.40468,4.64115 -6.5229,5.93283 l -3.8513,2.34851 6.5625,0.005 6.5625,0.005 -0.0396,-5.9375 z"
         id="path3438" />
      <path
         inkscape:connector-curvature="0"
         style="fill:#83f451;fill-opacity:1"
         d="m 63.4375,187.88834 c -1.203125,-0.3144 -3.171875,-0.3144 -4.375,0 -1.203125,0.31441 -0.21875,0.57166 2.1875,0.57166 2.40625,0 3.390625,-0.25725 2.1875,-0.57166 z"
         id="path3436" />
      <path
         inkscape:connector-curvature="0"
         style="fill:#83f451;fill-opacity:1"
         d="m 75,186.93051 c 0,-1.53775 -6.043228,-9.22061 -6.720258,-8.54358 -1.403754,1.40375 -0.819729,4.49703 1.288993,6.82715 C 71.420821,187.26061 75,188.39172 75,186.93051 Z"
         id="path3434" />
      <path
         inkscape:connector-curvature="0"
         style="fill:#83f451;fill-opacity:1"
         d="m 156.78571,185.53571 c 2.10776,-2.10776 2.42908,-4.12001 1.17834,-7.37939 -0.61573,-1.60456 -1.41944,-1.01758 -3.71099,2.71027 -1.60877,2.61712 -2.9426,5.18028 -2.96405,5.69591 -0.0691,1.65976 3.47154,0.99839 5.4967,-1.02679 z"
         id="path3432" />
      <path
         inkscape:connector-curvature="0"
         style="fill:#83f451;fill-opacity:1"
         d="m 175.625,173.75 c 0.4249,-0.6875 0.21004,-1.25 -0.47746,-1.25 -0.6875,0 -1.59764,0.5625 -2.02254,1.25 -0.4249,0.6875 -0.21004,1.25 0.47746,1.25 0.6875,0 1.59764,-0.5625 2.02254,-1.25 z"
         id="path3430" />
      <path
         inkscape:connector-curvature="0"
         style="fill:#83f451;fill-opacity:1"
         d="m 55,166.875 c 0,-3.43644 -1.442121,-4.03083 -3.567203,-1.47026 -1.002858,1.20837 -0.976707,2.05135 0.09695,3.125 C 53.830812,170.83081 55,170.2733 55,166.875 Z"
         id="path3428" />
      <path
         inkscape:connector-curvature="0"
         style="fill:#83f451;fill-opacity:1"
         d="m 174.92765,168.21217 c 1.18386,-1.42646 0.9874,-2.05347 -0.97199,-3.10211 C 171.55654,163.8261 170,165.29863 170,168.85224 c 0,1.77881 3.273,1.35367 4.92765,-0.64007 z"
         id="path3426" />
      <path
         inkscape:connector-curvature="0"
         style="fill:#83f451;fill-opacity:1"
         d="m 43.964238,150 c 0.523486,-5.48927 0.160406,-5.83858 -3.378795,-3.25065 -2.148312,1.57089 -2.214899,2.08099 -0.652688,5 2.421998,4.52555 3.476721,4.06787 4.031483,-1.74935 z"
         id="path3424" />
      <path
         inkscape:connector-curvature="0"
         style="fill:#83f451;fill-opacity:1"
         d="m 187.5,148.6555 c 0,-1.30351 -4.97749,-4.09468 -5.81266,-3.2595 -0.3292,0.3292 -0.19943,2.726 0.28837,5.32624 l 0.88693,4.7277 2.31867,-2.86345 c 1.27528,-1.5749 2.31869,-3.34384 2.31869,-3.93099 z"
         id="path3422" />
      <path
         inkscape:connector-curvature="0"
         style="fill:#83f451;fill-opacity:1"
         d="M 34.426399,150.08316 C 33.973231,149.34992 33.00428,148.75 32.273172,148.75 c -0.828866,0 -0.734038,0.71722 0.251898,1.90521 1.714426,2.06575 3.246666,1.60475 1.901329,-0.57205 z"
         id="path3420" />
      <path
         inkscape:connector-curvature="0"
         style="fill:#83f451;fill-opacity:1"
         d="m 197.99141,148.28557 c 1.30153,-0.46443 2.05693,-1.15391 1.67866,-1.53216 -1.03797,-1.03799 -8.42007,3.10229 -8.42007,4.72243 0,0.8709 0.83793,0.69197 2.1875,-0.4671 1.20312,-1.03331 3.25239,-2.25873 4.55391,-2.72316 z"
         id="path3418" />
      <path
         inkscape:connector-curvature="0"
         style="fill:#83f451;fill-opacity:1"
         d="m 192.26973,128.40155 c -0.2584,-1.81759 -1.41419,-2.92081 -3.34645,-3.19423 -1.62345,-0.22973 -2.71185,0.0515 -2.41867,0.625 0.29319,0.57347 1.27889,2.94043 2.19045,5.25991 1.38353,3.52041 1.84839,3.87591 2.81339,2.15155 0.6358,-1.13612 0.97838,-3.31512 0.76128,-4.84223 z"
         id="path3416" />
      <path
         inkscape:connector-curvature="0"
         style="fill:#83f451;fill-opacity:1"
         d="m 38.24183,125.32516 c -1.475187,-1.47518 -4.49183,1.07836 -4.49183,3.80228 0,4.74125 1.731361,5.15067 3.495747,0.82664 0.896552,-2.1972 1.344788,-4.28021 0.996083,-4.62892 z"
         id="path3414" />
      <path
         inkscape:connector-curvature="0"
         style="fill:#83f451;fill-opacity:1"
         d="M 192.01309,105.53409 C 191.33579,103.76909 185,102.94247 185,104.6191 c 0,0.47801 1.54687,2.49084 3.4375,4.47296 3.31099,3.47122 3.45264,3.5049 3.84885,0.91499 0.22625,-1.47887 0.10325,-3.49171 -0.27326,-4.47296 z"
         id="path3412" />
      <path
         inkscape:connector-curvature="0"
         style="fill:#83f451;fill-opacity:1"
         d="M 40.138901,103.96365 C 35.749845,103.32358 33.75,104.6338 33.75,108.14938 l 0,3.22785 4.604809,-3.50112 c 4.282487,-3.25604 4.407368,-3.5299 1.784092,-3.91246 z"
         id="path3410" />
      <path
         inkscape:connector-curvature="0"
         style="fill:#83f451;fill-opacity:1"
         d="m 201.2057,98.284444 c 0.0244,-0.599805 -0.79945,-0.390305 -1.8307,0.465556 -1.03125,0.855861 -1.85506,2.75286 -1.8307,4.21556 0.0418,2.50508 0.14797,2.47805 1.8307,-0.46556 0.98252,-1.71875 1.80635,-3.61575 1.8307,-4.215556 z"
         id="path3408" />
      <path
         inkscape:connector-curvature="0"
         style="fill:#83f451;fill-opacity:1"
         d="m 45.537776,87.131137 c 2.368899,-1.769278 2.364561,-1.827853 -0.23854,-3.220991 -2.235968,-1.196654 -2.956635,-0.983038 -4.600276,1.363589 -1.071928,1.530393 -1.94896,3.520911 -1.94896,4.423378 0,1.744603 2.057919,0.966649 6.787776,-2.565976 z"
         id="path3406" />
      <path
         inkscape:connector-curvature="0"
         style="fill:#83f451;fill-opacity:1"
         d="m 186.24899,86.873116 c -1.6484,-3.080065 -5.44039,-4.192731 -6.79872,-1.994915 -0.7228,1.169514 6.93163,6.656568 7.91462,5.673574 0.30555,-0.305547 -0.1966,-1.960944 -1.1159,-3.678659 z"
         id="path3404" />
      <path
         inkscape:connector-curvature="0"
         style="fill:#83f451;fill-opacity:1"
         d="m 174.59575,67.777572 c -2.72092,-2.720923 -3.5006,-2.955173 -5.1845,-1.557655 -1.752,1.454034 -1.43399,1.976894 2.74089,4.506324 5.61353,3.401071 7.05454,1.662249 2.44361,-2.948669 z"
         id="path3402" />
      <path
         inkscape:connector-curvature="0"
         style="fill:#83f451;fill-opacity:1"
         d="m 55.212104,70.053755 c 3.504965,-2.131498 3.728241,-2.559175 1.735309,-3.323935 -2.726584,-1.046288 -6.162843,0.852362 -6.726568,3.716659 -0.518035,2.632145 0.09681,2.583767 4.991259,-0.392724 z"
         id="path3352" />
      <path
         style="fill:#00c000;fill-opacity:1"
         d="m 72.118186,209.86109 c -3.117476,-1.81358 -1.082667,-3.97694 6.337051,-6.73742 7.320358,-2.72348 8.876363,-4.03708 6.061564,-5.11722 -1.183182,-0.45404 -4.336934,0.1601 -7.008335,1.36474 -6.053049,2.72953 -17.18464,2.10977 -24.383466,-1.35759 -9.947641,-4.79134 -5.300045,-7.67303 13.35422,-8.28013 6.058011,-0.19716 11.015964,-0.60948 11.017673,-0.91628 0.0018,-0.3068 -1.52944,-2.76928 -3.402555,-5.47219 -2.715656,-3.91869 -3.50538,-6.67915 -3.897845,-13.62481 -0.446354,-7.89937 -0.279707,-8.66953 1.789678,-8.271 3.710165,0.71451 11.630543,15.94482 13.56117,26.07715 0.941353,4.9404 2.187674,9.38662 2.769604,9.88048 1.351968,1.14737 14.183055,0.16342 14.183055,-1.08762 0,-0.51674 -2.17557,-1.92056 -4.834603,-3.11961 -2.997712,-1.35179 -5.806798,-3.91731 -7.39337,-6.75235 -2.83763,-5.07054 -4.903375,-13.97562 -3.223641,-13.89658 0.592138,0.0279 4.118624,2.41849 7.836635,5.3125 5.411089,4.21186 7.284869,6.67324 9.390239,12.33494 2.72606,7.33085 6.29237,12.3019 8.82558,12.3019 2.41025,0 6.89916,-5.58264 6.89916,-8.58014 0,-4.63407 3.40989,-9.77027 9.28981,-13.99291 3.061,-2.19825 5.86161,-4.7686 6.22359,-5.71189 0.36197,-0.94329 1.56424,-1.71506 2.67169,-1.71506 1.61323,0 1.84406,0.80766 1.16103,4.0625 -1.48078,7.05637 -6.01544,13.93091 -10.92516,16.5625 -2.56531,1.375 -4.66572,2.92187 -4.66758,3.4375 -0.002,0.51562 3.65287,0.9375 8.12162,0.9375 l 8.125,0 0,-6.74673 c 0,-10.97965 10.26829,-28.60681 15.4957,-26.60086 1.37319,0.52695 2.55745,-1.11092 4.4386,-6.13875 1.41114,-3.77159 2.5657,-7.68009 2.5657,-8.68555 0,-1.00546 0.80012,-1.82811 1.77806,-1.82811 2.64609,0 5.009,8.3296 4.87569,17.1875 -0.0646,4.29687 0.42135,7.8125 1.08006,7.8125 0.6587,0 0.0319,1.48211 -1.39309,3.29357 -3.6128,4.59293 -3.23013,6.06667 0.84678,3.26122 7.98254,-5.49303 14.19559,-7.80479 20.97599,-7.80479 3.76008,0 6.83651,0.45215 6.83651,1.00479 0,1.74196 -7.88625,8.45538 -14.06166,11.97045 -5.50959,3.13607 -6.60978,3.31817 -15.29348,2.53127 -8.84641,-0.80163 -9.3191,-0.99812 -8.66557,-3.60202 0.38019,-1.51477 -0.12163,-4.67233 -1.11527,-7.0168 l -1.8065,-4.26269 -1.42538,3.75 c -0.78397,2.0625 -2.54065,5.79534 -3.90377,8.29519 -1.3631,2.49986 -2.4774,4.74986 -2.47622,5 0.001,0.25015 4.92306,0.59273 10.9375,0.76131 18.55949,0.5202 23.08222,3.28689 13.50113,8.25904 -6.83737,3.54827 -18.02698,4.18903 -25.21499,1.44391 -3.96124,-1.51281 -6.08519,-1.77505 -6.99638,-0.86386 -1.24335,1.24335 0.85152,2.46895 11.20809,6.55727 3.25218,1.28383 3.71864,4.30695 0.83526,5.4134 -4.06153,1.55857 -19.99676,0.79518 -22.47135,-1.07651 -3.25842,-2.46455 -5.26281,-2.37145 -5.87244,0.27275 -0.40507,1.75693 -0.83167,1.51088 -2.1673,-1.25 C 120.98719,205.28625 120.25758,205 113.75,205 c -6.35894,0 -7.2471,0.32566 -8.52256,3.125 -1.57906,3.46566 -3.69336,4.06976 -4.73583,1.35312 -0.586799,-1.52916 -1.260819,-1.52916 -4.920624,0 -4.920265,2.05583 -20.149742,2.30451 -23.4528,0.38297 z M 40.96612,183.43249 c -14.271889,-8.08898 -16.246687,-13.55145 -4.509364,-12.47331 4.50821,0.41409 9.047044,1.99451 14.011842,4.87889 4.038978,2.34653 7.599548,4.01045 7.912378,3.69762 0.312829,-0.31283 -0.321887,-1.92812 -1.410482,-3.58952 -1.088594,-1.66141 -1.623264,-3.37673 -1.188155,-3.81185 0.435109,-0.43509 0.866761,-4.6456 0.959226,-9.35665 0.166874,-8.50212 3.490608,-16.96745 5.682833,-14.4738 2.183053,2.48322 5.158548,20.3314 4.814832,28.88127 -0.350941,8.72957 -0.478242,9.06061 -3.48923,9.07336 -1.71875,0.007 -5.9375,0.28734 -9.375,0.62235 -5.379146,0.52425 -7.247494,0.0437 -13.40888,-3.44836 z m 135.63404,-14.63653 c 0.35296,-1.34972 -0.18102,-3.13689 -1.18662,-3.97146 C 171.38965,161.48497 170,156.38845 170,144.97042 c 0,-10.18133 0.23449,-11.36041 2.1875,-10.99958 3.44574,0.63663 8.29822,11.73048 8.19264,18.73016 -0.0889,5.88919 -0.0171,6.00636 3.20199,5.23475 1.81108,-0.4341 5.82412,-2.56766 8.91787,-4.74126 10.3356,-7.26153 17.0398,-9.03908 15.58419,-4.13199 -2.70123,9.1062 -12.38784,17.72414 -21.54939,19.17196 -2.93711,0.46415 -5.64219,1.33254 -6.01128,1.92973 -0.36908,0.5972 -1.54722,1.08581 -2.61808,1.08581 -1.31945,0 -1.74017,-0.79099 -1.30528,-2.45404 z m -132.256585,-0.0968 c -0.442182,-0.71546 -1.866382,-0.96365 -3.164889,-0.55151 -3.871406,1.22874 -12.90215,-3.64875 -17.666836,-9.54182 -5.165439,-6.38873 -7.762072,-11.02227 -6.746185,-12.03816 1.517253,-1.51725 10.847948,2.44961 16.766924,7.12828 8.283324,6.54759 10.958391,5.89694 11.783374,-2.86609 0.334226,-3.55016 1.064085,-7.54747 1.621908,-8.88291 0.75237,-1.80118 -0.33505,-1.34375 -4.211823,1.77171 -2.874327,2.3098 -5.226048,5.03649 -5.226048,6.05923 0,1.57493 -0.347218,1.5453 -2.268668,-0.19359 -1.247767,-1.12921 -4.079707,-2.68445 -6.293201,-3.45608 -5.605491,-1.95408 -14.726483,-13.44646 -15.823036,-19.9369 -0.474815,-2.81041 -0.503999,-5.46913 -0.06485,-5.90828 1.446787,-1.44679 9.674416,3.93016 12.598595,8.23348 2.932637,4.31576 8.796655,8.22368 10.635089,7.08746 0.563051,-0.34798 1.384415,-2.27488 1.82525,-4.28199 0.440836,-2.00711 1.609112,-4.31954 2.596171,-5.13872 0.987056,-0.81919 1.79465,-2.04404 1.79465,-2.72189 0,-1.974 -6.658771,0.14026 -8.950366,2.84187 -2.704642,3.18857 -4.370135,3.09037 -6.204029,-0.3658 -0.820794,-1.54687 -2.528085,-3.54752 -3.793979,-4.44588 -1.265895,-0.89836 -2.301626,-2.17604 -2.301626,-2.8393 0,-0.66326 -1.437101,-3.37753 -3.193558,-6.03171 -2.481944,-3.75047 -3.217202,-6.49346 -3.299673,-12.30994 -0.155749,-10.984406 2.39307,-13.716931 5.82811,-6.24817 1.027636,2.234375 3.003935,6.02247 4.391775,8.418 1.387841,2.39552 2.54206,5.20802 2.564932,6.25 0.02288,1.04197 1.21991,3.30075 2.660083,5.0195 2.536566,3.02722 2.662376,3.04876 4.020914,0.68836 0.771329,-1.34016 3.511792,-4.38556 6.089917,-6.76756 C 42.890625,105.2888 45,102.92319 45,102.41389 45,100.84986 34.462771,102.68365 33.001404,104.502 31.415626,106.47515 30,105.52401 30,102.4854 30,101.33154 28.919949,99.410035 27.599885,98.215395 24.170617,95.11195 22.127995,85.287627 23.173009,76.92362 c 0.92016,-7.364708 4.495405,-13.522276 6.560273,-11.29862 0.638407,0.6875 2.385407,7.128946 3.88222,14.314325 1.496815,7.18538 2.958653,13.301496 3.248527,13.591371 0.289875,0.289874 3.179241,-1.229697 6.420813,-3.376826 C 46.526415,88.006741 49.925924,86.25 50.839306,86.25 51.752687,86.25 52.5,85.6875 52.5,85 c 0,-0.6875 -1.16198,-1.25 -2.582176,-1.25 -1.420198,0 -3.742892,-0.621195 -5.161542,-1.380434 -2.190041,-1.172074 -3.022893,-0.841898 -5.517872,2.1875 L 36.2999,88.125 36.161344,80.625 C 35.755999,58.683797 35.874922,57.803083 40.129659,51.236907 42.352416,47.806609 44.920054,45 45.835519,45 c 2.35077,0 2.210196,15.638962 -0.20203,22.475941 -1.026581,2.909641 -1.554609,5.794928 -1.173394,6.411746 0.846348,1.369418 6.417156,0.187033 10.183426,-2.161396 C 56.166207,70.776831 59.513083,70 62.081021,70 64.64896,70 66.215625,69.55233 65.5625,69.005176 63.15609,66.989216 54.915097,64.858477 52.495104,65.626554 50.754404,66.179031 50,65.848393 50,64.533006 c 0,-1.037005 0.5625,-2.233107 1.25,-2.658006 0.6875,-0.424899 1.25,-3.6555 1.25,-7.179116 0,-8.026368 3.688327,-15.932683 9.772045,-20.947398 6.467061,-5.330697 8.157006,-4.987363 7.071667,1.436701 -1.231891,7.291505 -4.034621,13.61559 -7.806355,17.614274 -1.776556,1.883454 -2.851611,3.802951 -2.389012,4.265552 1.685611,1.685609 7.04657,-2.03839 7.860056,-5.460002 1.721173,-7.239436 6.335263,-9.300811 24.6794,-11.025685 7.286738,-0.685162 8.404419,-0.534318 7.5,1.012204 -2.235027,3.821817 -13.015167,11.975901 -16.9484,12.819748 -6.582963,1.412327 -6.56602,1.920926 0.192579,5.780922 3.522184,2.011603 6.111201,4.131169 5.753373,4.710148 -0.357829,0.578978 -4.308749,1.444442 -8.779823,1.923253 -8.702999,0.932013 -10.477107,1.978957 -7.516767,4.435822 1.023681,0.849578 1.861237,1.963002 1.861237,2.474274 0,0.511272 -3.9375,2.690183 -8.75,4.842025 C 55.992321,82.605379 53.894975,85 59.375,85 c 1.71875,0 3.11547,0.421875 3.103821,0.9375 -0.01163,0.515625 -2.542898,3.625864 -5.625,6.911641 C 50.683227,99.427509 50.384701,100 53.125,100 c 2.909229,0 2.25395,2.62112 -2.5,10 -2.40625,3.73488 -4.375,7.23154 -4.375,7.77035 0,1.45364 1.792501,1.18715 3.5,-0.52035 0.995994,-0.99599 1.918329,-1.08167 2.745013,-0.25499 0.826683,0.82669 0.406679,3.63023 -1.25,8.34377 -3.482558,9.90851 -3.105547,13.52175 0.984153,9.43205 2.271728,-2.27172 3.1912,-0.39446 3.777618,7.71268 0.701475,9.6978 -0.37217,14.98246 -4.185493,20.60171 -1.711928,2.52267 -2.788857,5.11049 -2.393173,5.75073 C 49.823801,169.47617 49.022542,170 47.647542,170 c -1.375,0 -2.861784,-0.58538 -3.303967,-1.30085 z M 185.625,155 c 0.4249,-0.6875 1.0206,-1.25 1.32377,-1.25 0.30318,0 0.55123,0.5625 0.55123,1.25 0,0.6875 -0.5957,1.25 -1.32378,1.25 -0.72807,0 -0.97612,-0.5625 -0.55122,-1.25 z m 3.125,-5.2177 c 0,-0.7658 -2.00165,-3.13947 -4.44811,-5.27483 -3.37353,-2.94454 -5.33638,-6.43475 -8.125,-14.44741 -2.02229,-5.81071 -3.67689,-11.29509 -3.67689,-12.1875 0,-2.44249 2.61084,-1.95422 5.85694,1.09533 4.25226,3.99479 3.52601,0.9739 -1.59549,-6.63662 -7.07299,-10.51042 -7.24159,-10.98421 -4.29655,-12.07366 2.38596,-0.88262 2.11558,-1.448696 -3.69529,-7.736389 C 165.32132,88.789973 162.5,85.571278 162.5,85.368566 162.5,85.165855 163.87305,85 165.55122,85 c 3.79114,0 5.40347,-2.253129 2.3405,-3.270727 -2.14365,-0.712183 -15.40811,-6.827319 -16.55047,-7.630043 -0.29356,-0.206284 0.55019,-1.175131 1.875,-2.152995 3.57674,-2.640046 1.05762,-4.299159 -7.95848,-5.241528 -7.69223,-0.803998 -10.4284,-3.145148 -5.57027,-4.766127 1.20312,-0.40144 3.59375,-1.814651 5.3125,-3.140471 l 3.125,-2.410582 -5,-2.057287 c -2.75,-1.131509 -6.6875,-3.624645 -8.75,-5.540305 -2.0625,-1.915659 -5.29688,-3.973948 -7.1875,-4.573975 -7.3083,-2.319436 -2.9341,-4.991325 8.70631,-5.318066 5.94783,-0.166954 16.11985,2.87786 19.43758,5.818292 1.21352,1.075513 2.6551,3.688728 3.20351,5.807145 0.56299,2.174703 2.32352,4.515924 4.04361,5.377334 4.48719,2.247157 4.52703,-0.221223 0.0853,-5.280159 -3.46167,-3.942627 -4.57807,-6.707882 -6.9372,-17.183006 -1.00889,-4.479712 1.87084,-4.613373 7.46501,-0.346486 5.22928,3.988558 9.22994,12.33936 9.79844,20.452787 0.24749,3.532006 1.37645,7.835813 2.50881,9.564014 1.57395,2.402195 1.66933,3.142185 0.40499,3.142185 -0.9096,0 -2.22071,-0.566895 -2.91357,-1.259766 -0.84637,-0.846356 -2.97527,-0.538702 -6.48729,0.9375 C 160.35885,68.51026 159.78891,70 164.94499,70 c 2.03225,0 6.557,1.6875 10.05501,3.75 6.9691,4.109129 8.52475,4.615904 6.43316,2.095693 -1.70003,-2.04842 -4.36701,-25.00954 -3.29662,-28.382035 1.16736,-3.678044 2.59653,-3.040427 6.76493,3.018144 4.79919,6.975372 6.37642,13.89123 4.93169,21.624483 -0.61597,3.297168 -0.8344,6.738996 -0.48539,7.64851 1.12489,2.931422 2.98524,0.337267 3.83848,-5.352557 0.94396,-6.294778 3.27194,-10.193658 5.32784,-8.923041 3.86736,2.390159 5.4012,22.634592 2.14197,28.270803 -2.41343,4.173587 -4.03006,7.59615 -5.01865,10.625 -0.72787,2.23011 -0.97501,2.286 -2.28918,0.51771 -0.85348,-1.14839 -4.27212,-2.31129 -8.12653,-2.76436 l -6.65331,-0.78207 6.34081,5.95306 c 3.89402,3.65591 6.3408,7.01376 6.3408,8.70186 0,3.99467 2.1652,3.36873 3.10206,-0.89678 0.44039,-2.00506 1.61009,-3.95616 2.59933,-4.33576 0.98923,-0.37961 1.79861,-1.64674 1.79861,-2.81586 0,-1.16911 1.76354,-5.26489 3.91897,-9.101729 6.28995,-11.196606 8.58103,-11.284675 8.58103,-0.329853 0,7.415402 -3.66311,16.448182 -9.0716,22.369422 -1.38938,1.5211 -3.15103,4.00793 -3.91478,5.52629 -1.91446,3.80602 -3.6898,4.09704 -5.1527,0.84465 -1.13402,-2.52125 -7.80923,-5.47993 -9.20791,-4.08126 -0.3287,0.32871 0.6274,2.77732 2.12468,5.44136 1.49727,2.66404 2.72231,6.03274 2.72231,7.48601 0,1.45327 0.34609,2.64231 0.76908,2.64231 0.423,0 4.50112,-3.90681 9.0625,-8.6818 8.60259,-9.00545 15.21982,-12.51522 15.11356,-8.01621 C 213.53806,128.70242 203.3849,145 199.39885,145 c -0.85249,0 -3.59723,1.3893 -6.09941,3.08732 -2.50219,1.69804 -4.54944,2.46078 -4.54944,1.69498 z m 1.73029,-56.3448 c -0.84699,-5.629675 -6.13954,-12.700148 -8.44162,-11.277386 -0.73081,0.451671 -3.31661,1.186502 -5.74621,1.632958 l -4.41746,0.811739 5.80264,2.595365 c 3.19145,1.42745 7.4102,4.610101 9.375,7.072558 1.9648,2.462456 3.71963,4.477209 3.89963,4.47723 0.18,2e-5 -0.0324,-2.390589 -0.47198,-5.312464 z"
         id="path3350"
         inkscape:connector-curvature="0" />
      <path
         style="fill:#00b200;fill-opacity:1"
         d="m 73.4375,209.89987 c -1.203125,-0.70075 -2.1875,-1.7327 -2.1875,-2.2932 0,-0.5605 4.078125,-2.76542 9.0625,-4.89981 11.979835,-5.12997 25.3704,-5.91801 28.19797,-1.65947 1.70184,2.56312 1.63068,2.71043 -1.16127,2.40402 -2.41409,-0.26494 -3.04869,0.32095 -3.36973,3.11109 -0.39127,3.40051 -2.11705,4.64977 -2.95415,2.13846 -0.28058,-0.84175 -2.352703,-0.62174 -5.886325,0.625 -6.157806,2.1726 -18.400827,2.49638 -21.701495,0.57391 z m 56.47339,-1.12037 c -2.45527,-1.29801 -5.19151,-3.23646 -6.08053,-4.30768 -1.04239,-1.25599 -2.67539,-1.68187 -4.59839,-1.19923 -3.35272,0.84148 -3.94704,-0.91554 -1.10697,-3.27259 1.03125,-0.85586 1.875,-2.85686 1.875,-4.44669 0,-6.29269 2.09764,-9.2341 13.4375,-18.84276 l 5.3125,-4.50145 0,3.16681 c 0,6.47739 -4.49126,14.15473 -10.10993,17.28184 -8.02333,4.46545 -7.73113,6.09225 1.09428,6.09225 5.62782,0 9.61569,0.9598 16.35416,3.93611 4.90131,2.16488 8.91149,4.39508 8.91149,4.95603 0,4.11451 -17.92091,4.92692 -25.08911,1.13736 z M 60,200.50822 c -10.819003,-3.91148 -14.608815,-7.22204 -10.291426,-8.99 3.01265,-1.23367 25.291652,-1.04758 28.77458,0.24034 2.508543,0.92761 2.22995,0.14653 -2.277575,-6.38559 -5.312764,-7.69902 -7.23596,-14.84743 -5.671514,-21.08068 l 0.842984,-3.35872 2.912237,2.7359 c 4.252754,3.99525 10.375009,18.43909 11.02817,26.01803 0.512074,5.94185 0.32623,6.5625 -1.965021,6.5625 -1.391821,0 -3.580329,0.95001 -4.863351,2.11112 C 76.146762,200.4809 63.868311,201.90676 60,200.50822 Z m 87.58009,-1.56866 c -8.90733,-3.73684 -9.75709,-9.67902 -3.23595,-22.62826 2.38926,-4.74446 5.62364,-9.52295 7.1875,-10.61888 2.66693,-1.86893 2.91602,-1.82996 4.01455,0.62813 1.54481,3.45674 -0.77767,12.06754 -4.88876,18.12559 -1.73659,2.559 -3.15743,5.07196 -3.15743,5.58435 0,0.5124 3.5968,0.64291 7.9929,0.29003 11.70334,-0.93943 22.25632,0.5872 21.7631,3.14832 -1.21446,6.30618 -19.60376,9.69623 -29.67591,5.47072 z M 99.375,194.07641 c -7.190515,-3.65927 -9.986116,-7.4919 -12.319179,-16.88891 -1.112449,-4.48068 0.305749,-4.36101 7.407201,0.625 C 100.29936,181.91026 105,188.99791 105,193.7002 c 0,2.93966 -0.51952,2.97441 -5.625,0.37621 z M 46.25,185.66025 c -1.71875,-0.9916 -4.53125,-2.42405 -6.25,-3.18324 -3.615215,-1.59687 -11.25,-8.65682 -11.25,-10.40297 0,-0.70088 3.248246,-0.88223 7.945414,-0.4436 7.501316,0.70048 14.432298,3.54614 19.87475,8.15996 2.880972,2.44234 4.404165,0.80681 2.334719,-2.5069 -2.007283,-3.21418 -2.189547,-20.27191 -0.269239,-25.1976 0.758856,-1.94651 2.065119,-3.31065 2.902807,-3.03141 2.482778,0.82758 6.175779,17.04478 5.481369,24.07051 -1.137595,11.50965 -0.912181,11.13343 -7.64482,12.75954 -8.105084,1.95758 -9.380894,1.93578 -13.125,-0.22429 z m 125,0.98322 c -6.47805,-1.06978 -6.81284,-1.50823 -3.68985,-4.8325 4.94696,-5.2658 13.79617,-9.50343 21.33089,-10.21475 8.34652,-0.78796 9.76576,0.5917 5.12701,4.984 -3.58926,3.39858 -16.79784,11.03777 -18.58656,10.74955 -0.58107,-0.0936 -2.46274,-0.40246 -4.18149,-0.6863 z m -10.44593,-3.53438 c 0.39909,-1.04002 -0.031,-2.80267 -0.9559,-3.91703 -2.62657,-3.16482 -1.96637,-15.02296 1.32949,-23.87956 1.59903,-4.29688 3.10565,-7.8125 3.34805,-7.8125 0.2424,0 1.34401,2.10937 2.44803,4.6875 2.46701,5.76105 1.78032,23.041 -1.04673,26.3403 -0.98836,1.15346 -2.14611,3.08157 -2.57279,4.2847 -0.42666,1.20312 -1.33826,2.1875 -2.02576,2.1875 -0.6875,0 -0.92347,-0.85091 -0.52439,-1.89091 z M 40,167.501 c -3.78125,-0.38674 -8.08579,-1.37936 -9.565645,-2.20584 -5.131284,-2.86575 -14.469572,-16.67661 -12.564265,-18.58192 2.157416,-2.15741 19.726374,8.58258 25.56741,15.62951 1.363422,1.6449 1.585651,1.57592 1.744209,-0.54134 0.09994,-1.33452 0.04753,-4.32841 -0.116488,-6.65309 -0.370539,-5.25206 2.188219,-15.0436 4.693583,-17.96082 3.33416,-3.88227 5.014043,-2.56576 5.913651,4.63445 1.104857,8.84299 -1.224941,18.57271 -5.503944,22.98562 -3.016031,3.11043 -3.872736,3.33734 -10.168512,2.69343 z m 137.5,-0.58257 c 0,-0.90803 -0.82597,-1.96792 -1.8355,-2.35531 C 172.43679,163.32454 170,155.1437 170,145.54611 c 0,-5.03171 0.51174,-9.46484 1.1372,-9.85139 4.42062,-2.73211 9.25007,8.35456 8.99724,20.65445 l -0.17864,8.69095 4.93659,-4.79081 c 7.0399,-6.83199 13.88532,-11.31735 18.76012,-12.29231 4.11532,-0.82306 4.19462,-0.76024 3.33975,2.6458 -1.1948,4.76048 -6.35528,11.27444 -11.19315,14.12885 C 190.6987,167.74096 177.5,169.31822 177.5,166.91843 Z M 30.002509,146.21652 C 23.16088,144.60868 14.84912,134.00496 13.09305,124.64431 c -0.942801,-5.02557 -0.593245,-5.34883 3.551626,-3.28447 2.934932,1.46175 17.105324,16.11705 17.105324,17.69067 0,0.52222 0.489398,0.94949 1.087549,0.94949 0.598151,0 1.803678,-2.55777 2.678948,-5.68392 0.87527,-3.12616 2.700001,-7.09328 4.054957,-8.81583 1.354956,-1.72255 2.21357,-3.38189 1.90803,-3.68743 C 42.485897,120.81923 31.25,125.19528 31.25,126.57584 c 0,1.91134 -6.837594,-4.94228 -11.548758,-11.57584 -3.549028,-4.99721 -3.999424,-6.58867 -4.035563,-14.2595 -0.02513,-5.333149 0.499217,-8.818805 1.371385,-9.116525 2.684778,-0.916467 12.79887,19.581175 12.922128,26.188525 0.06886,3.69162 2.361375,2.43962 4.998668,-2.7299 1.379767,-2.70457 3.692755,-5.74676 5.139971,-6.76043 1.447217,-1.01367 3.434383,-2.9896 4.415925,-4.39094 1.739709,-2.48379 1.606393,-2.53896 -5.297249,-2.19211 -6.410355,0.32207 -7.409979,0.0125 -10.542108,-3.264999 -6.268065,-6.55893 -7.623552,-20.747597 -2.869489,-30.036621 2.237367,-4.371621 3.940641,-4.371621 4.90854,0 0.418594,1.890625 1.270354,5.125244 1.8928,7.188041 0.622445,2.062799 1.220876,8.442013 1.329846,14.176032 l 0.198127,10.425487 4.803401,-5.619498 C 43.742751,88.986042 51.795709,85 58.347674,85 c 4.301157,0 3.516174,2.465457 -2.774059,8.712693 -5.172985,5.137625 -5.422669,5.662965 -3.099883,6.522217 C 53.86318,100.7489 55,101.66216 55,102.26436 c 0,0.60222 -2.332704,4.56889 -5.183785,8.81483 -2.851083,4.24595 -4.810457,8.09323 -4.354167,8.54953 0.456291,0.45628 1.495243,0.16399 2.308786,-0.64955 1.863956,-1.86396 4.729166,-1.92299 4.729166,-0.0974 0,0.75995 -1.445741,6.12158 -3.212759,11.91472 -2.884798,9.45778 -3.711663,10.84793 -8.10016,13.61827 -2.68807,1.6969 -5.320455,3.02771 -5.849741,2.95733 -0.529287,-0.0704 -2.929961,-0.59036 -5.334831,-1.15553 z M 185.82296,145.3693 c -3.5237,-1.85063 -9.53529,-12.45058 -9.56075,-16.85803 -0.006,-1.16255 -0.50755,-2.41986 -1.11296,-2.79403 -1.60741,-0.99343 -2.50761,-6.90723 -1.17664,-7.72982 3.7075,-2.29137 13.84765,10.81328 15.33285,19.81547 l 0.87805,5.32211 2.40544,-4.62381 c 1.32299,-2.5431 3.11314,-5.07435 3.97813,-5.625 0.86498,-0.55066 3.09807,-3.0492 4.96241,-5.55233 1.86435,-2.50312 5.16811,-5.17108 7.3417,-5.9288 l 3.95199,-1.37767 -0.62268,5.52428 c -0.88538,7.85504 -8.46955,17.42716 -15.86067,20.01804 -6.37628,2.23513 -5.88143,2.24409 -10.51687,-0.19041 z m 8.03556,-19.61354 c -0.79617,-0.95933 -3.38811,-2.10828 -5.75985,-2.55323 -4.48092,-0.84062 -5.40635,-1.8115 -12.55786,-13.17475 -4.78725,-7.60661 -4.88416,-9.61679 -0.43192,-8.96 4.45155,0.65668 12.64108,8.50941 15.70505,15.05915 2.27492,4.86304 2.81975,5.36315 3.5385,3.24807 2.32139,-6.8312 10.09968,-23.714715 12.01207,-26.07331 2.74544,-3.386038 3.76869,-2.344455 4.55563,4.637237 0.75127,6.665233 -3.48272,17.033293 -9.54739,23.379393 -2.13001,2.22886 -3.87275,4.53154 -3.87275,5.11707 0,1.64064 -2.03031,1.26171 -3.64148,-0.67963 z M 191.87286,94.6875 c -0.90704,-9.780556 2.38788,-28.399411 5.19109,-29.333815 0.78762,-0.262544 2.40004,2.05728 3.58312,5.155164 3.24302,8.491685 2.17802,19.831634 -2.5645,27.306325 -2.03916,3.213946 -4.08146,5.864086 -4.53842,5.889186 -0.45696,0.0251 -1.20905,-4.032485 -1.67129,-9.01686 z m -11.11972,5.98182 C 176.09165,98.993468 163.75,88.216545 163.75,85.821924 c 0,-1.841633 10.66644,-0.118613 15.8612,2.562162 2.62009,1.35211 6.04224,4.33977 7.60476,6.639245 4.59358,6.760059 2.27359,8.786829 -6.46282,5.645989 z M 36.842311,77.271316 c -1.399157,-9.06563 -1.088365,-17.752601 0.760011,-21.243081 2.821068,-5.327319 7.662526,-11.012093 8.786749,-10.317284 2.329742,1.439859 1.118893,15.720693 -2.147612,25.329084 -4.534163,13.337193 -6.099048,14.65508 -7.399148,6.231281 z m 8.756284,4.73895 C 42.561963,79.789825 44.161476,77.631035 52.152489,73.164772 60.402586,68.553705 72.5,69.063741 72.5,74.02264 72.5,75.603067 54.551352,83.75 51.069485,83.75 c -1.700414,0 -4.162314,-0.78288 -5.47089,-1.739734 z M 162.5,79.29708 c -4.46875,-2.266828 -8.6875,-4.360079 -9.375,-4.651669 -0.69656,-0.295434 -0.2576,-1.649509 0.99146,-3.058342 2.64425,-2.982485 1.97656,-3.412946 -7.39415,-4.767025 -9.475,-1.369149 -10.05956,-2.183759 -4.30149,-5.994278 6.01474,-3.980361 6.376,-5.628902 1.44945,-6.614212 -1.99635,-0.39927 -5.6389,-2.621052 -8.09455,-4.937292 -2.45565,-2.316241 -5.90927,-4.573881 -7.67471,-5.016978 -6.56006,-1.64647 -1.11952,-5.126694 8.4146,-5.382684 6.11519,-0.164192 17.97116,4.345066 20.34859,7.739301 1.03719,1.4808 1.8858,3.941559 1.8858,5.468351 0,2.785247 4.16514,6.667748 7.15314,6.667748 2.45408,0 1.89636,-3.091669 -1.03615,-5.743765 -1.44815,-1.30968 -3.70868,-4.48881 -5.02337,-7.064736 C 157.17502,40.712829 155.29093,30 157.03992,30 c 2.98354,0 10.14133,6.510497 12.53652,11.40281 2.8626,5.847031 4.66416,22.34719 2.43996,22.34719 -0.6749,0 -3.79531,1.265625 -6.93425,2.8125 l -5.70715,2.8125 5,0.625 c 5.51116,0.688896 16.23841,6.538113 17.36239,9.467141 0.46731,1.217792 -0.3872,2.281895 -2.46764,3.072875 -4.84636,1.842582 -7.91365,1.249429 -16.76975,-3.242936 z m 21.77985,-0.23458 c -3.95453,-9.251301 -5.50301,-16.07287 -5.51633,-24.301229 -0.007,-4.600051 0.45725,-8.654685 1.03265,-9.010297 1.33225,-0.823378 8.65256,9.488441 9.70087,13.665214 1.05859,4.217791 -0.67119,24.333812 -2.09248,24.333812 -0.61656,0 -2.02267,-2.109375 -3.12471,-4.6875 z M 62.874037,67.367471 C 60.673509,66.731089 58.530936,65.65682 58.112766,64.980206 57.694596,64.303593 56.370306,63.75 55.169897,63.75 c -1.881318,0 -2.154742,-1.165923 -1.981016,-8.447384 0.242268,-10.154294 3.749823,-17.984796 9.67404,-21.59698 5.987864,-3.650989 6.86145,-3.228797 5.911325,2.856864 -0.985001,6.309056 -4.129661,12.800381 -8.428496,17.398425 -4.203128,4.495672 -2.75431,6.551108 2.763116,3.92003 3.490348,-1.664431 4.332445,-2.826964 4.640175,-6.405855 0.310728,-3.613753 1.180513,-4.788409 5.012983,-6.770099 4.765403,-2.46409 23.343191,-5.051606 25.091267,-3.494715 C 99.109832,42.3294 86.957302,53.75 84.509926,53.75 c -1.015947,0 -3.422029,0.598757 -5.346847,1.330572 l -3.49967,1.330572 5.947113,3.270475 c 3.270913,1.798761 5.748443,3.866485 5.505624,4.594942 -0.242819,0.728456 -4.333912,1.998419 -9.091317,2.822138 -10.169294,1.760756 -10.001963,1.757787 -15.150792,0.268772 z"
         id="path3348"
         inkscape:connector-curvature="0" />
      <path
         style="fill:#00e600;fill-opacity:1"
         d="m 76.875,210.34153 c -5.959943,-0.84853 -6.302681,-2.44793 -1.086222,-5.06889 8.954548,-4.49914 17.261334,-6.59255 24.054243,-6.06195 5.736879,0.4481 10.783509,2.03931 6.467829,2.03931 -0.8832,0 -3.49282,1.65681 -5.79916,3.68181 -6.177735,5.42413 -12.834475,6.94764 -23.63669,5.40971 z m 56.44399,-0.91484 c -2.64332,-0.94247 -6.05456,-2.88653 -7.58056,-4.32014 -1.52601,-1.4336 -3.98627,-2.60655 -5.46726,-2.60655 -1.64212,0 -2.45767,-0.60963 -2.0903,-1.5625 0.37342,-0.96855 3.56585,-1.67989 8.39827,-1.87131 6.29235,-0.24927 9.67395,0.44472 17.5339,3.59837 5.35592,2.14895 9.53297,4.5224 9.28232,5.27434 -1.08549,3.25649 -12.70145,4.11731 -20.07637,1.48779 z M 54.0625,197.53366 c -9.56971,-4.34385 -6.590299,-6.28366 9.651255,-6.28366 9.190741,0 11.496736,0.41282 13.960265,2.49916 2.895913,2.45254 2.905701,2.53418 0.524568,4.375 -3.5847,2.7713 -17.478763,2.43138 -24.136088,-0.5905 z m 91.88137,0.15878 c -4.47956,-1.97842 -4.6814,-2.32869 -4.6875,-8.13465 -0.005,-4.55035 1.11389,-8.19908 4.47454,-14.5944 4.58249,-8.72049 7.54484,-11.40375 8.8461,-8.0127 1.71493,4.46902 -1.32866,12.6691 -8.64886,23.30186 -2.22694,3.23467 -0.78595,3.59152 6.00517,1.48715 4.26245,-1.3208 8.62103,-1.68565 13.98847,-1.17095 13.26937,1.27244 14.60342,2.74375 6.18356,6.81974 -6.63974,3.21425 -19.24046,3.36063 -26.16147,0.30395 z M 82.351974,195.3125 c -0.08141,-0.51563 -0.05425,-1.44086 0.06036,-2.0561 0.114613,-0.61523 -1.167672,-2.58398 -2.849527,-4.375 -6.08946,-6.48471 -8.303223,-11.62683 -8.308139,-19.29806 -0.0063,-9.77513 1.768404,-8.89835 8.402607,4.15133 4.2042,8.26979 5.260992,11.64564 5.152538,16.45946 -0.07504,3.33072 -0.625446,6.05587 -1.223126,6.05587 -0.59768,0 -1.153303,-0.42188 -1.234718,-0.9375 z M 121.25,193.0445 c 0,-4.49899 2.88192,-8.2854 10.8306,-14.22978 l 6.97924,-5.21938 -0.85624,3.51482 c -1.83154,7.51849 -5.13331,12.1993 -11.0161,15.61715 l -5.9375,3.44965 0,-3.13246 z m -23.228663,-0.49285 c -5.105328,-2.27249 -8.013362,-6.4036 -9.935455,-14.11415 -1.082802,-4.3437 -0.422527,-4.30524 6.374774,0.37144 5.296036,3.64376 7.950574,7.25281 9.840224,13.37856 1.02516,3.3233 0.44411,3.357 -6.279543,0.36415 z M 42.5,183.44411 c -14.219166,-8.44626 -16.349933,-12.51295 -5.9375,-11.33206 6.777826,0.76869 15.531399,4.62499 20.87074,9.19441 2.526085,2.16183 2.743592,2.81631 1.25,3.76125 -3.086609,1.95279 -11.600409,1.09863 -16.18324,-1.6236 z m 125,1.51135 c -1.5941,-1.06805 -1.40861,-1.64665 1.23807,-3.86211 7.55497,-6.32404 24.76159,-12.03223 26.71963,-8.86406 1.03274,1.67102 -5.20664,7.75041 -10.05972,9.80177 -2.18737,0.92459 -4.32994,2.25209 -4.76128,2.95 -1.00983,1.63393 -10.68795,1.61508 -13.1367,-0.0256 z M 61.734075,182.8125 c -0.378104,-1.20313 -1.233929,-3.54484 -1.901833,-5.20381 C 56.527986,169.40143 57.592409,150 61.34694,150 c 0.634183,0 1.15306,0.19127 1.15306,0.42505 0,0.23377 1.095546,4.70859 2.434547,9.94404 2.089991,8.17177 2.235675,10.58836 1.029368,17.07495 -1.4042,7.5507 -2.93389,9.49216 -4.22984,5.36846 z m 98.234985,-4.76888 c -2.10777,-5.54385 -1.3699,-14.74983 1.80491,-22.51878 l 3.02398,-7.39984 1.58395,3.75 c 2.52509,5.97811 2.08586,20.49572 -0.7658,25.3125 -2.90156,4.90105 -4.04335,5.07415 -5.64704,0.85612 z M 178.75,167.5 c 0,-0.6875 0.5957,-1.25 1.32377,-1.25 0.72808,0 0.97613,0.5625 0.55123,1.25 -0.4249,0.6875 -1.0206,1.25 -1.32378,1.25 -0.30317,0 -0.55122,-0.5625 -0.55122,-1.25 z M 33.101759,165.75804 C 26.607355,162.92825 14.859696,147.5 19.199387,147.5 c 7.439194,0 26.973058,15.91089 23.633658,19.25029 -1.22311,1.22311 -5.693018,0.76733 -9.731286,-0.99225 z M 182.5,165.09665 c 0,-4.38551 17.86403,-17.59665 23.79409,-17.59665 4.4372,0 -6.23453,14.75055 -12.99147,17.95694 -6.0304,2.86161 -10.80262,2.70245 -10.80262,-0.36029 z M 46.997208,164.08054 c -1.485074,-1.48508 -0.704924,-17.62643 1.055573,-21.83989 1.967031,-4.70777 4.826791,-7.69441 6.12473,-6.39647 1.623063,1.62306 0.801354,17.90804 -1.149638,22.78406 -1.890745,4.72543 -4.446701,7.03627 -6.030665,5.4523 z m 126.246652,-3.85068 c -1.87681,-3.62936 -2.67077,-10.6738 -2.24042,-19.87813 0.3264,-6.98069 2.8521,-6.04647 6.48513,2.39877 2.2374,5.20097 2.5685,7.62265 1.86773,13.66057 -0.95658,8.24199 -3.12466,9.59652 -6.11244,3.81879 z M 34.336195,146.18721 C 33.93264,145.53425 32.046572,145 30.144935,145 c -3.66386,0 -5.467641,-1.45582 -11.39174,-9.1942 -3.406104,-4.44923 -6.128537,-12.59712 -4.689776,-14.03589 2.438752,-2.43875 15.418301,10.91641 18.508413,19.04403 1.781428,4.68551 3.395862,3.44214 4.892713,-3.76816 0.765485,-3.68731 2.686895,-8.45963 4.269801,-10.60513 3.094179,-4.19393 9.32575,-9.54722 10.151886,-8.72108 0.624824,0.62482 -4.787587,18.35908 -6.685295,21.90497 -1.743871,3.25846 -9.87238,8.16835 -10.864742,6.56267 z M 190,146.90276 c 0,-0.24502 1.06214,-2.88276 2.36031,-5.86163 4.37556,-10.04047 20.13969,-24.30227 20.13969,-18.22038 0,8.17158 -8.73544,19.83745 -16.95033,22.63654 -3.05232,1.04003 -5.54967,1.6905 -5.54967,1.44547 z m -6.52064,-4.09026 c -1.04946,-1.20313 -2.50887,-3.35257 -3.24314,-4.77655 -2.42787,-4.7085 -6.69595,-18.03176 -6.22706,-19.43846 0.6191,-1.85729 7.70451,4.21012 10.83883,9.28155 3.33646,5.3985 4.96722,17.12096 2.38178,17.12096 -1.01327,0 -2.70095,-0.98438 -3.75041,-2.1875 z m 10.6892,-17.60678 c -0.7325,-1.17292 -2.86409,-2.25939 -4.73685,-2.41439 -4.63244,-0.38339 -4.75087,-0.48626 -11.22735,-9.75094 -8.3079,-11.88456 -7.23677,-15.35543 2.54559,-8.24879 6.3813,4.63584 8.35859,7.13015 9.88699,12.47227 1.3613,4.75806 4.36306,6.91833 4.36306,3.13996 0,-2.6476 7.27289,-19.8383 10.4343,-24.663215 3.2811,-5.007583 4.56676,-3.893303 4.55398,3.946885 -0.009,5.69373 -0.79488,8.55306 -3.7799,13.75808 -2.0725,3.61382 -4.87973,7.26475 -6.23828,8.11318 -1.35855,0.84844 -2.4701,2.21785 -2.4701,3.04315 0,2.51511 -1.92044,2.86318 -3.33144,0.60381 z M 28.75,124.45923 c 0,-0.98492 1.112597,-2.14389 2.47244,-2.57548 1.480684,-0.46995 3.054719,-2.7282 3.924057,-5.6298 1.003902,-3.35072 3.377498,-6.4117 7.695839,-9.92451 6.861844,-5.58185 11.618501,-6.78829 10.292523,-2.6105 -1.183247,3.72808 -10.669698,17.53106 -12.048668,17.53106 -0.663826,0 -3.535438,1.125 -6.381361,2.5 -6.170488,2.98125 -5.95483,2.95557 -5.95483,0.70923 z m -8.392517,-9.26779 c -2.071413,-3.3322 -4.149827,-8.61672 -4.618697,-11.74337 -0.840317,-5.603636 0.01963,-12.215195 1.584224,-12.18006 2.611698,0.05865 11.38349,20.93971 11.41346,27.16949 0.02409,5.00576 -4.28777,3.33533 -8.378987,-3.24606 z M 193.10921,97.060635 C 191.57039,87.038306 194.47022,66.25 197.4071,66.25 c 2.05523,0 4.15801,7.675943 4.2311,15.445117 0.0735,7.81721 -2.11488,15.804883 -4.33013,15.804883 -0.62625,0 -1.61768,1.265625 -2.20318,2.8125 -0.90642,2.39469 -1.20288,1.91161 -1.99568,-3.251865 z M 36.25,100.68382 c 0,-2.472509 3.644774,-7.387146 7.417253,-10.001476 4.522887,-3.134363 16.342696,-5.788259 16.321905,-3.664749 -0.02097,2.142576 -9.244849,10.821263 -13.303291,12.516988 C 42.775373,101.16849 36.25,101.88709 36.25,100.68382 Z m 141.63396,-1.673715 c -2.19506,-1.174308 -6.03577,-4.52573 -8.5349,-7.447605 l -4.54387,-5.3125 4.15991,0.02745 c 8.17749,0.05397 19.7849,7.836942 19.7849,13.266124 0,2.376886 -5.97413,2.083586 -10.86604,-0.533469 z M 29.138251,98.13125 C 25.0671,95.279705 23.314806,88.365988 24.14709,78.43851 24.812509,70.501397 26.404155,66.25 28.710249,66.25 c 1.348658,0 5.052975,18.026777 4.951895,24.098026 -0.04832,2.902335 -0.479157,6.265907 -0.95741,7.4746 -0.788437,1.992623 -1.121135,2.021413 -3.566483,0.308624 z M 185.47645,80.3125 c -0.45164,-1.890625 -1.2382,-4 -1.74791,-4.6875 -3.5424,-4.778035 -6.5767,-26.989742 -3.91199,-28.636619 0.5866,-0.362538 2.88923,1.87888 5.11695,4.980931 3.32535,4.630471 4.05071,6.805044 4.05211,12.147892 0.005,17.555072 -1.51212,24.555022 -3.50916,16.195296 z M 37.585245,79.0625 C 36.328281,63.267313 36.92024,58.089865 40.656341,52.20183 c 4.074248,-6.420951 5.097284,-7.054815 6.075509,-3.76433 1.49228,5.019629 -5.413144,33.991994 -8.114951,34.047051 -0.416955,0.0085 -0.8812,-1.531426 -1.031654,-3.422051 z m 8.005914,2.132744 c -1.145049,-1.852729 1.583892,-4.728658 7.210987,-7.599388 5.309052,-2.708475 17.240638,-2.892397 18.101045,-0.279022 0.261084,0.793008 -3.211827,3.183633 -7.717582,5.3125 -8.194726,3.871822 -16.076916,5.021332 -17.59445,2.56591 z M 162.98126,78.877171 c -8.57239,-4.003476 -9.99204,-5.439677 -7.45677,-7.543751 4.2394,-3.518391 26.8806,4.534514 25.4015,9.034676 -0.97389,2.963026 -10.01648,2.21173 -17.94473,-1.490925 z M 147.5,66.327615 l -9.375,-2.096271 5.93776,-3.484605 c 3.26578,-1.916533 5.64856,-3.952548 5.2951,-4.524478 -0.35347,-0.57193 -2.74422,-1.710133 -5.31277,-2.529341 -2.56855,-0.819207 -6.35759,-3.075744 -8.42009,-5.014526 -2.0625,-1.938783 -5.41844,-4.154356 -7.45765,-4.923497 -2.94724,-1.11163 -3.33178,-1.636157 -1.875,-2.557526 3.21666,-2.034432 17.68119,-1.325086 23.08265,1.131984 6.40657,2.914285 8.372,5.362878 8.38742,10.44934 0.0113,3.573314 0.71306,4.456316 5.5,6.916079 l 5.48758,2.819772 0,-3.014006 c 0,-1.657702 -1.95946,-5.359329 -4.35436,-8.225835 -3.60698,-4.31727 -8.14564,-14.904748 -8.14564,-19.001582 0,-4.099208 9.35185,2.808698 12.71836,9.394646 3.11446,6.092849 4.2867,20.832231 1.65681,20.832231 -0.86298,0 -2.21761,0.781459 -3.01028,1.736576 -0.79269,0.955117 -2.68969,2.007782 -4.21557,2.339255 -1.52587,0.331473 -3.61807,0.882889 -4.64932,1.225368 -1.03125,0.342477 -6.09375,-0.320634 -11.25,-1.473584 z m -85.9375,-0.22609 c -5.012251,-1.447235 -5.070371,-2.386228 -0.363116,-5.866453 4.772606,-3.528538 12.521594,-3.577252 19.655961,-0.123565 2.96706,1.43633 5.394655,3.046175 5.394655,3.577436 0,1.145246 -12.768896,3.859867 -17.395976,3.698322 -1.775964,-0.062 -5.057149,-0.640587 -7.291524,-1.28574 z M 53.974836,54.862822 c -0.247311,-6.262321 0.268738,-8.6104 2.8666,-13.043316 C 59.662651,37.005468 65.801685,31.25 68.115335,31.25 c 1.312266,0 -0.674561,10.158564 -2.811484,14.375 -1.045291,2.0625 -3.510026,5.597698 -5.47719,7.855995 C 57.859498,55.739292 56.25,58.692417 56.25,60.043495 56.25,61.394573 55.80595,62.5 55.263222,62.5 c -0.542727,0 -1.122501,-3.43673 -1.288386,-7.637178 z M 67.94833,53.11535 c -1.116833,-2.910419 2.762429,-7.755134 7.319894,-9.141638 5.541562,-1.685893 22.559143,-3.021425 22.029775,-1.728886 C 96.116891,45.128689 86.260261,52.386284 81.875,53.601027 74.745439,55.575959 68.813166,55.369077 67.94833,53.11535 Z"
         id="path3346"
         inkscape:connector-curvature="0" />
      <path
         style="fill:#359847"
         d="m 74.375,208.79195 c -5.802281,-2.39597 20.295091,-10.62503 26.33974,-8.30548 1.96718,0.75488 1.94989,1.01284 -0.23209,3.46212 -1.296708,1.45555 -4.167709,3.41256 -6.380001,4.34893 -4.385625,1.85624 -15.740607,2.14082 -19.727649,0.49443 z m 57.5,-0.25067 c -3.40353,-1.88243 -8.125,-6.24604 -8.125,-7.50917 0,-1.99961 11.24137,-1.00072 18.39061,1.63415 8.99748,3.31604 11.12943,4.82467 8.85605,6.26677 -2.37136,1.50426 -16.20602,1.22083 -19.12166,-0.39175 z M 57.030993,198.16362 c -5.340763,-1.90371 -7.934089,-3.9272 -6.662643,-5.19863 2.842132,-2.84214 22.481595,-1.76526 26.650369,1.46128 2.304855,1.78393 2.303325,1.86465 -0.07014,3.69873 -3.04216,2.35081 -13.374641,2.37085 -19.917595,0.0386 z m 93.109257,0.33625 c -3.92996,-2.13943 -3.50249,-3.79838 1.44098,-5.59227 6.45336,-2.3418 24.66877,-1.8034 24.66877,0.72914 0,0.45334 -1.7521,1.85924 -3.89354,3.12421 -4.95992,2.9299 -18.13429,3.9611 -22.21621,1.73893 z M 141.25,195 c 0,-0.6875 0.5625,-1.25 1.25,-1.25 0.6875,0 1.25,0.5625 1.25,1.25 0,0.6875 -0.5625,1.25 -1.25,1.25 -0.6875,0 -1.25,-0.5625 -1.25,-1.25 z m -43.742024,-3.50551 c -4.304673,-2.10495 -8.574857,-8.5335 -8.697936,-13.09431 -0.101475,-3.76027 9.638031,2.54533 12.53045,8.11252 3.99573,7.69079 3.37023,8.50386 -3.832514,4.98179 z M 121.25,193.06292 c 0,-4.15683 14.93292,-18.88915 15.97564,-15.76101 0.84207,2.52623 -4.26998,10.84945 -8.34799,13.59183 -3.98847,2.68216 -7.62765,3.71708 -7.62765,2.16918 z m 20.03951,-5.25042 c 0.0452,-3.94069 8.55058,-20.55124 10.89799,-21.28345 2.69214,-0.83975 1.88229,9.51565 -1.13971,14.57341 -3.21842,5.38648 -7.33112,10.14754 -8.76568,10.14754 -0.56766,0 -1.01432,-1.54688 -0.9926,-3.4375 z M 78.847437,186.25 c -2.318888,-2.40625 -4.976948,-6.18506 -5.906798,-8.39735 C 71.114306,173.50746 70.6267,163.75 72.235891,163.75 c 1.178947,0 8.052135,11.50369 10.198229,17.06882 0.836474,2.1691 1.320301,5.26286 1.07517,6.875 -0.435766,2.8659 -0.539588,2.83374 -4.661853,-1.44382 z M 42.881719,182.68021 C 35.879915,178.99511 31.25,175.31671 31.25,173.43896 c 0,-1.82225 12.399159,0.2986 17.6029,3.01094 2.527836,1.31759 5.625807,3.53346 6.884379,4.92416 1.961653,2.16762 2.02775,2.69338 0.463017,3.68312 -2.958655,1.87142 -6.42035,1.25361 -13.318577,-2.37697 z m 128.055781,2.67448 c -4.40104,-0.66672 -4.34351,-2.03932 0.2217,-5.29004 6.10975,-4.35051 14.19789,-7.50823 19.30576,-7.5372 4.66023,-0.0264 4.77431,0.0714 3.07216,2.635 -1.68655,2.54007 -16.34097,11.29256 -18.2505,10.90026 -0.50138,-0.103 -2.4585,-0.42162 -4.34912,-0.70802 z M 60.653161,176.0155 c -2.572191,-8.05011 -3.034897,-14.22534 -1.504434,-20.078 3.058538,-11.69617 7.559711,6.9873 5.872358,24.375 -0.513061,5.28696 -1.668985,4.1498 -4.367924,-4.297 z m 99.858849,1.23781 c -1.64309,-4.98751 -0.79274,-15.1625 1.75531,-21.00331 l 2.4539,-5.625 1.38939,3.51887 c 2.69426,6.82372 0.98048,21.31457 -2.90188,24.53664 -1.39371,1.15666 -1.94089,0.86708 -2.69672,-1.4272 z M 28.0011,161.00234 C 23.149339,156.53014 18.75,150.4668 18.75,148.2521 c 0,-0.8729 7.66726,1.82809 10.339097,3.64221 4.884247,3.3163 12.160903,10.81445 12.160903,12.53108 0,1.19701 -1.299466,1.82461 -3.777929,1.82461 -2.699907,0 -5.402423,-1.49741 -9.470971,-5.24766 z m 155.7489,3.61787 c 0,-3.49486 15.73172,-15.87021 20.17444,-15.87021 3.99677,0 2.57561,3.38209 -4.44116,10.5691 -5.72295,5.86181 -7.45827,6.9309 -11.25,6.9309 -2.85202,0 -4.48328,-0.59301 -4.48328,-1.62979 z M 47.469061,159.29362 C 46.798577,157.53012 46.25,154.483 46.25,152.52226 46.25,148.31685 50.639243,137.5 52.345706,137.5 c 3.101604,0 3.054561,13.43279 -0.07551,21.5625 -1.653973,4.29585 -3.226938,4.37157 -4.801133,0.23112 z M 173.00407,158.0284 c -2.1394,-5.12033 -1.94285,-19.43659 0.2769,-20.16868 1.9658,-0.64834 5.73967,9.30438 5.67713,14.97217 -0.11163,10.11846 -2.88584,12.5397 -5.95403,5.19651 z M 27.347869,144.09837 C 23.611864,143.23232 16.123214,132.62698 14.5241,125.9375 c -1.3352,-5.58547 2.586316,-4.28529 9.387363,3.1124 7.909767,8.60367 9.713771,16.50364 3.436406,15.04847 z m 165.730541,-2.4828 c 0.75704,-3.01627 3.93009,-7.38613 11.83801,-16.30307 3.53522,-3.98629 6.33358,-3.64422 6.33358,0.77421 0,4.28776 -8.8625,16.04269 -13.3942,17.76564 -4.84763,1.84306 -5.70106,1.44347 -4.77739,-2.23678 z m -154.77284,1.1766 C 37.003259,140.68498 40.133855,129.6577 43.161172,125.68869 46.746879,120.98758 50,119.13916 50,121.80286 c 0,0.94842 -1.080796,5.19701 -2.401769,9.4413 -2.948779,9.47445 -7.261717,14.83414 -9.292661,11.54801 z M 180.5797,137.1875 c -1.6804,-3.60938 -3.06078,-7.51368 -3.06749,-8.67623 -0.007,-1.16255 -0.57471,-2.46137 -1.26221,-2.88627 -0.6875,-0.4249 -1.25,-2.24365 -1.25,-4.04166 l 0,-3.26913 3.27456,3.0304 c 5.64075,5.22015 9.22544,11.97362 9.22544,17.38055 0,7.28526 -3.13716,6.5882 -6.9203,-1.53766 z M 35,120.81153 c 0,-4.4998 3.214332,-9.78363 8.417985,-13.83775 C 48.64249,102.9034 52.5,101.32137 52.5,103.24909 c 0,0.412 -2.073089,4.10776 -4.606865,8.2128 C 42.80816,119.7002 35,125.3624 35,120.81153 Z m 149.62852,-1.0657 c -1.73057,-1.57896 -5.22313,-5.96458 -7.76125,-9.74583 -3.88297,-5.78481 -4.27771,-6.94296 -2.48932,-7.30355 4.23517,-0.85395 15.10386,10.06802 15.85963,15.93736 0.52824,4.10247 -1.82098,4.56821 -5.60905,1.11202 z M 196.25,118.8513 c 0,-1.31929 0.76561,-3.99116 1.70137,-5.9375 9.96097,-20.718531 10.00654,-20.79521 10.94245,-18.410068 1.88547,4.805084 1.01038,10.424528 -2.73096,17.536918 -2.11042,4.01198 -4.50105,7.71674 -5.3125,8.23279 -2.60755,1.65831 -4.60036,1.04226 -4.60036,-1.42214 z M 20.091739,113.28534 C 17.053155,107.97445 16.25,105.09987 16.25,99.535341 16.25,95.665904 16.728342,92.5 17.312982,92.5 c 1.925754,0 8.925589,15.50556 9.734181,21.5625 1.109429,8.31043 -1.951728,7.96839 -6.955424,-0.77716 z M 37.5,99.515986 c 0,-3.566728 8.177564,-10.325057 14.384404,-11.887957 3.255832,-0.819829 6.202515,-1.207776 6.548185,-0.862106 0.940815,0.940815 -5.809588,8.561507 -9.655537,10.900368 C 43.48942,100.88189 37.5,101.86429 37.5,99.515986 Z m 145.76115,0.838394 C 177.99296,99.004679 167.5,90.052591 167.5,86.907736 c 0,-1.312205 7.5685,0.615665 12.78674,3.257074 4.485,2.270252 9.20152,8.680256 7.58007,10.30171 -0.83155,0.83155 -0.93177,0.82911 -4.60566,-0.11214 z M 27.775272,95.9375 C 23.593187,90.83576 23.048869,74.375982 26.889725,69.159184 28.774761,66.598855 28.82961,66.681616 31.174881,75.625 33.31283,83.777789 32.580385,97.5 30.007266,97.5 c -0.523135,0 -1.527532,-0.703125 -2.231994,-1.5625 z m 165.755938,-2.5 C 192.98722,83.336771 195.41192,67.5 197.5024,67.5 c 1.76451,0 3.7476,7.66236 3.7476,14.480155 0,9.172744 -2.6452,15.420724 -6.5625,15.500704 -0.51563,0.0105 -1.03595,-1.808984 -1.15629,-4.043359 z M 186.25,81.323771 c 0,-3.018206 0.69514,-3.322694 1.68667,-0.738802 0.38728,1.009232 0.16622,2.16743 -0.49126,2.573771 C 186.78794,83.565081 186.25,82.739345 186.25,81.323771 Z M 47.083334,81.666666 c -1.965504,-1.965502 -0.445049,-3.980675 5.40631,-7.165383 6.513453,-3.545067 16.170381,-4.211444 17.16465,-1.184449 0.260477,0.793009 -3.21293,3.183634 -7.718685,5.3125 -7.887834,3.726822 -13.097413,4.792196 -14.852275,3.037332 z M 165,79.192606 c -8.94036,-4.112665 -10.65938,-5.50372 -8.49666,-6.875626 3.60207,-2.284967 11.60046,-1.032788 17.6448,2.762366 3.31272,2.080015 5.80065,4.459953 5.52873,5.28875 -0.86323,2.631108 -7.56946,2.093998 -14.67687,-1.17549 z M 37.377389,72.8125 C 35.51847,67.937347 37.158673,59.03418 41.053517,52.85814 42.880334,49.961367 44.796875,47.570743 45.3125,47.54564 47.649936,47.431846 46.148197,62.419119 43.140762,69.219463 41.430681,73.086258 39.72926,76.25 39.359824,76.25 c -0.369435,0 -1.261532,-1.546875 -1.982435,-3.4375 z m 146.359851,0.135863 c -0.7173,-1.965349 -1.8809,-5.026179 -2.58579,-6.801844 -0.70488,-1.775665 -1.11169,-6.796253 -0.90403,-11.15686 l 0.37758,-7.928379 3.69919,5.351656 c 4.53567,6.561832 6.10743,19.635326 2.70058,22.462765 -1.71105,1.420037 -2.16239,1.155426 -3.28753,-1.927338 z M 66.875,66.559695 c -9.531985,-1.551928 -10.197779,-2.549754 -3.947311,-5.915852 3.092905,-1.665639 5.876041,-2.086644 10.718335,-1.621362 5.790214,0.556368 11.619097,3.629064 9.984716,5.263447 -0.949623,0.949622 -14.006256,2.721417 -16.75574,2.273767 z m 81.5625,-0.61203 c -3.95313,-0.677295 -7.1875,-1.679916 -7.1875,-2.228048 0,-0.548131 2.52345,-2.218186 5.60767,-3.711232 4.12638,-1.997541 6.68057,-2.478989 9.66918,-1.82258 4.49636,0.987569 9.72315,4.024359 9.72315,5.649202 0,0.933739 -8.43153,3.882729 -10,3.497577 -0.34375,-0.08441 -3.85938,-0.707624 -7.8125,-1.384919 z M 54.419497,55.071999 C 52.068634,51.26822 58.349712,37.763868 64.030595,34.408087 L 67.5,32.35866 l 0,3.870468 c 0,2.128757 -1.073485,5.957433 -2.385521,8.508169 -3.06277,5.954344 -9.536179,12.209684 -10.694982,10.334702 z M 166.05555,52.043837 c -4.5396,-4.172648 -10.07429,-17.191763 -8.13359,-19.132463 1.46738,-1.467383 7.54393,3.900308 10.59278,9.357082 1.87985,3.364544 2.75352,6.710265 2.5,9.573725 l -0.38974,4.401729 -4.56945,-4.200073 z m -21.30683,1.254643 c -2.54445,-0.791663 -6.48195,-3.182566 -8.75,-5.313119 -2.26805,-2.130554 -5.24872,-4.296726 -6.62372,-4.813717 -2.5,-0.939983 -2.5,-0.939983 0,-1.967957 7.90062,-3.248654 24.30322,1.337484 26.85996,7.510003 0.82821,1.99948 1.13721,4.231869 0.68666,4.960864 -1.02565,1.659536 -6.13796,1.501595 -12.1729,-0.376074 z M 68.75,51.443735 C 68.75,46.330281 77.420936,42.5 88.996701,42.5 l 7.373643,0 -4.294509,4.421915 C 87.3508,51.787129 82.174874,53.75 74.070752,53.75 69.732321,53.75 68.75,53.324216 68.75,51.443735 Z"
         id="path3344"
         inkscape:connector-curvature="0" />
      <path
         style="fill:#49784f"
         d="m 138.125,208.84839 c -5.23811,-0.87864 -11.875,-4.54832 -11.875,-6.56593 0,-0.649 -0.5625,-0.83236 -1.25,-0.40746 -0.6875,0.4249 -1.25,0.28689 -1.25,-0.30667 0,-1.76121 8.86501,-0.95639 16.25,1.47525 8.24931,2.71623 10.06746,4.10952 7.48955,5.73933 -2.03443,1.2862 -2.08491,1.28656 -9.36455,0.0655 z m -65,-1.34839 c 0.424899,-0.6875 1.335042,-1.25 2.022542,-1.25 0.6875,0 0.902357,0.5625 0.477458,1.25 -0.424899,0.6875 -1.335043,1.25 -2.022543,1.25 -0.6875,0 -0.902356,-0.5625 -0.477457,-1.25 z m 4.660083,-0.3125 c 0.622097,-1.97 15.806991,-6.99475 18.784902,-6.21601 4.032565,1.05455 3.582335,2.64998 -1.476038,5.23058 -5.734167,2.92536 -18.144584,3.6319 -17.308864,0.98543 z M 56.348711,197.16908 c -1.664459,-0.84924 -3.278367,-2.30768 -3.586462,-3.24097 -0.452538,-1.37083 1.449982,-1.5768 9.901289,-1.07195 11.639967,0.69535 14.311939,1.15795 15.737782,2.72473 0.535524,0.58846 0.270555,0.6653 -0.58882,0.17075 -0.96635,-0.55612 -1.5625,-0.15565 -1.5625,1.04958 0,1.57438 -1.620996,1.94524 -8.4375,1.93035 -4.640625,-0.01 -9.79933,-0.71326 -11.463789,-1.5625 z m 92.633489,0.26226 c -2.73091,-1.09527 -2.79038,-3.68134 -0.0847,-3.68134 0.6875,0 0.91704,0.53875 0.51008,1.19722 -0.40696,0.65847 0.82547,0.38069 2.73873,-0.6173 3.91375,-2.04147 19.77896,-2.52106 20.94575,-0.63316 2.3279,3.76663 -16.68634,6.71189 -24.1099,3.73458 z M 141.25,195 c 0,-0.6875 0.5625,-1.25 1.25,-1.25 0.6875,0 1.25,0.5625 1.25,1.25 0,0.6875 -0.5625,1.25 -1.25,1.25 -0.6875,0 -1.25,-0.5625 -1.25,-1.25 z m -44.524192,-4.88699 c -3.471507,-2.11685 -7.644777,-9.61071 -6.172193,-11.0833 1.16175,-1.16175 9.072505,4.78044 10.481755,7.8734 2.8076,6.16203 1.78312,6.92509 -4.309562,3.2099 z M 122.5,191.02486 c 0,-1.65119 10.98325,-12.27486 12.69032,-12.27486 0.86378,0 -1.96692,8.75671 -3.04278,9.41279 -0.1499,0.0914 -1.66333,1.10467 -3.36318,2.2517 -3.61451,2.43901 -6.28436,2.69832 -6.28436,0.61037 z m 18.75,-3.7332 c 0,-4.55159 0.54566,-4.38665 1.72297,0.52084 0.48955,2.04068 0.30704,3.4375 -0.44916,3.4375 -0.7006,0 -1.27381,-1.78125 -1.27381,-3.95834 z m -63.5393,-3.3357 c -2.085934,-2.03906 -3.455429,-4.04456 -3.04332,-4.45667 0.412107,-0.41212 0.198146,-0.74929 -0.47547,-0.74929 -0.673616,0 -1.362444,-2.65991 -1.530729,-5.9109 l -0.305972,-5.91091 3.051795,2.86701 c 2.918631,2.74191 8.06126,15.9032 6.733002,17.23146 -0.350183,0.35019 -2.343371,-1.03162 -4.429306,-3.0707 z m 66.0393,1.78195 c 0,-1.13751 0.8738,-4.15951 1.94179,-6.71556 1.06798,-2.55604 1.97833,-4.9286 2.023,-5.27235 0.0446,-0.34375 0.87422,-1.75 1.84345,-3.125 1.51266,-2.14594 1.93023,-2.23445 2.94846,-0.625 1.39474,2.20459 0.61014,5.38414 -2.66433,10.79698 -3.27547,5.41451 -6.09237,7.69902 -6.09237,4.94093 z M 41.5625,181.03165 C 37.953125,179.00198 35,176.81452 35,176.17066 c 0,-1.90363 8.547766,-1.33593 12.874575,0.85508 4.68216,2.37095 8.375425,5.42153 8.375425,6.918 0,2.26981 -8.452872,0.59387 -14.6875,-2.91209 z M 170,183.22256 c 0,-2.36121 14.38969,-9.47256 19.16755,-9.47256 l 3.76824,0 L 190,176.875 c -1.61469,1.71875 -3.60563,3.125 -4.42432,3.125 -0.81869,0 -2.91874,1.125 -4.66677,2.5 C 177.17914,185.43384 170,185.90936 170,183.22256 Z M 62.5,181.97724 c 0,-0.97503 -0.343879,-2.6689 -0.764176,-3.76418 -0.540099,-1.40747 -0.219383,-1.78236 1.09375,-1.27846 1.959447,0.75191 2.639315,6.8154 0.764176,6.8154 -0.601563,0 -1.09375,-0.79775 -1.09375,-1.77276 z M 161.25,178.75 c 0,-0.6875 0.5957,-1.25 1.32377,-1.25 0.72808,0 0.97613,0.5625 0.55123,1.25 -0.4249,0.6875 -1.0206,1.25 -1.32378,1.25 -0.30317,0 -0.55122,-0.5625 -0.55122,-1.25 z M 61.192592,173.64274 c -3.068363,-5.7333 -2.445509,-21.56233 0.723746,-18.39307 2.526172,2.52617 4.177948,21.00033 1.877642,21.00033 -0.663311,0 -1.833935,-1.17328 -2.601388,-2.60726 z m 99.566208,0.48857 C 159.75065,170.89717 160.13925,160 161.26274,160 c 0.52012,0 1.25467,-1.1816 1.63233,-2.62578 0.94668,-3.6201 3.09378,-1.91242 4.05804,3.22754 1.40165,7.47141 -4.24095,19.7959 -6.19431,13.52955 z M 31.25,173.75 c 0,-0.6875 0.595697,-1.25 1.323771,-1.25 0.728074,0 0.976128,0.5625 0.551229,1.25 C 32.700101,174.4375 32.104405,175 31.801229,175 31.498052,175 31.25,174.4375 31.25,173.75 Z m 40,-8.75 c 0,-0.6875 0.5625,-1.25 1.25,-1.25 0.6875,0 1.25,0.5625 1.25,1.25 0,0.6875 -0.5625,1.25 -1.25,1.25 -0.6875,0 -1.25,-0.5625 -1.25,-1.25 z m 112.58786,-0.16414 c -0.0484,-1.12152 1.89166,-3.549 4.31109,-5.39437 2.41941,-1.84539 5.86519,-4.71412 7.65725,-6.37495 1.79207,-1.66084 3.75005,-2.71579 4.35106,-2.34435 0.601,0.37145 1.09274,0.19936 1.09274,-0.38242 0,-0.58177 1.17279,-1.14611 2.6062,-1.25408 2.46146,-0.18542 2.49511,-0.044 0.60592,2.5465 -1.10015,1.50855 -2.5851,3.87811 -3.29988,5.26571 -2.86579,5.56324 -14.76334,10.75021 -15.0001,6.5396 -0.0482,-0.85938 -0.57128,-0.4375 -1.16214,0.9375 -0.82955,1.93047 -1.0943,2.03546 -1.16214,0.46086 z M 28.688035,160.42031 C 23.634118,155.8544 20.55127,151.53206 21.600364,150.48297 23.364715,148.71861 40,160.80951 40,163.85624 c 0,2.82079 -6.60827,0.81357 -11.311965,-3.43593 z M 173.93279,158.02699 C 172.22914,154.28789 172.00232,140 173.64661,140 c 0.63064,0 2.10405,2.50698 3.27424,5.57107 3.20918,8.40313 0.4348,19.96829 -2.98806,12.45592 z m -125.653781,0.0486 c -2.032768,-5.29731 1.316977,-19.24538 4.194796,-17.46679 1.403798,0.8676 1.518063,10.75892 0.179616,15.54852 -1.030135,3.68631 -3.311971,4.68695 -4.374412,1.91827 z M 163.75,152.42622 c 0,-0.72807 0.5625,-0.97612 1.25,-0.55122 0.6875,0.4249 1.25,1.0206 1.25,1.32377 0,0.30318 -0.5625,0.55123 -1.25,0.55123 -0.6875,0 -1.25,-0.5957 -1.25,-1.32378 z m 28.75,-9.45428 c 0,-1.67973 0.32887,-1.75511 1.91481,-0.43889 1.68826,1.40113 1.753,1.16353 0.54713,-2.00816 -0.75224,-1.97852 -0.97502,-3.20464 -0.49508,-2.72469 1.04151,1.0415 9.37169,-9.14565 8.55675,-10.46424 -0.68068,-1.10138 1.77978,-2.76063 4.78889,-3.22945 6.56735,-1.02322 -1.78044,15.07727 -10.1357,19.54887 -3.53336,1.89099 -5.1768,1.67403 -5.1768,-0.68344 z M 26.602212,142.86539 c -0.837532,-0.30099 -3.547995,-3.30613 -6.023249,-6.67811 -3.15257,-4.29466 -4.381188,-7.16884 -4.102213,-9.59657 l 0.39825,-3.46571 3.75,3.96548 c 2.0625,2.18102 5.015625,5.5045 6.5625,7.38551 3.986022,4.84704 3.633126,9.90538 -0.585288,8.3894 z M 182.3127,138.75 c -0.719,-2.0625 -1.84794,-3.75 -2.50875,-3.75 -0.66083,0 -0.86915,-0.53774 -0.46295,-1.19498 0.40619,-0.65723 -0.1305,-3.27485 -1.19264,-5.81692 -2.13509,-5.10997 -1.70399,-6.6703 1.18133,-4.2757 3.15255,2.61638 6.66016,9.14159 7.57947,14.1001 0.7205,3.88621 0.51365,4.6875 -1.21007,4.6875 -1.18632,0 -2.6405,-1.61032 -3.38639,-3.75 z M 39.370624,137.1875 c 0.513217,-2.23438 0.985315,-4.91694 1.049106,-5.96127 0.06379,-1.04432 1.682949,-3.19647 3.598127,-4.78257 L 47.5,123.55985 l -0.02745,3.53258 c -0.04007,5.15579 -4.454418,14.15757 -6.942682,14.15757 -1.718694,0 -1.92572,-0.72551 -1.159241,-4.0625 z M 185.62146,120.29336 C 184.19984,119.25186 175,105.41953 175,104.32356 c 0,-1.24053 7.48317,3.64602 10.59192,6.91658 3.64346,3.83309 5.48924,10.01899 2.98109,9.99072 -0.93391,-0.0105 -2.2621,-0.4324 -2.95155,-0.9375 z M 196.25,118.18711 c 0,-1.68458 0.76419,-3.51271 1.6982,-4.0625 0.93401,-0.54978 2.40295,-3.24961 3.26431,-5.99961 3.0465,-9.726329 7.54958,-14.027275 7.52528,-7.1875 -0.0157,4.43373 -5.56938,16.38447 -8.05778,17.33936 -1.05361,0.40431 -1.60444,1.23866 -1.22406,1.85412 0.38037,0.61546 -0.18535,1.11902 -1.25718,1.11902 -1.23482,0 -1.94877,-1.12212 -1.94877,-3.06289 z M 36.810462,116.5625 c 0.749368,-3.09802 8.680506,-11.39935 11.002038,-11.51557 1.854983,-0.0929 0.82305,3.18468 -2.838546,9.01557 -2.527134,4.02432 -4.577019,5.9375 -6.36176,5.9375 -2.240835,0 -2.509314,-0.51223 -1.801732,-3.4375 z M 20.9375,113.30419 c -2.570329,-4.06866 -3.42616,-6.98494 -3.392546,-11.56026 l 0.04495,-6.11893 2.985723,3.652231 c 4.047457,4.950979 7.581484,19.477319 4.73687,19.470529 -0.515625,-0.001 -2.484375,-2.45083 -4.375,-5.44357 z M 37.598684,99.270834 c 0.05998,-1.456179 0.356176,-1.752375 0.755208,-0.755209 0.361089,0.902344 0.31668,1.980465 -0.09869,2.395835 -0.415365,0.41536 -0.710801,-0.32292 -0.656525,-1.640626 z M 185,100.75874 c 0,-0.2702 0.87296,-0.826256 1.93993,-1.235686 1.11239,-0.42687 1.61414,-0.217311 1.17622,0.491266 C 187.38208,101.20207 185,101.77113 185,100.75874 Z M 40,97.590725 c 0,-1.325101 1.471345,-3.566635 3.269656,-4.981186 3.336995,-2.624882 11.727179,-5.52937 12.81893,-4.437619 1.088468,1.088466 -6.621097,8.346409 -10.735937,10.107031 C 40.190404,100.48773 40,100.46325 40,97.590725 Z m 133.98974,-4.45617 -5.86474,-5.615446 4.375,0.788562 c 5.93681,1.070069 10.76434,4.007143 12.36669,7.523918 1.20303,2.640371 1.02761,2.918411 -1.84125,2.918411 -2.05372,0 -5.23733,-1.978525 -9.0357,-5.615445 z M 27.571226,93.883088 C 25.232505,89.513148 24.610738,79.809169 26.281227,73.75 l 1.550793,-5.625 1.613893,4.375 c 1.854665,5.027695 2.296528,19.786987 0.669304,22.356375 -0.874642,1.38106 -1.389375,1.184131 -2.543991,-0.973287 z M 16.25,93.75 c 0,-0.6875 0.595697,-1.25 1.323771,-1.25 0.728074,0 0.976128,0.5625 0.551229,1.25 C 17.700101,94.4375 17.104405,95 16.801229,95 16.498052,95 16.25,94.4375 16.25,93.75 Z m 178.79645,-1.752825 c -1.63788,-4.307955 -1.62673,-6.584101 0.0711,-14.500643 1.6412,-7.652661 3.95269,-7.659737 4.99202,-0.01529 1.43067,10.522965 -2.4027,21.51329 -5.0631,14.515925 z M 186.25,81.323771 c 0,-3.018206 0.69514,-3.322694 1.68667,-0.738802 0.38728,1.009232 0.16622,2.16743 -0.49126,2.573771 C 186.78794,83.565081 186.25,82.739345 186.25,81.323771 Z M 47.539754,80.961315 c 0.04124,-1.64571 3.710246,-7.12722 3.710246,-5.543126 0,0.492806 1.659566,0.03781 3.687925,-1.011089 C 59.144456,72.231819 67.5,71.840506 67.5,73.818786 c 0,1.381229 -10.656424,6.460484 -16.5625,7.894315 -2.390131,0.580256 -3.425388,0.351196 -3.397746,-0.751786 z M 171.24531,81.5625 c -0.002,-0.515625 -2.49936,-1.96334 -5.54841,-3.217144 -3.04905,-1.253803 -6.20957,-3.081928 -7.02338,-4.0625 -2.53052,-3.049104 8.58807,-2.17037 14.33958,1.133297 6.13112,3.521725 7.07462,7.083847 1.8763,7.083847 -2.00168,0 -3.64151,-0.421875 -3.64409,-0.9375 z M 37.925383,71.805551 C 36.613135,68.385889 38.678706,58.384269 41.572898,54.144057 L 44.375,50.038765 44.747836,56.82591 c 0.272263,4.956271 -0.324682,8.154397 -2.212904,11.855618 -2.842171,5.571113 -3.499548,6.016638 -4.60955,3.124023 z M 183.03382,68.099576 c -2.46926,-5.909751 -3.6497,-15.071399 -2.06787,-16.049027 2.99035,-1.848133 8.40706,11.866969 6.96564,17.636951 -1.01039,4.044547 -2.78474,3.469281 -4.89777,-1.587924 z M 64.0625,65.403352 C 57.51202,64.05895 63.139503,60 71.553911,60 c 5.301615,0 11.231025,2.677977 8.947952,4.041281 -1.754682,1.047784 -13.307023,2.004944 -16.439363,1.362071 z m 86.18656,-0.386403 c -5.17154,-1.22478 -6.31652,-2.32727 -3.96286,-3.815774 3.37146,-2.132181 13.13601,-1.41148 15.44504,1.139968 2.00816,2.218998 1.96936,2.381149 -0.74376,3.107932 -3.44949,0.924035 -5.33199,0.848281 -10.73842,-0.432126 z M 55.389674,49.333001 C 56.094735,44.988222 62.865069,35 65.105036,35 c 1.893563,0 1.291047,6.102542 -0.960809,9.731479 C 61.190546,49.491433 57.282754,53.75 55.868555,53.75 c -0.670534,0 -0.880855,-1.939923 -0.478881,-4.416999 z m 88.762536,2.759401 C 140.31358,50.674549 132.60566,44.1029 132.53472,42.1875 c -0.0617,-1.665458 9.90825,-0.994878 14.64718,0.985173 5.89422,2.462766 9.0681,5.35767 9.0681,8.271062 0,1.788114 -0.91273,2.284899 -4.0625,2.211167 -2.23438,-0.0523 -5.85025,-0.755428 -8.03529,-1.5625 z m 21.80678,-1.824349 C 162.01611,46.052512 158.75,39.709661 158.75,36.268095 c 0,-6.114388 9.46032,3.921724 11.27306,11.959181 1.25649,5.57109 -0.117,6.260798 -4.06407,2.040776 z M 70.224516,50.3125 c 0.624322,-3.348736 8.325717,-6.558373 15.7418,-6.560558 L 92.557632,43.75 90.571336,46.781471 C 88.157344,50.46569 82.741371,52.5 75.346816,52.5 c -4.588816,0 -5.460708,-0.372345 -5.1223,-2.1875 z"
         id="path3342"
         inkscape:connector-curvature="0" />
      <path
         style="fill:#159425"
         d="m 138.125,208.84839 c -4.98113,-0.83554 -11.875,-4.51988 -11.875,-6.34643 0,-2.23333 6.83004,-1.97721 13.7105,0.51415 8.63537,3.12679 10.018,4.19237 7.5033,5.78272 -2.0073,1.26944 -2.06444,1.26976 -9.3388,0.0495 z M 77.785083,207.1875 c 0.622097,-1.97 15.806991,-6.99475 18.784902,-6.21601 4.032565,1.05455 3.582335,2.64998 -1.476038,5.23058 -5.734167,2.92536 -18.144584,3.6319 -17.308864,0.98543 z M 56.348711,197.16908 C 50.222559,194.04339 51.781376,192.5 61.064459,192.5 c 9.870571,0 15.185541,1.52042 15.185541,4.34406 0,1.5215 -1.701904,1.90223 -8.4375,1.88751 -4.640625,-0.01 -9.79933,-0.71326 -11.463789,-1.5625 z m 93.904629,0.51395 c -3.33353,-2.11462 2.38796,-4.51658 11.90298,-4.99707 10.7855,-0.54465 13.92163,1.04602 8.04938,4.08267 -4.05739,2.09816 -17.14101,2.69776 -19.95236,0.9144 z m -53.527532,-7.57002 c -3.471507,-2.11685 -7.644777,-9.61071 -6.172193,-11.0833 1.16175,-1.16175 9.072505,4.78044 10.481755,7.8734 2.8076,6.16203 1.78312,6.92509 -4.309562,3.2099 z M 122.5,191.02486 c 0,-1.65119 10.98325,-12.27486 12.69032,-12.27486 0.86378,0 -1.96692,8.75671 -3.04278,9.41279 -0.1499,0.0914 -1.66333,1.10467 -3.36318,2.2517 -3.61451,2.43901 -6.28436,2.69832 -6.28436,0.61037 z m -42.794951,-5.10027 c -3.524276,-2.74783 -7.195575,-10.18182 -7.200377,-14.57998 l -0.0047,-4.2804 2.979399,2.799 c 2.751087,2.58451 7.993405,15.83065 6.755202,17.06885 -0.298157,0.29816 -1.436455,-0.15521 -2.529552,-1.00747 z m 64.429461,-1.77009 c 0.94975,-4.92173 5.79451,-15.4045 7.11941,-15.4045 4.03828,0 0.31794,12.1173 -5.2263,17.02231 -2.65716,2.35079 -2.65868,2.34949 -1.89311,-1.61781 z M 41.5625,181.03165 C 37.953125,179.00198 35,176.81452 35,176.17066 c 0,-1.90363 8.547766,-1.33593 12.874575,0.85508 4.68216,2.37095 8.375425,5.42153 8.375425,6.918 0,2.26981 -8.452872,0.59387 -14.6875,-2.91209 z M 170,183.22256 c 0,-2.36121 14.38969,-9.47256 19.16755,-9.47256 l 3.76824,0 L 190,176.875 c -1.61469,1.71875 -3.60563,3.125 -4.42432,3.125 -0.81869,0 -2.91874,1.125 -4.66677,2.5 C 177.17914,185.43384 170,185.90936 170,183.22256 Z M 61.192592,173.64274 c -3.068363,-5.7333 -2.445509,-21.56233 0.723746,-18.39307 2.526172,2.52617 4.177948,21.00033 1.877642,21.00033 -0.663311,0 -1.833935,-1.17328 -2.601388,-2.60726 z m 99.282158,-0.67137 c -0.97604,-3.88883 1.96339,-16.80061 3.90025,-17.13231 2.51452,-0.43061 3.55556,8.49426 1.65565,14.19399 -2.16889,6.50665 -4.36836,7.66988 -5.5559,2.93833 z M 28.688035,160.42031 C 23.634118,155.8544 20.55127,151.53206 21.600364,150.48297 23.364715,148.71861 40,160.80951 40,163.85624 c 0,2.82079 -6.60827,0.81357 -11.311965,-3.43593 z M 186.25,163.22226 c 0,-3.79531 16.08802,-15.05091 18.32104,-12.81789 1.02313,1.02313 -5.24883,9.32309 -9.02339,11.94105 -4.38651,3.0424 -9.29765,3.50557 -9.29765,0.87684 z m -12.31721,-5.19527 C 172.22914,154.28789 172.00232,140 173.64661,140 c 0.63064,0 2.10405,2.50698 3.27424,5.57107 3.20918,8.40313 0.4348,19.96829 -2.98806,12.45592 z m -125.653781,0.0486 c -2.032768,-5.29731 1.316977,-19.24538 4.194796,-17.46679 1.403798,0.8676 1.518063,10.75892 0.179616,15.54852 -1.030135,3.68631 -3.311971,4.68695 -4.374412,1.91827 z m -21.676797,-15.2102 c -0.837532,-0.30099 -3.547995,-3.30613 -6.023249,-6.67811 -3.15257,-4.29466 -4.381188,-7.16884 -4.102213,-9.59657 l 0.39825,-3.46571 3.75,3.96548 c 2.0625,2.18102 5.015625,5.5045 6.5625,7.38551 3.986022,4.84704 3.633126,9.90538 -0.585288,8.3894 z m 169.231128,0.0513 c -1.62373,-1.62372 -0.7744,-3.68748 4.30078,-10.4503 7.23132,-9.63595 9.86588,-11.07998 9.86588,-5.4076 0,1.95253 -1.90399,5.66715 -4.64511,9.0625 -6.0669,7.51485 -7.663,8.65396 -9.52155,6.7954 z M 182.3632,139.0625 c -5.18983,-13.46503 -5.99081,-15.85155 -5.48875,-16.35362 1.93334,-1.93334 8.7892,8.38567 10.03471,15.10362 0.71578,3.8607 0.50835,4.6875 -1.17598,4.6875 -1.12478,0 -2.64127,-1.54688 -3.36998,-3.4375 z M 38.75,139.83252 c 0,-3.75826 3.178349,-11.28401 5.809511,-13.75586 L 47.5,123.31421 l -0.02745,3.6554 C 47.434701,132.00904 43.043143,141.25 40.686115,141.25 39.621251,141.25 38.75,140.61214 38.75,139.83252 Z M 185.62146,120.29336 C 184.19984,119.25186 175,105.41953 175,104.32356 c 0,-1.24053 7.48317,3.64602 10.59192,6.91658 3.64346,3.83309 5.48924,10.01899 2.98109,9.99072 -0.93391,-0.0105 -2.2621,-0.4324 -2.95155,-0.9375 z M 36.810462,116.5625 c 0.749368,-3.09802 8.680506,-11.39935 11.002038,-11.51557 1.854983,-0.0929 0.82305,3.18468 -2.838546,9.01557 -2.527134,4.02432 -4.577019,5.9375 -6.36176,5.9375 -2.240835,0 -2.509314,-0.51223 -1.801732,-3.4375 z M 20.9375,113.30419 c -2.570329,-4.06866 -3.42616,-6.98494 -3.392546,-11.56026 l 0.04495,-6.11893 2.985723,3.652231 c 4.047457,4.950979 7.581484,19.477319 4.73687,19.470529 -0.515625,-0.001 -2.484375,-2.45083 -4.375,-5.44357 z m 177.8125,3.87067 c 0,-2.62753 4.75979,-16.00427 6.39644,-17.976303 4.68127,-5.640594 4.80015,3.009993 0.16606,12.084473 -3.35932,6.57823 -6.5625,9.45405 -6.5625,5.89182 z M 40,97.590725 c 0,-1.325101 1.471345,-3.566635 3.269656,-4.981186 3.336995,-2.624882 11.727179,-5.52937 12.81893,-4.437619 1.088468,1.088466 -6.621097,8.346409 -10.735937,10.107031 C 40.190404,100.48773 40,100.46325 40,97.590725 Z m 133.98974,-4.45617 -5.86474,-5.615446 4.375,0.788562 c 5.93681,1.070069 10.76434,4.007143 12.36669,7.523918 1.20303,2.640371 1.02761,2.918411 -1.84125,2.918411 -2.05372,0 -5.23733,-1.978525 -9.0357,-5.615445 z M 27.571226,93.883088 C 25.232505,89.513148 24.610738,79.809169 26.281227,73.75 l 1.550793,-5.625 1.613893,4.375 c 1.854665,5.027695 2.296528,19.786987 0.669304,22.356375 -0.874642,1.38106 -1.389375,1.184131 -2.543991,-0.973287 z M 195.04645,91.997175 c -1.63788,-4.307955 -1.62673,-6.584101 0.0711,-14.500643 1.6412,-7.652661 3.95269,-7.659737 4.99202,-0.01529 1.43067,10.522965 -2.4027,21.51329 -5.0631,14.515925 z M 47.805511,79.6875 c 0.897746,-2.729871 10.143936,-7.145604 15.006989,-7.166938 6.651381,-0.02917 5.808744,2.121143 -2.223141,5.673224 -7.53563,3.332613 -13.622478,4.043824 -12.783848,1.493714 z M 165.46567,78.270075 c -8.67052,-4.07616 -9.48526,-5.783885 -2.72695,-5.71586 5.4707,0.05506 15.19213,4.504719 14.96014,6.847494 -0.2348,2.371102 -5.89646,1.84737 -12.23319,-1.131634 z M 37.925383,71.805551 C 36.613135,68.385889 38.678706,58.384269 41.572898,54.144057 L 44.375,50.038765 44.747836,56.82591 c 0.272263,4.956271 -0.324682,8.154397 -2.212904,11.855618 -2.842171,5.571113 -3.499548,6.016638 -4.60955,3.124023 z M 183.03382,68.099576 c -2.46926,-5.909751 -3.6497,-15.071399 -2.06787,-16.049027 2.99035,-1.848133 8.40706,11.866969 6.96564,17.636951 -1.01039,4.044547 -2.78474,3.469281 -4.89777,-1.587924 z M 64.0625,65.403352 C 57.51202,64.05895 63.139503,60 71.553911,60 c 5.301615,0 11.231025,2.677977 8.947952,4.041281 -1.754682,1.047784 -13.307023,2.004944 -16.439363,1.362071 z m 86.18656,-0.386403 c -5.17154,-1.22478 -6.31652,-2.32727 -3.96286,-3.815774 3.37146,-2.132181 13.13601,-1.41148 15.44504,1.139968 2.00816,2.218998 1.96936,2.381149 -0.74376,3.107932 -3.44949,0.924035 -5.33199,0.848281 -10.73842,-0.432126 z M 55.389674,49.333001 C 56.094735,44.988222 62.865069,35 65.105036,35 c 1.893563,0 1.291047,6.102542 -0.960809,9.731479 C 61.190546,49.491433 57.282754,53.75 55.868555,53.75 c -0.670534,0 -0.880855,-1.939923 -0.478881,-4.416999 z m 88.762536,2.759401 C 140.31358,50.674549 132.60566,44.1029 132.53472,42.1875 c -0.0617,-1.665458 9.90825,-0.994878 14.64718,0.985173 5.89422,2.462766 9.0681,5.35767 9.0681,8.271062 0,1.788114 -0.91273,2.284899 -4.0625,2.211167 -2.23438,-0.0523 -5.85025,-0.755428 -8.03529,-1.5625 z m 21.80678,-1.824349 C 162.01611,46.052512 158.75,39.709661 158.75,36.268095 c 0,-6.114388 9.46032,3.921724 11.27306,11.959181 1.25649,5.57109 -0.117,6.260798 -4.06407,2.040776 z M 70.224516,50.3125 c 0.624322,-3.348736 8.325717,-6.558373 15.7418,-6.560558 L 92.557632,43.75 90.571336,46.781471 C 88.157344,50.46569 82.741371,52.5 75.346816,52.5 c -4.588816,0 -5.460708,-0.372345 -5.1223,-2.1875 z"
         id="path3340"
         inkscape:connector-curvature="0" />
    </g>
  </g>
</svg>
